<?xml version="1.0" encoding="utf-8"?>
<!-- generated at drububu.com  -->
<!DOCTYPE svg PUBLIC "-//W3C//DTD SVG 1.1//EN" "http://www.w3.org/Graphics/SVG/1.1/DTD/svg11.dtd">
<svg version="1.1" preserveAspectRatio="xMinYMin meet" xmlns="http://www.w3.org/2000/svg" xmlns:xlink="http://www.w3.org/1999/xlink" x="0px" y="0px" width="16px" height="16px" viewBox="0 0 16 16">
<path d="M0 0h16v16h-5v-5h1v-10h-1v3h-1v3h-1v3h-2v-3h-1v-3h-1v-3h-1v10h1v5h-5z" fill="rgb(0,0,0)"/>
<path d="M4 1h1v1h-1z" fill="rgb(161,161,161)"/>
<path d="M11 1h1v1h-1z" fill="rgb(183,183,183)"/>
<path d="M4 2h1v1h-1z" fill="rgb(160,160,160)"/>
<path d="M11 2h1v1h-1z" fill="rgb(109,109,109)"/>
<path d="M4 3h1v1h-1z" fill="rgb(178,178,178)"/>
<path d="M11 3h1v1h-1z" fill="rgb(147,147,147)"/>
<path d="M4 4h1v1h-1z" fill="rgb(198,198,198)"/>
<path d="M5 4h1v1h-1z" fill="rgb(87,87,87)"/>
<path d="M10 4h1v1h-1z" fill="rgb(137,137,137)"/>
<path d="M11 4h1v1h-1z" fill="rgb(186,186,186)"/>
<path d="M4 5h1v1h-1z" fill="rgb(183,183,183)"/>
<path d="M5 5h1v1h-1z" fill="rgb(112,112,112)"/>
<path d="M10 5h1v1h-1z" fill="rgb(152,152,152)"/>
<path d="M11 5h1v1h-1z" fill="rgb(193,193,193)"/>
<path d="M4 6h1v1h-1z" fill="rgb(184,184,184)"/>
<path d="M5 6h1v1h-1z" fill="rgb(158,158,158)"/>
<path d="M10 6h1v1h-1z" fill="rgb(176,176,176)"/>
<path d="M11 6h1v1h-1z" fill="rgb(187,187,187)"/>
<path d="M4 7h1v1h-1z" fill="rgb(190,190,190)"/>
<path d="M5 7h1v1h-1z" fill="rgb(182,182,182)"/>
<path d="M6 7h1v1h-1z" fill="rgb(85,85,85)"/>
<path d="M9 7h1v1h-1z" fill="rgb(111,111,111)"/>
<path d="M10 7h1v1h-1z" fill="rgb(202,202,202)"/>
<path d="M11 7h1v1h-1z" fill="rgb(188,188,188)"/>
<path d="M4 8h1v1h-1z" fill="rgb(198,198,198)"/>
<path d="M5 8h1v1h-1z" fill="rgb(213,213,213)"/>
<path d="M6 8h1v1h-1z" fill="rgb(170,170,170)"/>
<path d="M9 8h1v1h-1z" fill="rgb(131,131,131)"/>
<path d="M10 8h1v1h-1z" fill="rgb(212,212,212)"/>
<path d="M11 8h1v1h-1z" fill="rgb(200,200,200)"/>
<path d="M4 9h1v1h-1z" fill="rgb(188,188,188)"/>
<path d="M5 9h1v1h-1z" fill="rgb(216,216,216)"/>
<path d="M6 9h1v1h-1z" fill="rgb(205,205,205)"/>
<path d="M9 9h1v1h-1z" fill="rgb(194,194,194)"/>
<path d="M10 9h1v1h-1z" fill="rgb(220,220,220)"/>
<path d="M11 9h1v1h-1z" fill="rgb(196,196,196)"/>
<path d="M4 10h1v1h-1z" fill="rgb(151,151,151)"/>
<path d="M5 10h1v1h-1z" fill="rgb(196,196,196)"/>
<path d="M6 10h1v1h-1z" fill="rgb(216,216,216)"/>
<path d="M7 10h1v1h-1z" fill="rgb(179,179,179)"/>
<path d="M8 10h1v1h-1z" fill="rgb(178,178,178)"/>
<path d="M9 10h1v1h-1z" fill="rgb(217,217,217)"/>
<path d="M10 10h1v1h-1z" fill="rgb(198,198,198)"/>
<path d="M11 10h1v1h-1z" fill="rgb(171,171,171)"/>
<path d="M5 11h1v1h-1z" fill="rgb(148,148,148)"/>
<path d="M6 11h1v1h-1z" fill="rgb(209,209,209)"/>
<path d="M7 11h1v1h-1z" fill="rgb(221,221,221)"/>
<path d="M8 11h1v1h-1z" fill="rgb(222,222,222)"/>
<path d="M9 11h1v1h-1z" fill="rgb(209,209,209)"/>
<path d="M10 11h1v1h-1z" fill="rgb(136,136,136)"/>
<path d="M5 12h1v1h-1z" fill="rgb(98,98,98)"/>
<path d="M6 12h1v1h-1z" fill="rgb(168,168,168)"/>
<path d="M7 12h1v1h-1z" fill="rgb(219,219,219)"/>
<path d="M8 12h1v1h-1z" fill="rgb(223,223,223)"/>
<path d="M9 12h1v1h-1z" fill="rgb(172,172,172)"/>
<path d="M10 12h1v1h-1z" fill="rgb(71,71,71)"/>
<path d="M5 13h1v1h-1z" fill="rgb(69,69,69)"/>
<path d="M6 13h1v1h-1z" fill="rgb(65,65,65)"/>
<path d="M7 13h1v1h-1z" fill="rgb(182,182,182)"/>
<path d="M8 13h1v1h-1z" fill="rgb(179,179,179)"/>
<path d="M9 13h1v1h-1z" fill="rgb(67,67,67)"/>
<path d="M10 13h1v1h-1z" fill="rgb(50,50,50)"/>
<path d="M5 14h1v1h-1z" fill="rgb(81,81,81)"/>
<path d="M6 14h1v1h-1z" fill="rgb(56,56,56)"/>
<path d="M7 14h1v1h-1z" fill="rgb(184,184,184)"/>
<path d="M8 14h1v1h-1z" fill="rgb(137,137,137)"/>
<path d="M9 14h1v1h-1z" fill="rgb(51,51,51)"/>
<path d="M10 14h1v1h-1z" fill="rgb(101,101,101)"/>
<path d="M5 15h1v1h-1z" fill="rgb(80,80,80)"/>
<path d="M6 15h1v1h-1z" fill="rgb(58,58,58)"/>
<path d="M7 15h1v1h-1z" fill="rgb(174,174,174)"/>
<path d="M8 15h1v1h-1z" fill="rgb(122,122,122)"/>
<path d="M9 15h1v1h-1z" fill="rgb(43,43,43)"/>
<path d="M10 15h1v1h-1z" fill="rgb(98,98,98)"/>
</svg>
