<?xml version="1.0" encoding="utf-8"?>
<!-- generated at drububu.com  -->
<!DOCTYPE svg PUBLIC "-//W3C//DTD SVG 1.1//EN" "http://www.w3.org/Graphics/SVG/1.1/DTD/svg11.dtd">
<svg version="1.1" preserveAspectRatio="xMinYMin meet" xmlns="http://www.w3.org/2000/svg" xmlns:xlink="http://www.w3.org/1999/xlink" x="0px" y="0px" width="16px" height="16px" viewBox="0 0 16 16">
<path d="M0 0h16v16h-3v-2h-1v-3h-1v-5h-1v-3h-1v-1h-2v1h-1v3h-1v5h-1v3h-1v2h-3z" fill="rgb(0,0,0)"/>
<path d="M7 2h2v1h1v1h-2v1h-1v-1h-1v-1h1z" fill="rgb(47,31,17)"/>
<path d="M6 4h1v1h-1z" fill="rgb(48,31,18)"/>
<path d="M8 4h1v1h-1z" fill="rgb(49,32,17)"/>
<path d="M9 4h1v1h-1z" fill="rgb(45,31,18)"/>
<path d="M6 5h1v1h-1z" fill="rgb(68,42,20)"/>
<path d="M7 5h1v1h-1z" fill="rgb(90,52,23)"/>
<path d="M8 5h1v1h-1z" fill="rgb(87,51,23)"/>
<path d="M9 5h1v1h-1z" fill="rgb(59,39,21)"/>
<path d="M5 6h1v1h-1z" fill="rgb(56,36,19)"/>
<path d="M6 6h1v1h-1z" fill="rgb(69,44,21)"/>
<path d="M7 6h1v1h-1z" fill="rgb(88,53,22)"/>
<path d="M8 6h1v1h-1z" fill="rgb(87,50,22)"/>
<path d="M9 6h1v1h-1z" fill="rgb(67,41,20)"/>
<path d="M10 6h1v1h-1z" fill="rgb(58,37,19)"/>
<path d="M5 7h1v1h-1z" fill="rgb(66,40,20)"/>
<path d="M6 7h1v1h-1z" fill="rgb(53,35,19)"/>
<path d="M7 7h1v1h-1z" fill="rgb(64,41,20)"/>
<path d="M8 7h1v1h-1z" fill="rgb(77,47,21)"/>
<path d="M9 7h1v1h-1z" fill="rgb(71,44,20)"/>
<path d="M10 7h1v1h-1z" fill="rgb(82,46,22)"/>
<path d="M5 8h1v1h-1z" fill="rgb(55,34,19)"/>
<path d="M6 8h1v1h-1z" fill="rgb(51,34,19)"/>
<path d="M7 8h1v1h-1z" fill="rgb(61,39,20)"/>
<path d="M8 8h1v1h-1z" fill="rgb(77,47,22)"/>
<path d="M9 8h1v1h-1z" fill="rgb(68,42,19)"/>
<path d="M10 8h1v1h-1z" fill="rgb(76,46,21)"/>
<path d="M5 9h1v1h-1z" fill="rgb(58,38,20)"/>
<path d="M6 9h1v1h-1z" fill="rgb(66,41,21)"/>
<path d="M7 9h1v1h-1z" fill="rgb(68,41,21)"/>
<path d="M8 9h1v1h-1z" fill="rgb(75,47,22)"/>
<path d="M9 9h1v1h-1z" fill="rgb(70,42,20)"/>
<path d="M10 9h1v1h-1z" fill="rgb(70,43,20)"/>
<path d="M5 10h1v1h-1z" fill="rgb(56,36,19)"/>
<path d="M6 10h1v1h-1z" fill="rgb(75,47,22)"/>
<path d="M7 10h1v1h-1z" fill="rgb(64,41,19)"/>
<path d="M8 10h1v1h-1z" fill="rgb(70,43,20)"/>
<path d="M9 10h1v1h-1z" fill="rgb(83,50,21)"/>
<path d="M10 10h1v1h-1z" fill="rgb(91,54,22)"/>
<path d="M4 11h1v1h-1z" fill="rgb(61,37,20)"/>
<path d="M5 11h1v1h-1z" fill="rgb(67,40,20)"/>
<path d="M6 11h1v1h-1z" fill="rgb(89,53,23)"/>
<path d="M7 11h1v1h-1z" fill="rgb(100,56,23)"/>
<path d="M8 11h2v1h-2z" fill="rgb(101,58,23)"/>
<path d="M10 11h1v1h-1z" fill="rgb(96,58,23)"/>
<path d="M11 11h1v1h-1z" fill="rgb(59,37,19)"/>
<path d="M4 12h1v1h-1z" fill="rgb(49,32,17)"/>
<path d="M5 12h1v1h-1z" fill="rgb(74,45,22)"/>
<path d="M6 12h1v1h-1z" fill="rgb(67,42,19)"/>
<path d="M7 12h1v1h-1z" fill="rgb(85,50,22)"/>
<path d="M8 12h1v1h-1z" fill="rgb(94,52,23)"/>
<path d="M9 12h1v1h-1z" fill="rgb(61,39,18)"/>
<path d="M10 12h1v1h-1z" fill="rgb(80,49,23)"/>
<path d="M11 12h1v1h-1z" fill="rgb(46,31,18)"/>
<path d="M4 13h1v1h-1z" fill="rgb(57,36,19)"/>
<path d="M5 13h1v1h-1z" fill="rgb(84,51,23)"/>
<path d="M6 13h1v1h-1z" fill="rgb(75,45,20)"/>
<path d="M7 13h1v1h-1z" fill="rgb(77,47,22)"/>
<path d="M8 13h1v1h-1z" fill="rgb(86,50,23)"/>
<path d="M9 13h1v1h-1z" fill="rgb(59,38,18)"/>
<path d="M10 13h1v1h-1z" fill="rgb(94,55,23)"/>
<path d="M11 13h1v1h-1z" fill="rgb(85,51,23)"/>
<path d="M3 14h1v1h-1z" fill="rgb(55,36,19)"/>
<path d="M4 14h1v1h-1z" fill="rgb(68,42,20)"/>
<path d="M5 14h1v1h-1z" fill="rgb(78,50,22)"/>
<path d="M6 14h1v1h-1z" fill="rgb(78,45,21)"/>
<path d="M7 14h1v1h-1z" fill="rgb(92,54,23)"/>
<path d="M8 14h1v1h-1z" fill="rgb(89,53,22)"/>
<path d="M9 14h1v1h-1z" fill="rgb(90,55,22)"/>
<path d="M10 14h1v1h-1z" fill="rgb(107,63,24)"/>
<path d="M11 14h1v1h-1z" fill="rgb(75,46,21)"/>
<path d="M12 14h1v1h-1z" fill="rgb(50,32,18)"/>
<path d="M3 15h1v1h-1z" fill="rgb(54,35,19)"/>
<path d="M4 15h1v1h-1z" fill="rgb(78,48,23)"/>
<path d="M5 15h1v1h-1z" fill="rgb(80,49,22)"/>
<path d="M6 15h1v1h-1z" fill="rgb(63,39,20)"/>
<path d="M7 15h1v1h-1z" fill="rgb(71,44,21)"/>
<path d="M8 15h1v1h-1z" fill="rgb(74,45,20)"/>
<path d="M9 15h1v1h-1z" fill="rgb(92,54,22)"/>
<path d="M10 15h1v1h-1z" fill="rgb(107,60,24)"/>
<path d="M11 15h1v1h-1z" fill="rgb(72,43,20)"/>
<path d="M12 15h1v1h-1z" fill="rgb(54,34,19)"/>
</svg>
