<?xml version="1.0" encoding="utf-8"?>
<!-- generated at drububu.com  -->
<!DOCTYPE svg PUBLIC "-//W3C//DTD SVG 1.1//EN" "http://www.w3.org/Graphics/SVG/1.1/DTD/svg11.dtd">
<svg version="1.1" preserveAspectRatio="xMinYMin meet" xmlns="http://www.w3.org/2000/svg" xmlns:xlink="http://www.w3.org/1999/xlink" x="0px" y="0px" width="16px" height="16px" viewBox="0 0 16 16">
<path d="M0 0h1v1h-1z" fill="rgb(77,77,77)"/>
<path d="M1 0h1v1h-1z" fill="rgb(44,44,44)"/>
<path d="M2 0h1v1h-1z" fill="rgb(66,66,66)"/>
<path d="M3 0h1v1h-1z" fill="rgb(137,137,137)"/>
<path d="M4 0h2v1h-2z" fill="rgb(140,140,140)"/>
<path d="M6 0h1v1h-1z" fill="rgb(153,153,153)"/>
<path d="M7 0h1v1h-1z" fill="rgb(169,169,169)"/>
<path d="M8 0h1v1h-1z" fill="rgb(176,176,176)"/>
<path d="M9 0h1v1h-1z" fill="rgb(167,167,167)"/>
<path d="M10 0h1v1h-1z" fill="rgb(164,164,164)"/>
<path d="M11 0h1v1h-1z" fill="rgb(171,171,171)"/>
<path d="M12 0h1v1h-1z" fill="rgb(156,156,156)"/>
<path d="M13 0h1v1h-1z" fill="rgb(127,127,127)"/>
<path d="M14 0h1v1h-1z" fill="rgb(111,111,111)"/>
<path d="M15 0h1v1h-1z" fill="rgb(151,151,151)"/>
<path d="M0 1h1v1h-1z" fill="rgb(53,53,53)"/>
<path d="M1 1h1v1h-1z" fill="rgb(56,56,56)"/>
<path d="M2 1h1v1h-1z" fill="rgb(94,94,94)"/>
<path d="M3 1h1v1h-1z" fill="rgb(129,129,129)"/>
<path d="M4 1h1v1h-1z" fill="rgb(145,145,145)"/>
<path d="M5 1h1v1h-1z" fill="rgb(157,157,157)"/>
<path d="M6 1h1v1h-1z" fill="rgb(174,174,174)"/>
<path d="M7 1h1v1h-1z" fill="rgb(179,179,179)"/>
<path d="M8 1h1v1h-1z" fill="rgb(175,175,175)"/>
<path d="M9 1h1v1h-1z" fill="rgb(156,156,156)"/>
<path d="M10 1h1v1h-1z" fill="rgb(152,152,152)"/>
<path d="M11 1h1v1h-1z" fill="rgb(147,147,147)"/>
<path d="M12 1h1v1h-1z" fill="rgb(143,143,143)"/>
<path d="M13 1h1v1h-1z" fill="rgb(114,114,114)"/>
<path d="M14 1h1v1h-1z" fill="rgb(83,83,83)"/>
<path d="M15 1h1v1h-1z" fill="rgb(63,63,63)"/>
<path d="M0 2h1v1h-1z" fill="rgb(79,79,79)"/>
<path d="M1 2h1v1h-1z" fill="rgb(103,103,103)"/>
<path d="M2 2h1v1h-1z" fill="rgb(174,199,201)"/>
<path d="M3 2h1v1h-1z" fill="rgb(188,213,214)"/>
<path d="M4 2h5v1h-5z" fill="rgb(123,148,150)"/>
<path d="M9 2h1v1h-1z" fill="rgb(134,150,151)"/>
<path d="M10 2h2v1h-2z" fill="rgb(123,148,150)"/>
<path d="M12 2h1v1h-1z" fill="rgb(186,210,212)"/>
<path d="M13 2h1v1h-1z" fill="rgb(181,206,208)"/>
<path d="M14 2h1v1h-1z" fill="rgb(119,119,119)"/>
<path d="M15 2h1v1h-1z" fill="rgb(73,73,73)"/>
<path d="M0 3h1v1h-1z" fill="rgb(76,76,76)"/>
<path d="M1 3h1v1h-1z" fill="rgb(126,126,126)"/>
<path d="M2 3h1v1h-1z" fill="rgb(186,211,213)"/>
<path d="M3 3h1v1h-1z" fill="rgb(201,226,228)"/>
<path d="M4 3h1v1h-1z" fill="rgb(206,230,232)"/>
<path d="M5 3h1v1h-1z" fill="rgb(208,233,234)"/>
<path d="M6 3h1v1h-1z" fill="rgb(210,235,237)"/>
<path d="M7 3h2v1h-1v1h-2v-1h1z" fill="rgb(211,235,237)"/>
<path d="M9 3h1v1h-1z" fill="rgb(222,238,239)"/>
<path d="M10 3h1v1h-1z" fill="rgb(210,234,236)"/>
<path d="M11 3h1v1h-1z" fill="rgb(206,231,233)"/>
<path d="M12 3h1v1h-1z" fill="rgb(199,223,225)"/>
<path d="M13 3h1v1h-1z" fill="rgb(179,204,206)"/>
<path d="M14 3h1v1h-1z" fill="rgb(110,110,110)"/>
<path d="M15 3h1v1h-1z" fill="rgb(113,113,113)"/>
<path d="M0 4h1v1h-1z" fill="rgb(84,84,84)"/>
<path d="M1 4h1v1h-1z" fill="rgb(108,108,108)"/>
<path d="M2 4h1v1h-1z" fill="rgb(192,216,218)"/>
<path d="M3 4h1v1h-1z" fill="rgb(205,229,231)"/>
<path d="M4 4h1v1h-1z" fill="rgb(208,233,235)"/>
<path d="M5 4h1v1h-1z" fill="rgb(210,235,237)"/>
<path d="M8 4h1v1h-1z" fill="rgb(210,235,237)"/>
<path d="M9 4h1v1h-1z" fill="rgb(211,235,237)"/>
<path d="M10 4h1v1h-1z" fill="rgb(222,238,239)"/>
<path d="M11 4h1v1h-1z" fill="rgb(210,235,237)"/>
<path d="M12 4h1v1h-1z" fill="rgb(207,232,234)"/>
<path d="M13 4h1v1h-1z" fill="rgb(193,218,220)"/>
<path d="M14 4h1v1h-1z" fill="rgb(104,104,104)"/>
<path d="M15 4h1v1h-1z" fill="rgb(102,102,102)"/>
<path d="M0 5h1v1h-1z" fill="rgb(73,73,73)"/>
<path d="M1 5h1v1h-1z" fill="rgb(99,99,99)"/>
<path d="M2 5h1v1h-1z" fill="rgb(194,219,221)"/>
<path d="M3 5h1v1h1v-1h1v2h-3z" fill="rgb(123,148,150)"/>
<path d="M4 5h1v1h-1z" fill="rgb(143,168,170)"/>
<path d="M6 5h2v2h-1v-1h-1z" fill="rgb(210,235,237)"/>
<path d="M8 5h1v1h-1z" fill="rgb(208,233,234)"/>
<path d="M9 5h1v1h-1z" fill="rgb(210,235,237)"/>
<path d="M10 5h1v2h-1z" fill="rgb(134,150,151)"/>
<path d="M11 5h1v1h-1z" fill="rgb(143,168,170)"/>
<path d="M12 5h1v2h-2v-1h1z" fill="rgb(123,148,150)"/>
<path d="M13 5h1v1h-1z" fill="rgb(204,229,231)"/>
<path d="M14 5h1v1h-1z" fill="rgb(156,156,156)"/>
<path d="M15 5h1v1h-1z" fill="rgb(124,124,124)"/>
<path d="M0 6h1v1h-1z" fill="rgb(85,85,85)"/>
<path d="M1 6h1v1h-1z" fill="rgb(152,152,152)"/>
<path d="M2 6h1v1h-1z" fill="rgb(204,228,230)"/>
<path d="M6 6h1v1h-1z" fill="rgb(209,234,236)"/>
<path d="M8 6h2v1h-2z" fill="rgb(207,232,234)"/>
<path d="M13 6h1v2h-1z" fill="rgb(206,230,232)"/>
<path d="M14 6h1v1h-1z" fill="rgb(167,167,167)"/>
<path d="M15 6h1v1h-1z" fill="rgb(136,136,136)"/>
<path d="M0 7h1v1h-1z" fill="rgb(105,105,105)"/>
<path d="M1 7h1v1h-1z" fill="rgb(167,167,167)"/>
<path d="M2 7h1v1h-1z" fill="rgb(205,229,231)"/>
<path d="M3 7h1v1h1v1h-2z" fill="rgb(210,235,237)"/>
<path d="M4 7h1v1h-1z" fill="rgb(211,235,237)"/>
<path d="M5 7h2v1h-2z" fill="rgb(210,235,237)"/>
<path d="M7 7h1v1h-1z" fill="rgb(211,235,237)"/>
<path d="M8 7h1v1h-1z" fill="rgb(210,235,237)"/>
<path d="M9 7h1v1h-1z" fill="rgb(211,235,237)"/>
<path d="M10 7h1v1h-1z" fill="rgb(210,235,237)"/>
<path d="M11 7h1v1h-1z" fill="rgb(222,238,239)"/>
<path d="M12 7h1v2h-1z" fill="rgb(211,235,237)"/>
<path d="M14 7h1v1h-1z" fill="rgb(161,161,161)"/>
<path d="M15 7h1v1h-1z" fill="rgb(141,141,141)"/>
<path d="M0 8h1v1h-1z" fill="rgb(108,108,108)"/>
<path d="M1 8h1v1h-1z" fill="rgb(169,169,169)"/>
<path d="M2 8h1v1h-1z" fill="rgb(204,229,231)"/>
<path d="M5 8h1v1h4v1h-5z" fill="rgb(123,148,150)"/>
<path d="M6 8h4v1h-4z" fill="rgb(143,168,170)"/>
<path d="M10 8h1v1h-1z" fill="rgb(123,148,150)"/>
<path d="M11 8h1v1h-1z" fill="rgb(221,237,237)"/>
<path d="M13 8h1v2h-1z" fill="rgb(204,229,231)"/>
<path d="M14 8h1v1h-1z" fill="rgb(160,160,160)"/>
<path d="M15 8h1v1h-1z" fill="rgb(140,140,140)"/>
<path d="M0 9h1v1h-1z" fill="rgb(103,103,103)"/>
<path d="M1 9h1v1h-1z" fill="rgb(156,156,156)"/>
<path d="M2 9h1v1h-1z" fill="rgb(201,226,227)"/>
<path d="M3 9h1v2h-1z" fill="rgb(209,234,236)"/>
<path d="M4 9h1v1h-1z" fill="rgb(208,233,234)"/>
<path d="M10 9h1v1h-1z" fill="rgb(134,150,151)"/>
<path d="M11 9h1v1h-1z" fill="rgb(219,235,236)"/>
<path d="M12 9h1v1h-1z" fill="rgb(210,235,237)"/>
<path d="M14 9h1v2h-1z" fill="rgb(156,156,156)"/>
<path d="M15 9h1v1h-1z" fill="rgb(127,127,127)"/>
<path d="M0 10h1v1h-1z" fill="rgb(107,107,107)"/>
<path d="M1 10h1v1h-1z" fill="rgb(152,152,152)"/>
<path d="M2 10h1v1h-1z" fill="rgb(199,224,226)"/>
<path d="M4 10h1v1h-1z" fill="rgb(207,232,233)"/>
<path d="M5 10h1v1h-1z" fill="rgb(206,231,233)"/>
<path d="M6 10h1v1h-1z" fill="rgb(209,234,236)"/>
<path d="M7 10h3v1h-2v3h-2v-1h1v-1h-1v-1h1z" fill="rgb(210,235,237)"/>
<path d="M10 10h1v1h-1z" fill="rgb(220,236,237)"/>
<path d="M11 10h1v1h-1z" fill="rgb(209,234,236)"/>
<path d="M12 10h1v1h-1z" fill="rgb(211,235,237)"/>
<path d="M13 10h1v1h-1z" fill="rgb(205,230,232)"/>
<path d="M15 10h1v1h-1z" fill="rgb(122,122,122)"/>
<path d="M0 11h1v1h-1z" fill="rgb(103,103,103)"/>
<path d="M1 11h1v1h-1z" fill="rgb(145,145,145)"/>
<path d="M2 11h1v1h-1z" fill="rgb(197,221,223)"/>
<path d="M3 11h2v1h-2z" fill="rgb(208,233,235)"/>
<path d="M5 11h1v1h-1z" fill="rgb(208,233,234)"/>
<path d="M8 11h1v1h-1z" fill="rgb(207,232,233)"/>
<path d="M9 11h1v1h-1z" fill="rgb(208,233,235)"/>
<path d="M10 11h1v1h-1z" fill="rgb(208,233,234)"/>
<path d="M11 11h1v1h-1z" fill="rgb(207,232,234)"/>
<path d="M12 11h1v1h-1z" fill="rgb(210,235,237)"/>
<path d="M13 11h1v1h-1z" fill="rgb(204,229,231)"/>
<path d="M14 11h1v1h-1z" fill="rgb(166,166,166)"/>
<path d="M15 11h1v1h-1z" fill="rgb(129,129,129)"/>
<path d="M0 12h1v1h-1z" fill="rgb(71,71,71)"/>
<path d="M1 12h1v1h-1z" fill="rgb(106,106,106)"/>
<path d="M2 12h1v1h-1z" fill="rgb(91,252,123)"/>
<path d="M3 12h1v1h1v-1h1v2h-3z" fill="rgb(130,155,157)"/>
<path d="M4 12h1v1h-1z" fill="rgb(223,110,114)"/>
<path d="M6 12h1v1h-1z" fill="rgb(211,235,237)"/>
<path d="M8 12h1v1h-1z" fill="rgb(209,234,236)"/>
<path d="M9 12h1v1h-1z" fill="rgb(210,235,237)"/>
<path d="M10 12h2v1h1v1h-2v-1h-1z" fill="rgb(130,155,157)"/>
<path d="M12 12h1v1h-1z" fill="rgb(91,252,123)"/>
<path d="M13 12h1v1h-1z" fill="rgb(130,155,157)"/>
<path d="M14 12h1v1h-1z" fill="rgb(139,139,139)"/>
<path d="M15 12h1v1h-1z" fill="rgb(121,121,121)"/>
<path d="M0 13h1v1h-1z" fill="rgb(59,59,59)"/>
<path d="M1 13h1v1h-1z" fill="rgb(88,88,88)"/>
<path d="M2 13h1v1h-1z" fill="rgb(168,193,195)"/>
<path d="M8 13h1v1h-1z" fill="rgb(210,234,236)"/>
<path d="M9 13h1v1h-1z" fill="rgb(208,233,235)"/>
<path d="M10 13h1v1h-1z" fill="rgb(223,110,114)"/>
<path d="M13 13h1v1h-1z" fill="rgb(193,217,219)"/>
<path d="M14 13h1v1h-1z" fill="rgb(154,154,154)"/>
<path d="M15 13h1v1h-1z" fill="rgb(118,118,118)"/>
<path d="M0 14h1v1h-1z" fill="rgb(57,57,57)"/>
<path d="M1 14h1v1h-1z" fill="rgb(66,66,66)"/>
<path d="M2 14h1v1h-1z" fill="rgb(103,103,103)"/>
<path d="M3 14h1v1h-1z" fill="rgb(148,148,148)"/>
<path d="M4 14h1v1h-1z" fill="rgb(182,182,182)"/>
<path d="M5 14h1v1h-1z" fill="rgb(184,184,184)"/>
<path d="M6 14h1v1h-1z" fill="rgb(197,197,197)"/>
<path d="M7 14h1v1h-1z" fill="rgb(200,200,200)"/>
<path d="M8 14h1v1h-1z" fill="rgb(195,195,195)"/>
<path d="M9 14h1v1h-1z" fill="rgb(188,188,188)"/>
<path d="M10 14h1v1h-1z" fill="rgb(161,161,161)"/>
<path d="M11 14h1v1h-1z" fill="rgb(157,157,157)"/>
<path d="M12 14h1v1h-1z" fill="rgb(179,179,179)"/>
<path d="M13 14h1v1h-1z" fill="rgb(156,156,156)"/>
<path d="M14 14h1v1h-1z" fill="rgb(111,111,111)"/>
<path d="M15 14h1v1h-1z" fill="rgb(103,103,103)"/>
<path d="M0 15h1v1h-1z" fill="rgb(72,72,72)"/>
<path d="M1 15h1v1h-1z" fill="rgb(51,51,51)"/>
<path d="M2 15h1v1h-1z" fill="rgb(75,75,75)"/>
<path d="M3 15h1v1h-1z" fill="rgb(83,83,83)"/>
<path d="M4 15h2v1h-2z" fill="rgb(75,75,75)"/>
<path d="M6 15h1v1h-1z" fill="rgb(82,82,82)"/>
<path d="M7 15h1v1h-1z" fill="rgb(80,80,80)"/>
<path d="M8 15h1v1h-1z" fill="rgb(73,73,73)"/>
<path d="M9 15h1v1h-1z" fill="rgb(101,101,101)"/>
<path d="M10 15h1v1h-1z" fill="rgb(99,99,99)"/>
<path d="M11 15h1v1h-1z" fill="rgb(86,86,86)"/>
<path d="M12 15h1v1h-1z" fill="rgb(93,93,93)"/>
<path d="M13 15h1v1h-1z" fill="rgb(72,72,72)"/>
<path d="M14 15h1v1h-1z" fill="rgb(79,79,79)"/>
<path d="M15 15h1v1h-1z" fill="rgb(104,104,104)"/>
</svg>
