<?xml version="1.0" encoding="utf-8"?>
<!-- generated at drububu.com  -->
<!DOCTYPE svg PUBLIC "-//W3C//DTD SVG 1.1//EN" "http://www.w3.org/Graphics/SVG/1.1/DTD/svg11.dtd">
<svg version="1.1" preserveAspectRatio="xMinYMin meet" xmlns="http://www.w3.org/2000/svg" xmlns:xlink="http://www.w3.org/1999/xlink" x="0px" y="0px" width="16px" height="16px" viewBox="0 0 16 16">
<path d="M0 0h1v1h-1z" fill="rgb(35,23,18)"/>
<path d="M1 0h1v1h-1z" fill="rgb(40,29,18)"/>
<path d="M2 0h1v1h-1z" fill="rgb(44,31,18)"/>
<path d="M3 0h1v1h-1z" fill="rgb(45,31,18)"/>
<path d="M4 0h1v1h-1z" fill="rgb(61,37,20)"/>
<path d="M5 0h1v1h-1z" fill="rgb(78,47,21)"/>
<path d="M6 0h1v1h-1z" fill="rgb(87,53,22)"/>
<path d="M7 0h1v1h-1z" fill="rgb(81,48,21)"/>
<path d="M8 0h1v1h-1z" fill="rgb(72,45,20)"/>
<path d="M9 0h1v1h-1z" fill="rgb(75,46,20)"/>
<path d="M10 0h1v1h-1z" fill="rgb(83,50,22)"/>
<path d="M11 0h1v1h-1z" fill="rgb(86,53,22)"/>
<path d="M12 0h1v1h-1z" fill="rgb(76,48,22)"/>
<path d="M13 0h1v1h-1z" fill="rgb(50,36,19)"/>
<path d="M14 0h1v1h-1z" fill="rgb(37,28,18)"/>
<path d="M15 0h1v1h-1z" fill="rgb(40,29,18)"/>
<path d="M0 1h1v1h-1z" fill="rgb(38,28,16)"/>
<path d="M1 1h1v1h-1z" fill="rgb(39,28,18)"/>
<path d="M2 1h1v1h-1z" fill="rgb(44,30,18)"/>
<path d="M3 1h1v1h-1z" fill="rgb(57,36,20)"/>
<path d="M4 1h1v1h-1z" fill="rgb(85,52,22)"/>
<path d="M5 1h1v1h-1z" fill="rgb(100,56,22)"/>
<path d="M6 1h1v1h-1z" fill="rgb(97,55,22)"/>
<path d="M7 1h1v1h-1z" fill="rgb(84,50,22)"/>
<path d="M8 1h1v1h-1z" fill="rgb(97,54,22)"/>
<path d="M9 1h1v1h-1z" fill="rgb(111,62,24)"/>
<path d="M10 1h1v2h-1z" fill="rgb(118,65,24)"/>
<path d="M11 1h1v1h-1z" fill="rgb(111,62,24)"/>
<path d="M12 1h1v1h-1z" fill="rgb(94,54,22)"/>
<path d="M13 1h1v1h-1z" fill="rgb(83,47,23)"/>
<path d="M14 1h1v1h-1z" fill="rgb(48,32,19)"/>
<path d="M15 1h1v1h-1z" fill="rgb(35,27,18)"/>
<path d="M0 2h1v1h-1z" fill="rgb(38,27,16)"/>
<path d="M1 2h1v1h-1z" fill="rgb(45,32,19)"/>
<path d="M2 2h1v1h-1z" fill="rgb(64,40,20)"/>
<path d="M3 2h1v1h-1z" fill="rgb(93,56,23)"/>
<path d="M4 2h1v1h-1z" fill="rgb(113,62,24)"/>
<path d="M5 2h1v1h-1z" fill="rgb(98,55,23)"/>
<path d="M6 2h1v1h-1z" fill="rgb(93,52,22)"/>
<path d="M7 2h1v1h-1z" fill="rgb(100,59,23)"/>
<path d="M8 2h1v1h-1z" fill="rgb(80,63,47)"/>
<path d="M9 2h1v1h-1z" fill="rgb(72,62,55)"/>
<path d="M11 2h1v1h-1z" fill="rgb(105,59,23)"/>
<path d="M12 2h1v1h-1z" fill="rgb(99,56,22)"/>
<path d="M13 2h1v1h-1z" fill="rgb(114,64,24)"/>
<path d="M14 2h1v1h-1z" fill="rgb(81,49,23)"/>
<path d="M15 2h1v1h-1z" fill="rgb(47,32,19)"/>
<path d="M0 3h1v1h-1z" fill="rgb(44,31,19)"/>
<path d="M1 3h1v1h-1z" fill="rgb(61,39,20)"/>
<path d="M2 3h1v1h-1z" fill="rgb(98,56,23)"/>
<path d="M3 3h1v1h-1z" fill="rgb(118,68,24)"/>
<path d="M4 3h1v1h-1z" fill="rgb(93,53,23)"/>
<path d="M5 3h1v1h-1z" fill="rgb(47,41,36)"/>
<path d="M6 3h1v1h-1z" fill="rgb(53,46,40)"/>
<path d="M7 3h1v1h-1z" fill="rgb(61,48,37)"/>
<path d="M8 3h1v1h-1z" fill="rgb(54,47,40)"/>
<path d="M9 3h1v1h-1z" fill="rgb(63,52,41)"/>
<path d="M10 3h1v1h-1z" fill="rgb(105,59,23)"/>
<path d="M11 3h1v1h-1z" fill="rgb(90,55,22)"/>
<path d="M12 3h1v1h-1z" fill="rgb(95,55,23)"/>
<path d="M13 3h1v1h-1z" fill="rgb(121,67,24)"/>
<path d="M14 3h1v1h-1z" fill="rgb(106,59,23)"/>
<path d="M15 3h1v1h-1z" fill="rgb(54,35,20)"/>
<path d="M0 4h1v1h-1z" fill="rgb(57,36,20)"/>
<path d="M1 4h1v1h-1z" fill="rgb(88,53,22)"/>
<path d="M2 4h1v1h-1z" fill="rgb(118,68,24)"/>
<path d="M3 4h1v1h-1z" fill="rgb(117,65,24)"/>
<path d="M4 4h1v1h-1z" fill="rgb(88,54,22)"/>
<path d="M5 4h1v1h-1z" fill="rgb(58,41,29)"/>
<path d="M6 4h1v1h-1z" fill="rgb(41,35,27)"/>
<path d="M7 4h1v1h-1z" fill="rgb(38,32,26)"/>
<path d="M8 4h1v1h-1z" fill="rgb(47,38,31)"/>
<path d="M9 4h1v1h-1z" fill="rgb(102,61,24)"/>
<path d="M10 4h1v1h-1z" fill="rgb(98,57,23)"/>
<path d="M11 4h1v1h-1z" fill="rgb(57,45,33)"/>
<path d="M12 4h1v1h-1z" fill="rgb(55,46,39)"/>
<path d="M13 4h1v1h-1z" fill="rgb(104,57,23)"/>
<path d="M14 4h1v1h-1z" fill="rgb(99,56,23)"/>
<path d="M15 4h1v1h-1z" fill="rgb(50,34,20)"/>
<path d="M0 5h1v1h-1z" fill="rgb(67,41,19)"/>
<path d="M1 5h1v1h-1z" fill="rgb(110,62,24)"/>
<path d="M2 5h1v1h-1z" fill="rgb(120,67,24)"/>
<path d="M3 5h1v1h-1z" fill="rgb(102,59,23)"/>
<path d="M4 5h1v1h-1z" fill="rgb(84,50,22)"/>
<path d="M5 5h1v1h-1z" fill="rgb(56,41,27)"/>
<path d="M6 5h1v1h-1z" fill="rgb(36,30,26)"/>
<path d="M7 5h1v1h-1z" fill="rgb(41,32,27)"/>
<path d="M8 5h1v1h-1z" fill="rgb(36,31,26)"/>
<path d="M9 5h1v1h-1z" fill="rgb(100,59,27)"/>
<path d="M10 5h1v1h-1z" fill="rgb(80,52,26)"/>
<path d="M11 5h1v1h-1z" fill="rgb(44,36,29)"/>
<path d="M12 5h1v1h-1z" fill="rgb(56,47,39)"/>
<path d="M13 5h1v1h-1z" fill="rgb(83,47,22)"/>
<path d="M14 5h1v1h-1z" fill="rgb(69,43,20)"/>
<path d="M15 5h1v1h-1z" fill="rgb(49,34,19)"/>
<path d="M0 6h1v1h-1z" fill="rgb(81,48,22)"/>
<path d="M1 6h1v1h-1z" fill="rgb(114,63,24)"/>
<path d="M2 6h1v1h-1z" fill="rgb(105,60,23)"/>
<path d="M3 6h1v1h-1z" fill="rgb(60,50,45)"/>
<path d="M4 6h1v1h-1z" fill="rgb(43,37,31)"/>
<path d="M5 6h1v1h-1z" fill="rgb(35,29,25)"/>
<path d="M6 6h1v1h-1z" fill="rgb(40,31,26)"/>
<path d="M7 6h1v1h-1z" fill="rgb(62,45,27)"/>
<path d="M8 6h1v1h-1z" fill="rgb(97,60,25)"/>
<path d="M9 6h1v1h-1z" fill="rgb(65,46,29)"/>
<path d="M10 6h1v1h-1z" fill="rgb(38,31,26)"/>
<path d="M11 6h1v1h-1z" fill="rgb(52,41,31)"/>
<path d="M12 6h1v1h-1z" fill="rgb(95,57,22)"/>
<path d="M13 6h1v1h-1z" fill="rgb(71,43,20)"/>
<path d="M14 6h1v1h-1z" fill="rgb(50,38,31)"/>
<path d="M15 6h1v1h-1z" fill="rgb(41,37,32)"/>
<path d="M0 7h1v1h-1z" fill="rgb(95,54,22)"/>
<path d="M1 7h1v1h-1z" fill="rgb(104,59,23)"/>
<path d="M2 7h1v1h-1z" fill="rgb(86,52,22)"/>
<path d="M3 7h1v1h-1z" fill="rgb(60,41,27)"/>
<path d="M4 7h1v1h-1z" fill="rgb(39,30,26)"/>
<path d="M5 7h1v1h-1z" fill="rgb(34,28,20)"/>
<path d="M6 7h1v1h-1z" fill="rgb(45,36,26)"/>
<path d="M7 7h1v1h-1z" fill="rgb(111,63,24)"/>
<path d="M8 7h1v1h-1z" fill="rgb(95,60,28)"/>
<path d="M9 7h1v1h-1z" fill="rgb(37,31,26)"/>
<path d="M10 7h1v1h-1z" fill="rgb(37,31,27)"/>
<path d="M11 7h1v1h-1z" fill="rgb(80,50,27)"/>
<path d="M12 7h1v1h-1z" fill="rgb(86,56,27)"/>
<path d="M13 7h1v1h-1z" fill="rgb(47,36,25)"/>
<path d="M14 7h1v1h-1z" fill="rgb(39,32,27)"/>
<path d="M15 7h1v1h-1z" fill="rgb(46,37,30)"/>
<path d="M0 8h1v1h-1z" fill="rgb(72,54,36)"/>
<path d="M1 8h1v1h-1z" fill="rgb(56,48,43)"/>
<path d="M2 8h1v1h-1z" fill="rgb(63,43,27)"/>
<path d="M3 8h1v1h-1z" fill="rgb(43,34,27)"/>
<path d="M4 8h1v1h-1z" fill="rgb(38,32,28)"/>
<path d="M5 8h1v1h-1z" fill="rgb(41,34,27)"/>
<path d="M6 8h1v1h-1z" fill="rgb(95,58,25)"/>
<path d="M7 8h1v1h-1z" fill="rgb(80,50,26)"/>
<path d="M8 8h1v1h-1z" fill="rgb(37,31,26)"/>
<path d="M9 8h1v1h-1z" fill="rgb(41,35,29)"/>
<path d="M10 8h1v1h-1z" fill="rgb(57,41,27)"/>
<path d="M11 8h1v1h-1z" fill="rgb(77,50,27)"/>
<path d="M12 8h1v1h-1z" fill="rgb(40,34,25)"/>
<path d="M13 8h1v1h-1z" fill="rgb(34,28,23)"/>
<path d="M14 8h1v1h-1z" fill="rgb(44,36,30)"/>
<path d="M15 8h1v1h-1z" fill="rgb(70,45,20)"/>
<path d="M0 9h1v1h-1z" fill="rgb(68,45,24)"/>
<path d="M1 9h1v1h-1z" fill="rgb(65,49,33)"/>
<path d="M2 9h1v1h-1z" fill="rgb(44,37,32)"/>
<path d="M3 9h1v1h-1z" fill="rgb(49,39,29)"/>
<path d="M4 9h1v1h-1z" fill="rgb(71,50,33)"/>
<path d="M5 9h1v1h-1z" fill="rgb(91,57,27)"/>
<path d="M6 9h1v1h-1z" fill="rgb(47,36,26)"/>
<path d="M7 9h1v1h-1z" fill="rgb(40,32,27)"/>
<path d="M8 9h1v1h-1z" fill="rgb(40,35,30)"/>
<path d="M9 9h1v1h-1z" fill="rgb(72,49,26)"/>
<path d="M10 9h1v1h-1z" fill="rgb(71,47,21)"/>
<path d="M11 9h1v1h-1z" fill="rgb(47,36,27)"/>
<path d="M12 9h1v1h-1z" fill="rgb(36,28,22)"/>
<path d="M13 9h1v1h-1z" fill="rgb(39,31,26)"/>
<path d="M14 9h1v1h-1z" fill="rgb(77,50,30)"/>
<path d="M15 9h1v1h-1z" fill="rgb(71,41,20)"/>
<path d="M0 10h1v1h-1z" fill="rgb(71,44,20)"/>
<path d="M1 10h1v1h-1z" fill="rgb(69,53,40)"/>
<path d="M2 10h2v1h-2z" fill="rgb(58,50,43)"/>
<path d="M4 10h1v1h-1z" fill="rgb(72,50,32)"/>
<path d="M5 10h1v1h-1z" fill="rgb(72,44,20)"/>
<path d="M6 10h1v1h-1z" fill="rgb(39,32,27)"/>
<path d="M7 10h1v1h-1z" fill="rgb(41,35,29)"/>
<path d="M8 10h1v1h-1z" fill="rgb(39,31,26)"/>
<path d="M9 10h1v1h-1z" fill="rgb(85,56,28)"/>
<path d="M10 10h1v1h-1z" fill="rgb(56,38,25)"/>
<path d="M11 10h1v1h-1z" fill="rgb(39,31,26)"/>
<path d="M12 10h1v1h-1z" fill="rgb(36,30,26)"/>
<path d="M13 10h1v1h-1z" fill="rgb(49,41,37)"/>
<path d="M14 10h1v1h-1z" fill="rgb(50,43,32)"/>
<path d="M15 10h1v1h-1z" fill="rgb(56,34,19)"/>
<path d="M0 11h1v1h-1z" fill="rgb(80,49,22)"/>
<path d="M1 11h1v1h-1z" fill="rgb(69,60,54)"/>
<path d="M2 11h1v1h-1z" fill="rgb(77,62,49)"/>
<path d="M3 11h1v1h-1z" fill="rgb(70,54,39)"/>
<path d="M4 11h1v1h-1z" fill="rgb(47,41,35)"/>
<path d="M5 11h1v1h-1z" fill="rgb(43,35,29)"/>
<path d="M6 11h1v1h-1z" fill="rgb(43,35,30)"/>
<path d="M7 11h1v1h-1z" fill="rgb(66,50,31)"/>
<path d="M8 11h1v1h-1z" fill="rgb(85,54,27)"/>
<path d="M9 11h1v1h-1z" fill="rgb(45,37,31)"/>
<path d="M10 11h1v1h-1z" fill="rgb(35,29,25)"/>
<path d="M11 11h1v1h-1z" fill="rgb(40,32,26)"/>
<path d="M12 11h1v1h-1z" fill="rgb(77,47,24)"/>
<path d="M13 11h1v1h-1z" fill="rgb(93,53,22)"/>
<path d="M14 11h1v1h-1z" fill="rgb(69,45,21)"/>
<path d="M15 11h1v1h-1z" fill="rgb(55,36,18)"/>
<path d="M0 12h1v1h-1z" fill="rgb(76,48,22)"/>
<path d="M1 12h1v1h-1z" fill="rgb(98,56,23)"/>
<path d="M2 12h1v1h-1z" fill="rgb(98,55,22)"/>
<path d="M3 12h1v1h-1z" fill="rgb(83,49,23)"/>
<path d="M4 12h1v1h-1z" fill="rgb(44,38,30)"/>
<path d="M5 12h1v1h-1z" fill="rgb(44,37,32)"/>
<path d="M6 12h1v1h-1z" fill="rgb(55,47,37)"/>
<path d="M7 12h1v1h-1z" fill="rgb(83,50,27)"/>
<path d="M8 12h1v1h-1z" fill="rgb(58,38,20)"/>
<path d="M9 12h1v1h-1z" fill="rgb(36,30,26)"/>
<path d="M10 12h1v1h-1z" fill="rgb(39,31,25)"/>
<path d="M11 12h1v1h-1z" fill="rgb(48,40,32)"/>
<path d="M12 12h1v1h-1z" fill="rgb(99,68,34)"/>
<path d="M13 12h1v1h-1z" fill="rgb(101,60,23)"/>
<path d="M14 12h1v1h-1z" fill="rgb(63,41,20)"/>
<path d="M15 12h1v1h-1z" fill="rgb(46,30,19)"/>
<path d="M0 13h1v1h-1z" fill="rgb(52,36,20)"/>
<path d="M1 13h1v1h-1z" fill="rgb(76,48,22)"/>
<path d="M2 13h1v1h-1z" fill="rgb(92,55,22)"/>
<path d="M3 13h1v1h-1z" fill="rgb(81,48,22)"/>
<path d="M4 13h1v1h-1z" fill="rgb(44,38,34)"/>
<path d="M5 13h1v1h-1z" fill="rgb(48,38,32)"/>
<path d="M6 13h1v1h-1z" fill="rgb(50,44,37)"/>
<path d="M7 13h1v1h-1z" fill="rgb(57,46,36)"/>
<path d="M8 13h1v1h-1z" fill="rgb(43,36,29)"/>
<path d="M9 13h1v1h-1z" fill="rgb(40,34,28)"/>
<path d="M10 13h1v1h-1z" fill="rgb(47,35,27)"/>
<path d="M11 13h1v1h-1z" fill="rgb(76,56,33)"/>
<path d="M12 13h1v1h-1z" fill="rgb(75,56,42)"/>
<path d="M13 13h1v1h-1z" fill="rgb(91,56,22)"/>
<path d="M14 13h1v1h-1z" fill="rgb(54,37,20)"/>
<path d="M15 13h1v1h-1z" fill="rgb(41,27,18)"/>
<path d="M0 14h1v1h-1z" fill="rgb(30,23,16)"/>
<path d="M1 14h1v1h-1z" fill="rgb(48,35,21)"/>
<path d="M2 14h1v1h-1z" fill="rgb(88,49,23)"/>
<path d="M3 14h1v1h-1z" fill="rgb(92,56,23)"/>
<path d="M4 14h1v1h-1z" fill="rgb(77,47,22)"/>
<path d="M5 14h1v1h-1z" fill="rgb(68,41,20)"/>
<path d="M6 14h1v1h-1z" fill="rgb(63,44,30)"/>
<path d="M7 14h1v1h-1z" fill="rgb(46,40,36)"/>
<path d="M8 14h1v1h-1z" fill="rgb(43,38,32)"/>
<path d="M9 14h1v1h-1z" fill="rgb(62,41,30)"/>
<path d="M10 14h1v1h-1z" fill="rgb(91,54,22)"/>
<path d="M11 14h1v1h-1z" fill="rgb(84,49,22)"/>
<path d="M12 14h1v1h-1z" fill="rgb(95,56,24)"/>
<path d="M13 14h1v1h-1z" fill="rgb(60,39,20)"/>
<path d="M14 14h1v1h-1z" fill="rgb(34,26,17)"/>
<path d="M15 14h1v1h-1z" fill="rgb(28,22,16)"/>
<path d="M0 15h1v1h-1z" fill="rgb(27,20,16)"/>
<path d="M1 15h1v1h-1z" fill="rgb(31,21,16)"/>
<path d="M2 15h1v1h-1z" fill="rgb(41,30,19)"/>
<path d="M3 15h1v1h-1z" fill="rgb(54,35,19)"/>
<path d="M4 15h1v1h-1z" fill="rgb(57,38,19)"/>
<path d="M5 15h1v1h-1z" fill="rgb(70,43,20)"/>
<path d="M6 15h1v1h-1z" fill="rgb(73,45,20)"/>
<path d="M7 15h1v1h-1z" fill="rgb(48,37,29)"/>
<path d="M8 15h1v1h-1z" fill="rgb(53,39,31)"/>
<path d="M9 15h1v1h-1z" fill="rgb(58,44,32)"/>
<path d="M10 15h1v1h-1z" fill="rgb(78,49,20)"/>
<path d="M11 15h1v1h-1z" fill="rgb(80,48,21)"/>
<path d="M12 15h1v1h-1z" fill="rgb(55,36,19)"/>
<path d="M13 15h1v1h-1z" fill="rgb(36,27,18)"/>
<path d="M14 15h1v1h-1z" fill="rgb(30,21,16)"/>
<path d="M15 15h1v1h-1z" fill="rgb(31,25,16)"/>
</svg>
