<?xml version="1.0" encoding="utf-8"?>
<!-- generated at drububu.com  -->
<!DOCTYPE svg PUBLIC "-//W3C//DTD SVG 1.1//EN" "http://www.w3.org/Graphics/SVG/1.1/DTD/svg11.dtd">
<svg version="1.1" preserveAspectRatio="xMinYMin meet" xmlns="http://www.w3.org/2000/svg" xmlns:xlink="http://www.w3.org/1999/xlink" x="0px" y="0px" width="16px" height="16px" viewBox="0 0 16 16">
<path d="M0 0h1v1h-1z" fill="rgb(46,46,46)"/>
<path d="M1 0h1v1h-1z" fill="rgb(69,69,69)"/>
<path d="M2 0h1v1h-1z" fill="rgb(92,92,92)"/>
<path d="M3 0h2v1h-2z" fill="rgb(108,104,108)"/>
<path d="M5 0h1v1h-1z" fill="rgb(92,92,92)"/>
<path d="M6 0h1v1h-1z" fill="rgb(89,88,89)"/>
<path d="M7 0h2v1h-2z" fill="rgb(69,69,69)"/>
<path d="M9 0h1v1h-1z" fill="rgb(89,88,89)"/>
<path d="M10 0h1v1h-1z" fill="rgb(92,92,92)"/>
<path d="M11 0h2v1h-2z" fill="rgb(108,104,108)"/>
<path d="M13 0h1v1h-1z" fill="rgb(92,92,92)"/>
<path d="M14 0h1v1h-1z" fill="rgb(69,69,69)"/>
<path d="M15 0h1v1h-1z" fill="rgb(46,46,46)"/>
<path d="M0 1h1v1h-1z" fill="rgb(69,69,69)"/>
<path d="M1 1h1v1h-1z" fill="rgb(92,92,92)"/>
<path d="M2 1h12v1h1v12h-1v1h-12v-1h-1v-12h1z" fill="rgb(156,202,223)"/>
<path d="M14 1h1v1h-1z" fill="rgb(92,92,92)"/>
<path d="M15 1h1v1h-1z" fill="rgb(69,69,69)"/>
<path d="M0 2h1v1h-1z" fill="rgb(92,92,92)"/>
<path d="M3 2h2v1h-1v1h-1z" fill="rgb(77,150,191)"/>
<path d="M5 2h1v1h-1z" fill="rgb(141,99,160)"/>
<path d="M9 2h1v1h-1z" fill="rgb(190,213,225)"/>
<path d="M10 2h1v1h-1z" fill="rgb(176,129,165)"/>
<path d="M11 2h2v1h-1v1h-1z" fill="rgb(77,150,191)"/>
<path d="M15 2h1v1h-1z" fill="rgb(92,92,92)"/>
<path d="M0 3h1v2h-1z" fill="rgb(108,104,108)"/>
<path d="M4 3h1v1h-1z" fill="rgb(0,229,165)"/>
<path d="M5 3h1v1h-1z" fill="rgb(77,150,191)"/>
<path d="M7 3h2v1h-2z" fill="rgb(81,153,193)"/>
<path d="M10 3h1v1h-1z" fill="rgb(124,170,194)"/>
<path d="M12 3h1v1h-1z" fill="rgb(0,229,165)"/>
<path d="M15 3h1v2h-1z" fill="rgb(108,104,108)"/>
<path d="M11 4h1v1h-1z" fill="rgb(190,213,225)"/>
<path d="M0 5h1v1h-1z" fill="rgb(92,92,92)"/>
<path d="M3 5h1v1h-1z" fill="rgb(0,229,165)"/>
<path d="M4 5h2v2h-1v-1h-1z" fill="rgb(77,150,191)"/>
<path d="M10 5h1v1h-1z" fill="rgb(77,150,191)"/>
<path d="M11 5h1v1h-1z" fill="rgb(124,170,194)"/>
<path d="M12 5h1v2h-1z" fill="rgb(77,150,191)"/>
<path d="M15 5h1v1h-1z" fill="rgb(92,92,92)"/>
<path d="M0 6h1v1h-1z" fill="rgb(88,88,88)"/>
<path d="M3 6h1v1h-1z" fill="rgb(77,150,191)"/>
<path d="M4 6h1v1h-1z" fill="rgb(141,99,160)"/>
<path d="M7 6h2v1h-2z" fill="rgb(81,153,193)"/>
<path d="M10 6h1v1h-1z" fill="rgb(141,99,160)"/>
<path d="M11 6h1v1h-1z" fill="rgb(61,234,170)"/>
<path d="M15 6h1v1h-1z" fill="rgb(89,88,89)"/>
<path d="M0 7h1v2h-1z" fill="rgb(69,69,69)"/>
<path d="M12 7h1v1h-1z" fill="rgb(190,213,225)"/>
<path d="M15 7h1v2h-1z" fill="rgb(69,69,69)"/>
<path d="M3 8h1v1h-1z" fill="rgb(0,229,165)"/>
<path d="M4 8h2v1h-1v1h-2v-1h1z" fill="rgb(77,150,191)"/>
<path d="M10 8h2v2h-1v-1h-1z" fill="rgb(77,150,191)"/>
<path d="M12 8h1v1h-1z" fill="rgb(176,129,165)"/>
<path d="M0 9h1v1h-1z" fill="rgb(88,88,88)"/>
<path d="M5 9h1v1h-1z" fill="rgb(141,99,160)"/>
<path d="M7 9h2v1h-2z" fill="rgb(81,153,193)"/>
<path d="M10 9h1v1h-1z" fill="rgb(0,229,165)"/>
<path d="M12 9h1v1h-1z" fill="rgb(124,170,194)"/>
<path d="M15 9h1v1h-1z" fill="rgb(89,88,89)"/>
<path d="M0 10h1v1h-1z" fill="rgb(92,92,92)"/>
<path d="M11 10h2v1h-2z" fill="rgb(190,213,225)"/>
<path d="M15 10h1v1h-1z" fill="rgb(92,92,92)"/>
<path d="M0 11h1v2h-1z" fill="rgb(108,104,108)"/>
<path d="M3 11h1v1h-1z" fill="rgb(141,99,160)"/>
<path d="M4 11h2v1h-1v1h-2v-1h1z" fill="rgb(77,150,191)"/>
<path d="M10 11h1v1h-1z" fill="rgb(141,99,160)"/>
<path d="M11 11h1v1h-1z" fill="rgb(124,170,194)"/>
<path d="M12 11h1v1h-1z" fill="rgb(0,229,165)"/>
<path d="M15 11h1v2h-1z" fill="rgb(108,104,108)"/>
<path d="M5 12h1v1h-1z" fill="rgb(0,229,165)"/>
<path d="M7 12h2v1h-2z" fill="rgb(81,153,193)"/>
<path d="M10 12h3v1h-3z" fill="rgb(77,150,191)"/>
<path d="M0 13h1v1h-1z" fill="rgb(92,92,92)"/>
<path d="M15 13h1v1h-1z" fill="rgb(92,92,92)"/>
<path d="M0 14h1v1h-1z" fill="rgb(69,69,69)"/>
<path d="M1 14h1v1h-1z" fill="rgb(92,92,92)"/>
<path d="M14 14h1v1h-1z" fill="rgb(92,92,92)"/>
<path d="M15 14h1v1h-1z" fill="rgb(69,69,69)"/>
<path d="M0 15h1v1h-1z" fill="rgb(46,46,46)"/>
<path d="M1 15h1v1h-1z" fill="rgb(69,69,69)"/>
<path d="M2 15h1v1h-1z" fill="rgb(92,92,92)"/>
<path d="M3 15h2v1h-2z" fill="rgb(108,104,108)"/>
<path d="M5 15h1v1h-1z" fill="rgb(92,92,92)"/>
<path d="M6 15h1v1h-1z" fill="rgb(89,88,89)"/>
<path d="M7 15h2v1h-2z" fill="rgb(69,69,69)"/>
<path d="M9 15h1v1h-1z" fill="rgb(92,92,92)"/>
<path d="M10 15h2v1h-2z" fill="rgb(108,104,108)"/>
<path d="M12 15h1v1h-1z" fill="rgb(92,92,92)"/>
<path d="M13 15h1v1h-1z" fill="rgb(89,88,89)"/>
<path d="M14 15h1v1h-1z" fill="rgb(69,69,69)"/>
<path d="M15 15h1v1h-1z" fill="rgb(46,46,46)"/>
</svg>
