<?xml version="1.0" encoding="utf-8"?>
<!-- generated at drububu.com  -->
<!DOCTYPE svg PUBLIC "-//W3C//DTD SVG 1.1//EN" "http://www.w3.org/Graphics/SVG/1.1/DTD/svg11.dtd">
<svg version="1.1" preserveAspectRatio="xMinYMin meet" xmlns="http://www.w3.org/2000/svg" xmlns:xlink="http://www.w3.org/1999/xlink" x="0px" y="0px" width="16px" height="16px" viewBox="0 0 16 16">
<path d="M0 0h1v1h-1z" fill="rgb(41,29,17)"/>
<path d="M1 0h1v1h-1z" fill="rgb(51,35,19)"/>
<path d="M2 0h1v1h-1z" fill="rgb(72,46,21)"/>
<path d="M3 0h2v1h-2z" fill="rgb(80,50,22)"/>
<path d="M5 0h1v1h-1z" fill="rgb(75,47,22)"/>
<path d="M6 0h1v1h-1z" fill="rgb(56,37,19)"/>
<path d="M7 0h2v1h-2z" fill="rgb(53,35,19)"/>
<path d="M9 0h1v1h-1z" fill="rgb(59,39,20)"/>
<path d="M10 0h1v1h-1z" fill="rgb(64,42,20)"/>
<path d="M11 0h1v1h-1z" fill="rgb(70,45,20)"/>
<path d="M12 0h1v1h-1z" fill="rgb(80,50,22)"/>
<path d="M13 0h1v1h-1z" fill="rgb(77,48,22)"/>
<path d="M14 0h1v1h-1z" fill="rgb(61,40,20)"/>
<path d="M15 0h1v1h-1z" fill="rgb(49,33,18)"/>
<path d="M0 1h1v1h-1z" fill="rgb(43,29,18)"/>
<path d="M1 1h1v1h-1z" fill="rgb(69,44,21)"/>
<path d="M2 1h1v1h-1z" fill="rgb(91,57,23)"/>
<path d="M3 1h1v1h-1z" fill="rgb(93,56,23)"/>
<path d="M4 1h1v1h-1z" fill="rgb(97,58,23)"/>
<path d="M5 1h1v1h-1z" fill="rgb(92,55,23)"/>
<path d="M6 1h1v1h-1z" fill="rgb(74,48,22)"/>
<path d="M7 1h1v1h-1z" fill="rgb(74,47,22)"/>
<path d="M8 1h1v1h-1z" fill="rgb(77,49,22)"/>
<path d="M9 1h1v1h-1z" fill="rgb(85,53,23)"/>
<path d="M10 1h1v1h-1z" fill="rgb(88,54,23)"/>
<path d="M11 1h1v1h-1z" fill="rgb(95,56,23)"/>
<path d="M12 1h1v1h-1z" fill="rgb(100,60,24)"/>
<path d="M13 1h1v1h-1z" fill="rgb(96,59,23)"/>
<path d="M14 1h1v1h-1z" fill="rgb(73,47,22)"/>
<path d="M15 1h1v1h-1z" fill="rgb(45,31,18)"/>
<path d="M0 2h1v1h-1z" fill="rgb(54,35,20)"/>
<path d="M1 2h1v1h-1z" fill="rgb(82,52,23)"/>
<path d="M2 2h2v1h-2z" fill="rgb(159,161,124)"/>
<path d="M4 2h1v1h-1z" fill="rgb(167,167,128)"/>
<path d="M5 2h1v1h-1z" fill="rgb(167,168,128)"/>
<path d="M6 2h1v1h-1z" fill="rgb(171,170,130)"/>
<path d="M7 2h1v1h-1z" fill="rgb(167,168,128)"/>
<path d="M8 2h1v1h-1z" fill="rgb(174,174,132)"/>
<path d="M9 2h1v1h-1z" fill="rgb(174,173,132)"/>
<path d="M10 2h1v1h-1z" fill="rgb(167,166,126)"/>
<path d="M11 2h1v1h-1z" fill="rgb(167,168,127)"/>
<path d="M12 2h1v1h-1z" fill="rgb(178,178,136)"/>
<path d="M13 2h1v1h-1z" fill="rgb(182,182,141)"/>
<path d="M14 2h1v1h-1z" fill="rgb(87,53,23)"/>
<path d="M15 2h1v1h-1z" fill="rgb(52,35,20)"/>
<path d="M0 3h1v1h-1z" fill="rgb(63,41,20)"/>
<path d="M1 3h1v1h-1z" fill="rgb(82,51,23)"/>
<path d="M2 3h1v1h-1z" fill="rgb(152,154,120)"/>
<path d="M3 3h1v1h-1z" fill="rgb(143,149,117)"/>
<path d="M4 3h1v1h-1z" fill="rgb(178,176,153)"/>
<path d="M5 3h1v1h-1z" fill="rgb(147,151,118)"/>
<path d="M6 3h1v1h-1z" fill="rgb(165,166,126)"/>
<path d="M7 3h1v1h-1z" fill="rgb(194,189,159)"/>
<path d="M8 3h1v1h-1z" fill="rgb(169,168,128)"/>
<path d="M9 3h1v1h-1z" fill="rgb(171,170,128)"/>
<path d="M10 3h1v1h-1z" fill="rgb(163,177,149)"/>
<path d="M11 3h1v1h-1z" fill="rgb(139,145,113)"/>
<path d="M12 3h1v1h-1z" fill="rgb(159,161,124)"/>
<path d="M13 3h1v2h-1z" fill="rgb(174,174,133)"/>
<path d="M14 3h1v1h-1z" fill="rgb(91,55,23)"/>
<path d="M15 3h1v1h-1z" fill="rgb(60,40,20)"/>
<path d="M0 4h1v1h-1z" fill="rgb(69,45,20)"/>
<path d="M1 4h1v1h-1z" fill="rgb(83,52,22)"/>
<path d="M2 4h1v1h-1z" fill="rgb(169,170,130)"/>
<path d="M3 4h1v1h-1z" fill="rgb(174,99,89)"/>
<path d="M4 4h1v1h-1z" fill="rgb(119,119,97)"/>
<path d="M5 4h1v1h-1z" fill="rgb(162,155,139)"/>
<path d="M6 4h1v1h-1z" fill="rgb(181,180,139)"/>
<path d="M7 4h1v1h-1z" fill="rgb(204,197,167)"/>
<path d="M8 4h2v1h-2z" fill="rgb(181,180,139)"/>
<path d="M10 4h2v1h-2z" fill="rgb(138,150,133)"/>
<path d="M12 4h1v1h-1z" fill="rgb(169,169,127)"/>
<path d="M14 4h1v1h-1z" fill="rgb(93,57,23)"/>
<path d="M15 4h1v1h-1z" fill="rgb(73,47,22)"/>
<path d="M0 5h1v1h-1z" fill="rgb(72,46,21)"/>
<path d="M1 5h1v1h-1z" fill="rgb(79,50,22)"/>
<path d="M2 5h1v1h-1z" fill="rgb(172,171,130)"/>
<path d="M3 5h1v2h-1z" fill="rgb(119,119,97)"/>
<path d="M4 5h1v1h-1z" fill="rgb(115,171,94)"/>
<path d="M5 5h1v2h-1z" fill="rgb(119,119,97)"/>
<path d="M6 5h1v1h-1z" fill="rgb(202,195,165)"/>
<path d="M7 5h1v1h-1z" fill="rgb(182,179,154)"/>
<path d="M8 5h1v1h-1z" fill="rgb(180,180,139)"/>
<path d="M9 5h1v1h-1z" fill="rgb(174,99,89)"/>
<path d="M10 5h1v1h-1z" fill="rgb(119,119,97)"/>
<path d="M11 5h1v1h-1z" fill="rgb(134,189,130)"/>
<path d="M12 5h1v1h-1z" fill="rgb(171,184,153)"/>
<path d="M13 5h1v1h-1z" fill="rgb(173,172,131)"/>
<path d="M14 5h1v1h-1z" fill="rgb(91,56,22)"/>
<path d="M15 5h1v1h-1z" fill="rgb(79,50,22)"/>
<path d="M0 6h1v1h-1z" fill="rgb(68,44,21)"/>
<path d="M1 6h1v1h-1z" fill="rgb(77,48,22)"/>
<path d="M2 6h1v1h-1z" fill="rgb(165,166,126)"/>
<path d="M4 6h1v1h-1z" fill="rgb(186,185,144)"/>
<path d="M6 6h1v1h-1z" fill="rgb(174,174,133)"/>
<path d="M7 6h1v1h-1z" fill="rgb(192,187,159)"/>
<path d="M8 6h1v1h-1z" fill="rgb(183,182,140)"/>
<path d="M9 6h1v1h-1z" fill="rgb(119,119,97)"/>
<path d="M10 6h1v1h-1z" fill="rgb(185,185,143)"/>
<path d="M11 6h1v1h-1z" fill="rgb(119,119,97)"/>
<path d="M12 6h1v1h-1z" fill="rgb(138,150,133)"/>
<path d="M13 6h1v1h-1z" fill="rgb(174,174,132)"/>
<path d="M14 6h1v1h-1z" fill="rgb(86,53,22)"/>
<path d="M15 6h1v1h-1z" fill="rgb(71,45,20)"/>
<path d="M0 7h1v1h-1z" fill="rgb(65,43,20)"/>
<path d="M1 7h1v1h-1z" fill="rgb(79,49,22)"/>
<path d="M2 7h1v1h-1z" fill="rgb(160,161,123)"/>
<path d="M3 7h1v1h-1z" fill="rgb(168,168,128)"/>
<path d="M4 7h1v1h-1z" fill="rgb(184,183,142)"/>
<path d="M5 7h1v1h-1z" fill="rgb(186,185,145)"/>
<path d="M6 7h1v1h-1z" fill="rgb(183,183,141)"/>
<path d="M7 7h1v1h-1z" fill="rgb(207,200,169)"/>
<path d="M8 7h1v1h-1z" fill="rgb(185,185,144)"/>
<path d="M9 7h1v1h-1z" fill="rgb(186,186,145)"/>
<path d="M10 7h1v1h-1z" fill="rgb(184,184,143)"/>
<path d="M11 7h1v1h-1z" fill="rgb(178,177,136)"/>
<path d="M12 7h1v1h-1z" fill="rgb(172,171,130)"/>
<path d="M13 7h1v1h-1z" fill="rgb(176,175,133)"/>
<path d="M14 7h1v1h-1z" fill="rgb(83,52,22)"/>
<path d="M15 7h1v1h-1z" fill="rgb(68,44,20)"/>
<path d="M0 8h1v1h-1z" fill="rgb(61,40,20)"/>
<path d="M1 8h1v1h-1z" fill="rgb(83,51,22)"/>
<path d="M2 8h1v1h-1z" fill="rgb(161,162,125)"/>
<path d="M3 8h1v1h-1z" fill="rgb(156,157,121)"/>
<path d="M4 8h1v1h-1z" fill="rgb(178,177,136)"/>
<path d="M5 8h1v1h-1z" fill="rgb(186,185,144)"/>
<path d="M6 8h1v2h-1z" fill="rgb(185,185,144)"/>
<path d="M7 8h1v1h-1z" fill="rgb(209,203,172)"/>
<path d="M8 8h1v1h-1z" fill="rgb(182,181,139)"/>
<path d="M9 8h1v1h-1z" fill="rgb(182,181,141)"/>
<path d="M10 8h1v1h-1z" fill="rgb(180,180,139)"/>
<path d="M11 8h1v1h-1z" fill="rgb(171,171,130)"/>
<path d="M12 8h1v1h-1z" fill="rgb(173,172,130)"/>
<path d="M13 8h1v1h-1z" fill="rgb(176,176,135)"/>
<path d="M14 8h1v1h-1z" fill="rgb(81,51,22)"/>
<path d="M15 8h1v1h-1z" fill="rgb(63,41,20)"/>
<path d="M0 9h1v1h-1z" fill="rgb(52,34,19)"/>
<path d="M1 9h1v1h-1z" fill="rgb(83,52,23)"/>
<path d="M2 9h1v1h-1z" fill="rgb(167,167,128)"/>
<path d="M3 9h1v1h-1z" fill="rgb(151,154,120)"/>
<path d="M4 9h1v1h-1z" fill="rgb(159,161,123)"/>
<path d="M5 9h1v1h-1z" fill="rgb(182,181,141)"/>
<path d="M7 9h1v1h-1z" fill="rgb(178,177,136)"/>
<path d="M8 9h1v1h-1z" fill="rgb(182,172,159)"/>
<path d="M9 9h1v1h-1z" fill="rgb(115,171,94)"/>
<path d="M10 9h1v1h1v1h-1v1h-1z" fill="rgb(119,119,97)"/>
<path d="M11 9h1v1h-1z" fill="rgb(178,177,137)"/>
<path d="M12 9h1v1h-1z" fill="rgb(174,174,132)"/>
<path d="M13 9h1v1h-1z" fill="rgb(177,176,135)"/>
<path d="M14 9h1v1h-1z" fill="rgb(77,49,22)"/>
<path d="M15 9h1v1h-1z" fill="rgb(54,36,19)"/>
<path d="M0 10h1v1h-1z" fill="rgb(54,37,19)"/>
<path d="M1 10h1v1h-1z" fill="rgb(88,55,23)"/>
<path d="M2 10h1v1h-1z" fill="rgb(174,174,133)"/>
<path d="M3 10h2v3h-1v-2h-1z" fill="rgb(119,119,97)"/>
<path d="M5 10h1v1h-1z" fill="rgb(114,149,95)"/>
<path d="M6 10h1v1h-1z" fill="rgb(186,185,145)"/>
<path d="M7 10h1v1h-1z" fill="rgb(211,204,173)"/>
<path d="M8 10h1v1h-1z" fill="rgb(210,203,172)"/>
<path d="M9 10h1v1h-1z" fill="rgb(182,172,159)"/>
<path d="M12 10h1v1h-1z" fill="rgb(171,170,129)"/>
<path d="M13 10h1v2h-1z" fill="rgb(178,177,135)"/>
<path d="M14 10h1v1h-1z" fill="rgb(76,49,22)"/>
<path d="M15 10h1v1h-1z" fill="rgb(55,37,19)"/>
<path d="M0 11h1v1h-1z" fill="rgb(58,38,19)"/>
<path d="M1 11h1v1h-1z" fill="rgb(89,54,23)"/>
<path d="M2 11h1v1h-1z" fill="rgb(165,166,127)"/>
<path d="M3 11h1v1h-1z" fill="rgb(174,99,89)"/>
<path d="M5 11h1v1h-1z" fill="rgb(178,178,137)"/>
<path d="M6 11h1v1h-1z" fill="rgb(223,213,187)"/>
<path d="M7 11h1v1h-1z" fill="rgb(184,184,143)"/>
<path d="M8 11h1v1h-1z" fill="rgb(183,182,141)"/>
<path d="M9 11h1v1h-1z" fill="rgb(194,188,160)"/>
<path d="M11 11h1v1h-1z" fill="rgb(174,99,89)"/>
<path d="M12 11h1v1h-1z" fill="rgb(164,165,126)"/>
<path d="M14 11h1v2h-1z" fill="rgb(77,49,22)"/>
<path d="M15 11h1v1h-1z" fill="rgb(55,36,19)"/>
<path d="M0 12h1v1h-1z" fill="rgb(63,41,20)"/>
<path d="M1 12h1v1h-1z" fill="rgb(88,53,23)"/>
<path d="M2 12h1v1h-1z" fill="rgb(156,158,122)"/>
<path d="M3 12h1v1h-1z" fill="rgb(160,162,126)"/>
<path d="M5 12h1v1h-1z" fill="rgb(198,192,162)"/>
<path d="M6 12h1v1h-1z" fill="rgb(170,169,129)"/>
<path d="M7 12h1v1h-1z" fill="rgb(173,172,131)"/>
<path d="M8 12h1v1h-1z" fill="rgb(174,174,133)"/>
<path d="M9 12h1v1h-1z" fill="rgb(213,204,178)"/>
<path d="M10 12h1v1h-1z" fill="rgb(194,189,160)"/>
<path d="M11 12h1v1h-1z" fill="rgb(173,174,132)"/>
<path d="M12 12h1v1h-1z" fill="rgb(172,173,132)"/>
<path d="M13 12h1v1h-1z" fill="rgb(175,175,134)"/>
<path d="M15 12h1v1h-1z" fill="rgb(55,37,19)"/>
<path d="M0 13h1v1h-1z" fill="rgb(60,40,20)"/>
<path d="M1 13h1v1h-1z" fill="rgb(82,50,23)"/>
<path d="M2 13h1v1h-1z" fill="rgb(129,138,112)"/>
<path d="M3 13h1v1h-1z" fill="rgb(148,153,120)"/>
<path d="M4 13h1v1h-1z" fill="rgb(173,172,132)"/>
<path d="M5 13h1v1h-1z" fill="rgb(188,183,155)"/>
<path d="M6 13h1v1h-1z" fill="rgb(156,157,119)"/>
<path d="M7 13h1v1h-1z" fill="rgb(158,159,120)"/>
<path d="M8 13h1v1h-1z" fill="rgb(163,164,124)"/>
<path d="M9 13h1v1h-1z" fill="rgb(163,165,125)"/>
<path d="M10 13h1v1h-1z" fill="rgb(169,168,128)"/>
<path d="M11 13h1v1h-1z" fill="rgb(178,178,137)"/>
<path d="M12 13h1v1h-1z" fill="rgb(158,159,122)"/>
<path d="M13 13h1v1h-1z" fill="rgb(158,160,123)"/>
<path d="M14 13h1v1h-1z" fill="rgb(71,46,21)"/>
<path d="M15 13h1v1h-1z" fill="rgb(52,34,19)"/>
<path d="M0 14h1v1h-1z" fill="rgb(46,32,19)"/>
<path d="M1 14h1v1h-1z" fill="rgb(68,45,21)"/>
<path d="M2 14h1v1h-1z" fill="rgb(78,48,23)"/>
<path d="M3 14h1v1h-1z" fill="rgb(86,54,23)"/>
<path d="M4 14h1v1h-1z" fill="rgb(92,58,23)"/>
<path d="M5 14h1v1h-1z" fill="rgb(83,53,23)"/>
<path d="M6 14h1v1h-1z" fill="rgb(81,51,23)"/>
<path d="M7 14h1v1h-1z" fill="rgb(87,55,23)"/>
<path d="M8 14h1v1h-1z" fill="rgb(93,56,23)"/>
<path d="M9 14h1v1h-1z" fill="rgb(94,55,23)"/>
<path d="M10 14h1v1h-1z" fill="rgb(96,58,23)"/>
<path d="M11 14h1v1h-1z" fill="rgb(101,62,24)"/>
<path d="M12 14h1v1h-1z" fill="rgb(90,55,23)"/>
<path d="M13 14h1v1h-1z" fill="rgb(78,48,22)"/>
<path d="M14 14h1v1h-1z" fill="rgb(56,36,19)"/>
<path d="M15 14h1v1h-1z" fill="rgb(36,26,16)"/>
<path d="M0 15h1v1h-1z" fill="rgb(41,28,18)"/>
<path d="M1 15h1v1h-1z" fill="rgb(48,32,18)"/>
<path d="M2 15h1v1h-1z" fill="rgb(59,38,20)"/>
<path d="M3 15h1v1h-1z" fill="rgb(60,40,20)"/>
<path d="M4 15h1v1h-1z" fill="rgb(64,42,20)"/>
<path d="M5 15h1v1h-1z" fill="rgb(64,41,20)"/>
<path d="M6 15h1v1h-1z" fill="rgb(65,43,20)"/>
<path d="M7 15h1v1h-1z" fill="rgb(77,49,22)"/>
<path d="M8 15h1v1h-1z" fill="rgb(81,51,22)"/>
<path d="M9 15h2v1h-2z" fill="rgb(83,51,22)"/>
<path d="M11 15h1v1h-1z" fill="rgb(76,48,22)"/>
<path d="M12 15h1v1h-1z" fill="rgb(67,43,21)"/>
<path d="M13 15h1v1h-1z" fill="rgb(47,32,19)"/>
<path d="M14 15h1v1h-1z" fill="rgb(37,27,16)"/>
<path d="M15 15h1v1h-1z" fill="rgb(35,25,16)"/>
</svg>
