<?xml version="1.0" encoding="UTF-8" standalone="no"?>
<!-- generated at drububu.com  -->

<svg
   xmlns:dc="http://purl.org/dc/elements/1.1/"
   xmlns:cc="http://creativecommons.org/ns#"
   xmlns:rdf="http://www.w3.org/1999/02/22-rdf-syntax-ns#"
   xmlns:svg="http://www.w3.org/2000/svg"
   xmlns="http://www.w3.org/2000/svg"
   xmlns:sodipodi="http://sodipodi.sourceforge.net/DTD/sodipodi-0.dtd"
   xmlns:inkscape="http://www.inkscape.org/namespaces/inkscape"
   version="1.1"
   preserveAspectRatio="xMinYMin meet"
   x="0px"
   y="0px"
   width="16px"
   height="16px"
   viewBox="0 0 16 16"
   id="svg9578"
   inkscape:version="0.48.5 r10040"
   sodipodi:docname="ancient.engine.svg">
  <metadata
     id="metadata9666">
    <rdf:RDF>
      <cc:Work
         rdf:about="">
        <dc:format>image/svg+xml</dc:format>
        <dc:type
           rdf:resource="http://purl.org/dc/dcmitype/StillImage" />
      </cc:Work>
    </rdf:RDF>
  </metadata>
  <defs
     id="defs9664" />
  <sodipodi:namedview
     pagecolor="#ffffff"
     bordercolor="#666666"
     borderopacity="1"
     objecttolerance="10"
     gridtolerance="10"
     guidetolerance="10"
     inkscape:pageopacity="0"
     inkscape:pageshadow="2"
     inkscape:window-width="640"
     inkscape:window-height="480"
     id="namedview9662"
     showgrid="false"
     inkscape:zoom="14.75"
     inkscape:cx="8"
     inkscape:cy="8"
     inkscape:window-x="0"
     inkscape:window-y="0"
     inkscape:window-maximized="0"
     inkscape:current-layer="svg9578" />
  <path
     d="M2 0h1v2h-1z"
     fill="rgb(77,77,77)"
     id="path9582" />
  <path
     d="M3 0h1v2h-1z"
     fill="rgb(80,80,80)"
     id="path9584" />
  <path
     d="M4 0h1v2h-1z"
     fill="rgb(90,89,89)"
     id="path9586" />
  <path
     d="M5 0h1v2h-1z"
     fill="rgb(104,104,104)"
     id="path9588" />
  <path
     d="M6 0h1v2h-1z"
     fill="rgb(130,130,130)"
     id="path9590" />
  <path
     d="M7 0h2v1h-2z"
     fill="rgb(107,14,0)"
     id="path9592" />
  <path
     d="M9 0h1v2h-1z"
     fill="rgb(130,130,130)"
     id="path9594" />
  <path
     d="M10 0h1v2h-1z"
     fill="rgb(104,104,104)"
     id="path9596" />
  <path
     d="M11 0h1v2h-1z"
     fill="rgb(90,89,89)"
     id="path9598" />
  <path
     d="M12 0h1v2h-1z"
     fill="rgb(80,80,80)"
     id="path9600" />
  <path
     d="M13 0h1v2h-1z"
     fill="rgb(77,77,77)"
     id="path9602" />
  <path
     d="M7 1h2v1h-2z"
     fill="rgb(150,150,150)"
     id="path9604" />
  <path
     d="M3 2h1v1h-1z"
     fill="rgb(77,77,77)"
     id="path9606" />
  <path
     d="M4 2h1v1h-1z"
     fill="rgb(80,80,80)"
     id="path9608" />
  <path
     d="M5 2h1v1h-1z"
     fill="rgb(90,89,89)"
     id="path9610" />
  <path
     d="M6 2h1v1h-1z"
     fill="rgb(104,104,104)"
     id="path9612" />
  <path
     d="M7 2h2v3h-2z"
     fill="rgb(130,130,130)"
     id="path9614" />
  <path
     d="M9 2h1v1h-1z"
     fill="rgb(104,104,104)"
     id="path9616" />
  <path
     d="M10 2h1v1h-1z"
     fill="rgb(90,89,89)"
     id="path9618" />
  <path
     d="M11 2h1v1h-1z"
     fill="rgb(80,80,80)"
     id="path9620" />
  <path
     d="M12 2h1v1h-1z"
     fill="rgb(77,77,77)"
     id="path9622" />
  <path
     d="M4 3h1v1h-1z"
     fill="rgb(77,77,77)"
     id="path9624" />
  <path
     d="M5 3h1v1h-1z"
     fill="rgb(80,80,80)"
     id="path9626" />
  <path
     d="M6 3h1v3h-1z"
     fill="rgb(90,89,89)"
     id="path9628" />
  <path
     d="M9 3h1v3h-1z"
     fill="rgb(90,89,89)"
     id="path9630" />
  <path
     d="M10 3h1v2h-1z"
     fill="rgb(80,80,80)"
     id="path9632" />
  <path
     d="M11 3h1v1h-1z"
     fill="rgb(77,77,77)"
     id="path9634" />
  <path
     d="M5 4h1v3h-1z"
     fill="rgb(77,77,77)"
     id="path9636" />
  <path
     d="M7 5h2v1h-2z"
     fill="rgb(113,111,111)"
     id="path9638" />
  <path
     d="M10 5h1v2h-1z"
     fill="rgb(77,77,77)"
     id="path9640" />
  <path
     d="M6 6h1v1h-1z"
     fill="rgb(80,80,80)"
     id="path9642" />
  <path
     d="M7 6h2v1h-2z"
     fill="rgb(104,104,104)"
     id="path9644" />
  <path
     d="M9 6h1v1h-1z"
     fill="rgb(80,80,80)"
     id="path9646" />
  <path
     d="M4 7h1v1h-1z"
     fill="rgb(77,77,77)"
     id="path9648" />
  <path
     d="M5 7h1v1h-1z"
     fill="rgb(90,89,89)"
     id="path9650" />
  <path
     d="M6 7h1v1h-1z"
     fill="rgb(113,111,111)"
     id="path9652" />
  <path
     d="M7 7h2v1h-2z"
     fill="rgb(150,150,150)"
     id="path9654" />
  <path
     d="M9 7h1v1h-1z"
     fill="rgb(113,111,111)"
     id="path9656" />
  <path
     d="M10 7h1v1h-1z"
     fill="rgb(90,89,89)"
     id="path9658" />
  <path
     d="M11 7h1v1h-1z"
     fill="rgb(77,77,77)"
     id="path9660" />
</svg>
