<?xml version="1.0" encoding="utf-8"?>
<!-- generated at drububu.com  -->
<!DOCTYPE svg PUBLIC "-//W3C//DTD SVG 1.1//EN" "http://www.w3.org/Graphics/SVG/1.1/DTD/svg11.dtd">
<svg version="1.1" preserveAspectRatio="xMinYMin meet" xmlns="http://www.w3.org/2000/svg" xmlns:xlink="http://www.w3.org/1999/xlink" x="0px" y="0px" width="16px" height="16px" viewBox="0 0 16 16">
<path d="M0 0h2v1h-1v1h-1z" fill="rgb(27,27,27)"/>
<path d="M2 0h1v1h-1z" fill="rgb(52,52,52)"/>
<path d="M3 0h1v1h-1z" fill="rgb(42,42,42)"/>
<path d="M4 0h1v1h-1z" fill="rgb(67,67,67)"/>
<path d="M5 0h1v1h-1z" fill="rgb(0,17,140)"/>
<path d="M6 0h1v1h-1z" fill="rgb(93,93,93)"/>
<path d="M7 0h2v1h-2z" fill="rgb(114,114,114)"/>
<path d="M9 0h1v1h-1z" fill="rgb(93,93,93)"/>
<path d="M10 0h1v1h-1z" fill="rgb(0,17,140)"/>
<path d="M11 0h1v1h-1z" fill="rgb(67,67,67)"/>
<path d="M12 0h1v1h-1z" fill="rgb(42,42,42)"/>
<path d="M13 0h1v1h-1z" fill="rgb(52,52,52)"/>
<path d="M14 0h2v2h-1v-1h-1z" fill="rgb(27,27,27)"/>
<path d="M1 1h1v1h-1z" fill="rgb(35,35,35)"/>
<path d="M2 1h2v1h-1v1h-1z" fill="rgb(67,67,67)"/>
<path d="M4 1h1v2h-1z" fill="rgb(42,42,42)"/>
<path d="M5 1h1v1h-1z" fill="rgb(93,93,93)"/>
<path d="M6 1h1v1h-1z" fill="rgb(0,20,171)"/>
<path d="M7 1h2v1h-2z" fill="rgb(0,17,140)"/>
<path d="M9 1h1v1h-1z" fill="rgb(0,20,171)"/>
<path d="M10 1h1v1h-1z" fill="rgb(93,93,93)"/>
<path d="M11 1h1v2h-1z" fill="rgb(42,42,42)"/>
<path d="M12 1h2v2h-1v-1h-1z" fill="rgb(67,67,67)"/>
<path d="M14 1h1v1h-1z" fill="rgb(35,35,35)"/>
<path d="M0 2h1v1h-1z" fill="rgb(35,35,35)"/>
<path d="M1 2h1v3h-2v-2h1z" fill="rgb(52,52,52)"/>
<path d="M3 2h1v2h-2v-1h1z" fill="rgb(93,93,93)"/>
<path d="M5 2h1v1h-1z" fill="rgb(67,67,67)"/>
<path d="M6 2h1v2h-1z" fill="rgb(93,93,93)"/>
<path d="M7 2h2v3h-2z" fill="rgb(114,114,114)"/>
<path d="M9 2h1v2h-1z" fill="rgb(93,93,93)"/>
<path d="M10 2h1v1h-1z" fill="rgb(67,67,67)"/>
<path d="M12 2h1v1h1v1h-2z" fill="rgb(93,93,93)"/>
<path d="M14 2h1v1h1v2h-2z" fill="rgb(52,52,52)"/>
<path d="M15 2h1v1h-1z" fill="rgb(35,35,35)"/>
<path d="M4 3h1v1h-1z" fill="rgb(67,67,67)"/>
<path d="M5 3h1v2h-1z" fill="rgb(42,42,42)"/>
<path d="M10 3h1v2h-1z" fill="rgb(42,42,42)"/>
<path d="M11 3h1v1h-1z" fill="rgb(67,67,67)"/>
<path d="M2 4h1v1h-1z" fill="rgb(89,89,91)"/>
<path d="M3 4h1v2h1v1h-2z" fill="rgb(114,114,114)"/>
<path d="M4 4h1v2h-1z" fill="rgb(93,93,93)"/>
<path d="M6 4h1v1h-1z" fill="rgb(67,67,67)"/>
<path d="M9 4h1v1h-1z" fill="rgb(67,67,67)"/>
<path d="M11 4h1v2h-1z" fill="rgb(93,93,93)"/>
<path d="M12 4h1v3h-2v-1h1z" fill="rgb(114,114,114)"/>
<path d="M13 4h1v1h-1z" fill="rgb(89,89,91)"/>
<path d="M0 5h1v1h-1z" fill="rgb(0,20,171)"/>
<path d="M1 5h1v1h-1z" fill="rgb(0,17,140)"/>
<path d="M2 5h1v1h-1z" fill="rgb(93,93,93)"/>
<path d="M5 5h1v1h-1z" fill="rgb(67,67,67)"/>
<path d="M6 5h1v1h-1z" fill="rgb(42,42,42)"/>
<path d="M7 5h2v2h-2z" fill="rgb(93,93,93)"/>
<path d="M9 5h1v1h-1z" fill="rgb(42,42,42)"/>
<path d="M10 5h1v1h-1z" fill="rgb(67,67,67)"/>
<path d="M13 5h1v1h-1z" fill="rgb(93,93,93)"/>
<path d="M14 5h1v1h-1z" fill="rgb(0,17,140)"/>
<path d="M15 5h1v1h-1z" fill="rgb(0,20,171)"/>
<path d="M0 6h1v1h-1z" fill="rgb(0,17,140)"/>
<path d="M1 6h1v1h-1z" fill="rgb(0,20,171)"/>
<path d="M2 6h1v1h-1z" fill="rgb(0,17,140)"/>
<path d="M5 6h1v1h-1z" fill="rgb(93,93,93)"/>
<path d="M6 6h1v3h-1z" fill="rgb(67,67,67)"/>
<path d="M9 6h1v3h-1z" fill="rgb(67,67,67)"/>
<path d="M10 6h1v1h-1z" fill="rgb(93,93,93)"/>
<path d="M13 6h1v1h-1z" fill="rgb(0,17,140)"/>
<path d="M14 6h1v1h-1z" fill="rgb(0,20,171)"/>
<path d="M15 6h1v1h-1z" fill="rgb(0,17,140)"/>
<path d="M0 7h1v5h1v3h-1v-1h-1z" fill="rgb(52,52,52)"/>
<path d="M1 7h1v1h-1z" fill="rgb(0,17,140)"/>
<path d="M2 7h2v1h-2z" fill="rgb(0,20,171)"/>
<path d="M4 7h1v1h-1z" fill="rgb(0,17,140)"/>
<path d="M5 7h1v1h-1z" fill="rgb(114,114,114)"/>
<path d="M7 7h2v4h-2z" fill="rgb(114,114,114)"/>
<path d="M10 7h1v1h-1z" fill="rgb(114,114,114)"/>
<path d="M11 7h1v1h-1z" fill="rgb(0,17,140)"/>
<path d="M12 7h2v1h-2z" fill="rgb(0,20,171)"/>
<path d="M14 7h1v1h-1z" fill="rgb(0,17,140)"/>
<path d="M15 7h1v7h-1v1h-1v-3h1z" fill="rgb(52,52,52)"/>
<path d="M1 8h1v2h-1z" fill="rgb(104,104,104)"/>
<path d="M2 8h1v1h2v1h-1v1h-1v-1h-1z" fill="rgb(114,114,114)"/>
<path d="M3 8h1v1h-1z" fill="rgb(0,17,140)"/>
<path d="M4 8h2v1h-2z" fill="rgb(0,20,171)"/>
<path d="M10 8h2v1h-2z" fill="rgb(0,20,171)"/>
<path d="M12 8h1v1h-1z" fill="rgb(0,17,140)"/>
<path d="M13 8h1v2h-1v1h-1v-1h-1v-1h2z" fill="rgb(114,114,114)"/>
<path d="M14 8h1v2h-1z" fill="rgb(104,104,104)"/>
<path d="M5 9h1v1h-1z" fill="rgb(67,67,67)"/>
<path d="M6 9h1v1h-1z" fill="rgb(89,89,91)"/>
<path d="M9 9h1v1h-1z" fill="rgb(89,89,91)"/>
<path d="M10 9h1v1h-1z" fill="rgb(67,67,67)"/>
<path d="M1 10h1v1h-1z" fill="rgb(93,93,93)"/>
<path d="M2 10h1v1h-1z" fill="rgb(104,104,104)"/>
<path d="M4 10h1v1h-1z" fill="rgb(67,67,67)"/>
<path d="M5 10h1v1h-1z" fill="rgb(89,89,91)"/>
<path d="M6 10h1v1h-1z" fill="rgb(93,93,93)"/>
<path d="M9 10h2v1h-2z" fill="rgb(93,93,93)"/>
<path d="M11 10h1v1h-1z" fill="rgb(67,67,67)"/>
<path d="M13 10h1v2h-1z" fill="rgb(104,104,104)"/>
<path d="M14 10h1v1h-1z" fill="rgb(93,93,93)"/>
<path d="M1 11h1v1h-1z" fill="rgb(67,67,67)"/>
<path d="M2 11h2v1h-2z" fill="rgb(93,93,93)"/>
<path d="M4 11h1v2h1v1h-1v1h-1v-1h-1v-1h-1v-1h2z" fill="rgb(89,89,91)"/>
<path d="M5 11h1v2h-1z" fill="rgb(42,42,42)"/>
<path d="M6 11h1v1h-1z" fill="rgb(67,67,67)"/>
<path d="M7 11h2v1h-2z" fill="rgb(93,93,93)"/>
<path d="M9 11h1v1h-1z" fill="rgb(67,67,67)"/>
<path d="M10 11h1v2h-1z" fill="rgb(42,42,42)"/>
<path d="M11 11h1v1h2v1h-1v1h-1v1h-1v-1h-1v-1h1z" fill="rgb(89,89,91)"/>
<path d="M12 11h1v1h-1z" fill="rgb(93,93,93)"/>
<path d="M14 11h1v1h-1z" fill="rgb(67,67,67)"/>
<path d="M6 12h4v1h-1v1h-2v-1h-1z" fill="rgb(52,52,52)"/>
<path d="M2 13h1v1h-1z" fill="rgb(93,93,93)"/>
<path d="M6 13h1v1h-1z" fill="rgb(42,42,42)"/>
<path d="M9 13h1v1h-1z" fill="rgb(42,42,42)"/>
<path d="M13 13h1v1h-1z" fill="rgb(93,93,93)"/>
<path d="M0 14h1v2h-1z" fill="rgb(27,27,27)"/>
<path d="M2 14h1v1h-1z" fill="rgb(67,67,67)"/>
<path d="M3 14h1v1h-1z" fill="rgb(93,93,93)"/>
<path d="M5 14h1v1h-1z" fill="rgb(0,20,171)"/>
<path d="M6 14h1v1h-1z" fill="rgb(0,17,140)"/>
<path d="M7 14h2v1h-2z" fill="rgb(42,42,42)"/>
<path d="M9 14h1v1h-1z" fill="rgb(0,17,140)"/>
<path d="M10 14h1v1h-1z" fill="rgb(0,20,171)"/>
<path d="M12 14h1v1h-1z" fill="rgb(93,93,93)"/>
<path d="M13 14h1v1h-1z" fill="rgb(67,67,67)"/>
<path d="M15 14h1v2h-1z" fill="rgb(27,27,27)"/>
<path d="M1 15h1v1h-1z" fill="rgb(35,35,35)"/>
<path d="M2 15h1v1h-1z" fill="rgb(52,52,52)"/>
<path d="M3 15h1v1h-1z" fill="rgb(67,67,67)"/>
<path d="M4 15h1v1h-1z" fill="rgb(0,20,171)"/>
<path d="M5 15h1v1h-1z" fill="rgb(0,17,140)"/>
<path d="M6 15h1v1h-1z" fill="rgb(0,20,171)"/>
<path d="M7 15h2v1h-2z" fill="rgb(89,89,91)"/>
<path d="M9 15h1v1h-1z" fill="rgb(0,20,171)"/>
<path d="M10 15h1v1h-1z" fill="rgb(0,17,140)"/>
<path d="M11 15h1v1h-1z" fill="rgb(0,20,171)"/>
<path d="M12 15h1v1h-1z" fill="rgb(67,67,67)"/>
<path d="M13 15h1v1h-1z" fill="rgb(52,52,52)"/>
<path d="M14 15h1v1h-1z" fill="rgb(35,35,35)"/>
</svg>
