<?xml version="1.0" encoding="utf-8"?>
<!-- generated at drububu.com  -->
<!DOCTYPE svg PUBLIC "-//W3C//DTD SVG 1.1//EN" "http://www.w3.org/Graphics/SVG/1.1/DTD/svg11.dtd">
<svg version="1.1" preserveAspectRatio="xMinYMin meet" xmlns="http://www.w3.org/2000/svg" xmlns:xlink="http://www.w3.org/1999/xlink" x="0px" y="0px" width="16px" height="16px" viewBox="0 0 16 16">
<path d="M0 0h1v1h-1z" fill="rgb(156,156,156)"/>
<path d="M1 0h1v1h-1z" fill="rgb(136,136,136)"/>
<path d="M2 0h1v1h-1z" fill="rgb(153,153,153)"/>
<path d="M3 0h1v1h-1z" fill="rgb(182,182,182)"/>
<path d="M4 0h1v1h-1z" fill="rgb(186,186,186)"/>
<path d="M5 0h1v1h-1z" fill="rgb(178,178,178)"/>
<path d="M6 0h1v1h-1z" fill="rgb(149,149,149)"/>
<path d="M7 0h1v1h-1z" fill="rgb(133,133,133)"/>
<path d="M8 0h1v1h-1z" fill="rgb(158,158,158)"/>
<path d="M9 0h1v1h-1z" fill="rgb(154,154,154)"/>
<path d="M10 0h1v1h-1z" fill="rgb(178,178,178)"/>
<path d="M11 0h1v1h-1z" fill="rgb(202,202,202)"/>
<path d="M12 0h1v1h-1z" fill="rgb(199,199,199)"/>
<path d="M13 0h1v1h-1z" fill="rgb(159,159,159)"/>
<path d="M14 0h1v1h-1z" fill="rgb(133,133,133)"/>
<path d="M15 0h1v1h-1z" fill="rgb(175,175,175)"/>
<path d="M0 1h1v1h-1z" fill="rgb(115,115,115)"/>
<path d="M1 1h1v1h-1z" fill="rgb(138,138,138)"/>
<path d="M2 1h1v1h-1z" fill="rgb(186,186,186)"/>
<path d="M3 1h1v1h-1z" fill="rgb(210,210,210)"/>
<path d="M4 1h1v1h-1z" fill="rgb(217,217,217)"/>
<path d="M5 1h1v1h-1z" fill="rgb(206,206,206)"/>
<path d="M6 1h1v1h-1z" fill="rgb(153,153,153)"/>
<path d="M7 1h2v1h-2z" fill="rgb(184,184,184)"/>
<path d="M9 1h1v1h-1z" fill="rgb(155,155,155)"/>
<path d="M10 1h1v1h-1z" fill="rgb(182,182,182)"/>
<path d="M11 1h1v1h-1z" fill="rgb(208,208,208)"/>
<path d="M12 1h1v1h-1z" fill="rgb(207,207,207)"/>
<path d="M13 1h1v1h-1z" fill="rgb(176,176,176)"/>
<path d="M14 1h1v1h-1z" fill="rgb(130,130,130)"/>
<path d="M15 1h1v1h-1z" fill="rgb(149,149,149)"/>
<path d="M0 2h1v1h-1z" fill="rgb(141,141,141)"/>
<path d="M1 2h1v1h-1z" fill="rgb(192,192,192)"/>
<path d="M2 2h1v1h-1z" fill="rgb(221,221,221)"/>
<path d="M3 2h1v1h-1z" fill="rgb(227,227,227)"/>
<path d="M4 2h1v1h-1z" fill="rgb(225,225,225)"/>
<path d="M5 2h1v1h-1z" fill="rgb(205,205,205)"/>
<path d="M6 2h1v1h-1z" fill="rgb(157,157,157)"/>
<path d="M7 2h1v1h-1z" fill="rgb(209,209,209)"/>
<path d="M8 2h1v1h-1z" fill="rgb(210,210,210)"/>
<path d="M9 2h1v1h-1z" fill="rgb(159,159,159)"/>
<path d="M10 2h1v1h-1z" fill="rgb(184,184,184)"/>
<path d="M11 2h1v2h-1z" fill="rgb(219,219,219)"/>
<path d="M12 2h1v1h-1z" fill="rgb(222,222,222)"/>
<path d="M13 2h1v1h-1z" fill="rgb(209,209,209)"/>
<path d="M14 2h1v1h-1z" fill="rgb(162,162,162)"/>
<path d="M15 2h1v1h-1z" fill="rgb(97,97,97)"/>
<path d="M0 3h1v1h-1z" fill="rgb(169,169,169)"/>
<path d="M1 3h1v1h-1z" fill="rgb(202,202,202)"/>
<path d="M2 3h1v1h-1z" fill="rgb(225,225,225)"/>
<path d="M3 3h1v1h-1z" fill="rgb(228,228,228)"/>
<path d="M4 3h1v1h-1z" fill="rgb(217,217,217)"/>
<path d="M5 3h1v1h-1z" fill="rgb(170,170,170)"/>
<path d="M6 3h1v1h-1z" fill="rgb(175,175,175)"/>
<path d="M7 3h1v1h-1z" fill="rgb(222,222,222)"/>
<path d="M8 3h1v1h-1z" fill="rgb(221,221,221)"/>
<path d="M9 3h1v1h-1z" fill="rgb(176,176,176)"/>
<path d="M10 3h1v1h-1z" fill="rgb(168,168,168)"/>
<path d="M12 3h1v2h-1z" fill="rgb(228,228,228)"/>
<path d="M13 3h1v1h-1z" fill="rgb(225,225,225)"/>
<path d="M14 3h1v1h-1z" fill="rgb(199,199,199)"/>
<path d="M15 3h1v1h-1z" fill="rgb(84,84,84)"/>
<path d="M0 4h1v1h-1z" fill="rgb(170,170,170)"/>
<path d="M1 4h1v1h-1z" fill="rgb(201,201,201)"/>
<path d="M2 4h2v1h-1v1h-1z" fill="rgb(224,224,224)"/>
<path d="M4 4h1v1h-1z" fill="rgb(184,184,184)"/>
<path d="M5 4h1v1h-1z" fill="rgb(132,132,132)"/>
<path d="M6 4h1v1h-1z" fill="rgb(192,192,192)"/>
<path d="M7 4h1v1h-1z" fill="rgb(226,226,226)"/>
<path d="M8 4h1v2h-1z" fill="rgb(228,228,228)"/>
<path d="M9 4h1v1h-1z" fill="rgb(207,207,207)"/>
<path d="M10 4h1v1h-1z" fill="rgb(164,164,164)"/>
<path d="M11 4h1v1h-1z" fill="rgb(210,210,210)"/>
<path d="M13 4h1v2h-1z" fill="rgb(229,229,229)"/>
<path d="M14 4h1v1h-1z" fill="rgb(220,220,220)"/>
<path d="M15 4h1v1h-1z" fill="rgb(151,151,151)"/>
<path d="M0 5h1v1h-1z" fill="rgb(160,160,160)"/>
<path d="M1 5h1v1h-1z" fill="rgb(203,203,203)"/>
<path d="M3 5h1v1h-1z" fill="rgb(199,199,199)"/>
<path d="M4 5h1v1h-1z" fill="rgb(103,103,103)"/>
<path d="M5 5h1v1h-1z" fill="rgb(150,150,150)"/>
<path d="M6 5h1v1h-1z" fill="rgb(217,217,217)"/>
<path d="M7 5h1v1h1v1h-2z" fill="rgb(229,229,229)"/>
<path d="M9 5h1v1h-1z" fill="rgb(217,217,217)"/>
<path d="M10 5h1v1h-1z" fill="rgb(176,176,176)"/>
<path d="M11 5h1v1h-1z" fill="rgb(184,184,184)"/>
<path d="M12 5h1v1h-1z" fill="rgb(221,221,221)"/>
<path d="M14 5h1v1h-1z" fill="rgb(221,221,221)"/>
<path d="M15 5h1v2h-1z" fill="rgb(180,180,180)"/>
<path d="M0 6h1v1h-1z" fill="rgb(168,168,168)"/>
<path d="M1 6h1v1h-1z" fill="rgb(197,197,197)"/>
<path d="M2 6h1v1h-1z" fill="rgb(192,192,192)"/>
<path d="M3 6h1v1h-1z" fill="rgb(140,140,140)"/>
<path d="M4 6h1v1h-1z" fill="rgb(136,136,136)"/>
<path d="M5 6h1v1h-1z" fill="rgb(209,209,209)"/>
<path d="M6 6h1v1h-1z" fill="rgb(228,228,228)"/>
<path d="M9 6h1v1h-1z" fill="rgb(226,226,226)"/>
<path d="M10 6h1v1h-1z" fill="rgb(205,205,205)"/>
<path d="M11 6h1v1h-1z" fill="rgb(177,177,177)"/>
<path d="M12 6h1v1h-1z" fill="rgb(209,209,209)"/>
<path d="M13 6h1v1h-1z" fill="rgb(226,226,226)"/>
<path d="M14 6h1v1h-1z" fill="rgb(218,218,218)"/>
<path d="M0 7h1v1h-1z" fill="rgb(146,146,146)"/>
<path d="M1 7h1v1h-1z" fill="rgb(140,140,140)"/>
<path d="M2 7h1v1h-1z" fill="rgb(131,131,131)"/>
<path d="M3 7h1v1h-1z" fill="rgb(144,144,144)"/>
<path d="M4 7h1v1h-1z" fill="rgb(209,209,209)"/>
<path d="M5 7h1v1h-1z" fill="rgb(228,228,228)"/>
<path d="M6 7h1v1h-1z" fill="rgb(218,218,218)"/>
<path d="M7 7h1v1h-1z" fill="rgb(215,215,215)"/>
<path d="M8 7h1v1h-1z" fill="rgb(217,217,217)"/>
<path d="M9 7h1v1h-1z" fill="rgb(219,219,219)"/>
<path d="M10 7h1v1h-1z" fill="rgb(218,218,218)"/>
<path d="M11 7h1v1h-1z" fill="rgb(179,179,179)"/>
<path d="M12 7h1v1h-1z" fill="rgb(180,180,180)"/>
<path d="M13 7h1v1h-1z" fill="rgb(207,207,207)"/>
<path d="M14 7h1v1h-1z" fill="rgb(190,190,190)"/>
<path d="M15 7h1v1h-1z" fill="rgb(147,147,147)"/>
<path d="M0 8h1v1h-1z" fill="rgb(116,116,116)"/>
<path d="M1 8h2v1h-2z" fill="rgb(128,128,128)"/>
<path d="M3 8h1v1h-1z" fill="rgb(103,103,103)"/>
<path d="M4 8h1v1h-1z" fill="rgb(213,213,213)"/>
<path d="M5 8h1v1h-1z" fill="rgb(214,214,214)"/>
<path d="M6 8h1v1h-1z" fill="rgb(135,0,0)"/>
<path d="M7 8h1v1h-1z" fill="rgb(82,0,0)"/>
<path d="M8 8h1v1h-1z" fill="rgb(77,0,0)"/>
<path d="M9 8h1v1h-1z" fill="rgb(131,0,0)"/>
<path d="M10 8h1v1h-1z" fill="rgb(215,215,215)"/>
<path d="M11 8h1v1h-1z" fill="rgb(203,203,203)"/>
<path d="M12 8h1v1h-1z" fill="rgb(151,151,151)"/>
<path d="M13 8h1v1h-1z" fill="rgb(149,149,149)"/>
<path d="M14 8h1v1h-1z" fill="rgb(104,104,104)"/>
<path d="M15 8h1v1h-1z" fill="rgb(84,84,84)"/>
<path d="M0 9h1v1h-1z" fill="rgb(141,141,141)"/>
<path d="M1 9h1v1h-1z" fill="rgb(179,179,179)"/>
<path d="M2 9h1v1h-1z" fill="rgb(144,144,144)"/>
<path d="M3 9h1v1h-1z" fill="rgb(79,79,79)"/>
<path d="M4 9h1v1h-1z" fill="rgb(201,201,201)"/>
<path d="M5 9h1v1h-1z" fill="rgb(203,203,203)"/>
<path d="M6 9h1v1h-1z" fill="rgb(85,0,0)"/>
<path d="M7 9h1v1h-1z" fill="rgb(35,0,0)"/>
<path d="M8 9h1v1h-1z" fill="rgb(26,0,0)"/>
<path d="M9 9h1v1h-1z" fill="rgb(46,0,0)"/>
<path d="M10 9h1v1h-1z" fill="rgb(206,206,206)"/>
<path d="M11 9h1v1h-1z" fill="rgb(219,219,219)"/>
<path d="M12 9h1v1h-1z" fill="rgb(163,163,163)"/>
<path d="M13 9h1v1h-1z" fill="rgb(109,109,109)"/>
<path d="M14 9h1v1h-1z" fill="rgb(114,114,114)"/>
<path d="M15 9h1v1h-1z" fill="rgb(107,107,107)"/>
<path d="M0 10h1v1h-1z" fill="rgb(147,147,147)"/>
<path d="M1 10h1v1h-1z" fill="rgb(192,192,192)"/>
<path d="M2 10h1v1h-1z" fill="rgb(130,130,130)"/>
<path d="M3 10h1v1h-1z" fill="rgb(80,80,80)"/>
<path d="M4 10h1v1h-1z" fill="rgb(207,207,207)"/>
<path d="M5 10h1v1h-1z" fill="rgb(211,211,211)"/>
<path d="M6 10h1v1h-1z" fill="rgb(101,0,0)"/>
<path d="M7 10h1v1h-1z" fill="rgb(61,0,0)"/>
<path d="M8 10h1v1h-1z" fill="rgb(46,0,0)"/>
<path d="M9 10h1v1h-1z" fill="rgb(107,0,0)"/>
<path d="M10 10h1v1h-1z" fill="rgb(220,220,220)"/>
<path d="M11 10h1v2h-1z" fill="rgb(218,218,218)"/>
<path d="M12 10h1v1h-1z" fill="rgb(155,155,155)"/>
<path d="M13 10h1v1h-1z" fill="rgb(104,104,104)"/>
<path d="M14 10h2v1h-2z" fill="rgb(123,123,123)"/>
<path d="M0 11h1v1h-1z" fill="rgb(149,149,149)"/>
<path d="M1 11h1v1h-1z" fill="rgb(190,190,190)"/>
<path d="M2 11h1v1h-1z" fill="rgb(96,96,96)"/>
<path d="M3 11h1v1h-1z" fill="rgb(87,87,87)"/>
<path d="M4 11h1v1h-1z" fill="rgb(213,213,213)"/>
<path d="M5 11h1v1h-1z" fill="rgb(221,221,221)"/>
<path d="M6 11h2v1h-2z" fill="rgb(200,200,200)"/>
<path d="M8 11h1v1h-1z" fill="rgb(198,198,198)"/>
<path d="M9 11h1v1h-1z" fill="rgb(213,213,213)"/>
<path d="M10 11h1v1h-1z" fill="rgb(227,227,227)"/>
<path d="M12 11h1v1h-1z" fill="rgb(130,130,130)"/>
<path d="M13 11h1v1h-1z" fill="rgb(79,79,79)"/>
<path d="M14 11h1v1h-1z" fill="rgb(117,117,117)"/>
<path d="M15 11h1v1h-1z" fill="rgb(121,121,121)"/>
<path d="M0 12h1v1h-1z" fill="rgb(95,95,95)"/>
<path d="M1 12h1v1h-1z" fill="rgb(164,164,164)"/>
<path d="M2 12h1v1h-1z" fill="rgb(79,79,79)"/>
<path d="M3 12h1v1h-1z" fill="rgb(110,110,110)"/>
<path d="M4 12h1v1h-1z" fill="rgb(220,220,220)"/>
<path d="M5 12h1v1h-1z" fill="rgb(228,228,228)"/>
<path d="M6 12h1v1h-1z" fill="rgb(227,227,227)"/>
<path d="M7 12h1v1h-1z" fill="rgb(226,226,226)"/>
<path d="M8 12h1v2h-1z" fill="rgb(227,227,227)"/>
<path d="M9 12h1v2h-1z" fill="rgb(228,228,228)"/>
<path d="M10 12h1v1h-1z" fill="rgb(229,229,229)"/>
<path d="M11 12h1v1h-1z" fill="rgb(220,220,220)"/>
<path d="M12 12h1v1h-1z" fill="rgb(140,140,140)"/>
<path d="M13 12h1v1h-1z" fill="rgb(89,89,89)"/>
<path d="M14 12h1v1h-1z" fill="rgb(109,109,109)"/>
<path d="M15 12h1v1h-1z" fill="rgb(110,110,110)"/>
<path d="M0 13h1v1h-1z" fill="rgb(70,70,70)"/>
<path d="M1 13h1v1h-1z" fill="rgb(104,104,104)"/>
<path d="M2 13h1v1h-1z" fill="rgb(68,68,68)"/>
<path d="M3 13h1v1h-1z" fill="rgb(134,134,134)"/>
<path d="M4 13h1v1h-1z" fill="rgb(219,219,219)"/>
<path d="M5 13h1v1h-1z" fill="rgb(225,225,225)"/>
<path d="M6 13h2v1h-2z" fill="rgb(224,224,224)"/>
<path d="M10 13h1v1h-1z" fill="rgb(227,227,227)"/>
<path d="M11 13h1v1h-1z" fill="rgb(218,218,218)"/>
<path d="M12 13h1v1h-1z" fill="rgb(148,148,148)"/>
<path d="M13 13h1v1h-1z" fill="rgb(97,97,97)"/>
<path d="M14 13h1v1h-1z" fill="rgb(88,88,88)"/>
<path d="M15 13h1v1h-1z" fill="rgb(98,98,98)"/>
<path d="M0 14h1v1h-1z" fill="rgb(58,58,58)"/>
<path d="M1 14h1v1h-1z" fill="rgb(66,66,66)"/>
<path d="M2 14h1v1h-1z" fill="rgb(55,55,55)"/>
<path d="M3 14h1v1h-1z" fill="rgb(124,124,124)"/>
<path d="M4 14h1v1h-1z" fill="rgb(195,195,195)"/>
<path d="M5 14h1v1h-1z" fill="rgb(201,201,201)"/>
<path d="M6 14h1v1h-1z" fill="rgb(207,207,207)"/>
<path d="M7 14h1v1h-1z" fill="rgb(210,210,210)"/>
<path d="M8 14h1v1h-1z" fill="rgb(217,217,217)"/>
<path d="M9 14h1v1h-1z" fill="rgb(219,219,219)"/>
<path d="M10 14h1v1h-1z" fill="rgb(215,215,215)"/>
<path d="M11 14h1v1h-1z" fill="rgb(202,202,202)"/>
<path d="M12 14h1v1h-1z" fill="rgb(104,104,104)"/>
<path d="M13 14h1v1h-1z" fill="rgb(60,60,60)"/>
<path d="M14 14h1v1h-1z" fill="rgb(58,58,58)"/>
<path d="M15 14h1v1h-1z" fill="rgb(79,79,79)"/>
<path d="M0 15h1v1h-1z" fill="rgb(69,69,69)"/>
<path d="M1 15h1v1h-1z" fill="rgb(60,60,60)"/>
<path d="M2 15h1v1h-1z" fill="rgb(64,64,64)"/>
<path d="M3 15h1v1h-1z" fill="rgb(117,117,117)"/>
<path d="M4 15h1v1h-1z" fill="rgb(139,139,139)"/>
<path d="M5 15h1v1h-1z" fill="rgb(160,160,160)"/>
<path d="M6 15h1v1h-1z" fill="rgb(179,179,179)"/>
<path d="M7 15h1v1h-1z" fill="rgb(183,183,183)"/>
<path d="M8 15h1v1h-1z" fill="rgb(187,187,187)"/>
<path d="M9 15h1v1h-1z" fill="rgb(184,184,184)"/>
<path d="M10 15h1v1h-1z" fill="rgb(174,174,174)"/>
<path d="M11 15h1v1h-1z" fill="rgb(145,145,145)"/>
<path d="M12 15h1v1h-1z" fill="rgb(63,63,63)"/>
<path d="M13 15h1v1h-1z" fill="rgb(50,50,50)"/>
<path d="M14 15h1v1h-1z" fill="rgb(53,53,53)"/>
<path d="M15 15h1v1h-1z" fill="rgb(95,95,95)"/>
</svg>
