<?xml version="1.0" encoding="utf-8"?>
<!-- generated at drububu.com  -->
<!DOCTYPE svg PUBLIC "-//W3C//DTD SVG 1.1//EN" "http://www.w3.org/Graphics/SVG/1.1/DTD/svg11.dtd">
<svg version="1.1" preserveAspectRatio="xMinYMin meet" xmlns="http://www.w3.org/2000/svg" xmlns:xlink="http://www.w3.org/1999/xlink" x="0px" y="0px" width="16px" height="16px" viewBox="0 0 16 16">
<path d="M0 0h1v1h-1z" fill="rgb(70,23,106)"/>
<path d="M1 0h1v1h-1z" fill="rgb(75,22,117)"/>
<path d="M2 0h1v1h-1z" fill="rgb(85,19,138)"/>
<path d="M3 0h1v1h-1z" fill="rgb(98,19,166)"/>
<path d="M4 0h1v1h-1z" fill="rgb(105,17,175)"/>
<path d="M5 0h1v1h-1z" fill="rgb(105,18,174)"/>
<path d="M6 0h1v1h-1z" fill="rgb(105,22,172)"/>
<path d="M7 0h1v1h-1z" fill="rgb(102,23,168)"/>
<path d="M8 0h1v1h-1z" fill="rgb(105,21,168)"/>
<path d="M9 0h1v1h-1z" fill="rgb(102,21,173)"/>
<path d="M10 0h1v1h-1z" fill="rgb(103,21,175)"/>
<path d="M11 0h1v1h-1z" fill="rgb(101,20,172)"/>
<path d="M12 0h1v1h-1z" fill="rgb(95,20,155)"/>
<path d="M13 0h1v1h-1z" fill="rgb(84,19,132)"/>
<path d="M14 0h1v1h-1z" fill="rgb(75,24,118)"/>
<path d="M15 0h1v1h-1z" fill="rgb(68,25,104)"/>
<path d="M0 1h1v1h-1z" fill="rgb(69,25,102)"/>
<path d="M1 1h1v1h-1z" fill="rgb(86,20,141)"/>
<path d="M2 1h1v1h-1z" fill="rgb(102,19,172)"/>
<path d="M3 1h1v1h-1z" fill="rgb(104,17,173)"/>
<path d="M4 1h2v1h-2z" fill="rgb(106,19,179)"/>
<path d="M6 1h1v1h-1z" fill="rgb(106,22,169)"/>
<path d="M7 1h1v1h-1z" fill="rgb(113,30,166)"/>
<path d="M8 1h1v1h-1z" fill="rgb(112,29,165)"/>
<path d="M9 1h1v1h-1z" fill="rgb(106,21,173)"/>
<path d="M10 1h2v2h-1v-1h-1z" fill="rgb(106,18,176)"/>
<path d="M12 1h1v1h-1z" fill="rgb(105,18,173)"/>
<path d="M13 1h1v1h-1z" fill="rgb(98,18,163)"/>
<path d="M14 1h1v1h-1z" fill="rgb(85,19,138)"/>
<path d="M15 1h1v1h-1z" fill="rgb(68,24,101)"/>
<path d="M0 2h1v1h-1z" fill="rgb(65,25,101)"/>
<path d="M1 2h1v1h-1z" fill="rgb(85,19,138)"/>
<path d="M2 2h1v1h-1z" fill="rgb(102,17,168)"/>
<path d="M3 2h1v1h-1z" fill="rgb(108,17,176)"/>
<path d="M4 2h1v2h-1z" fill="rgb(106,18,176)"/>
<path d="M5 2h1v1h-1z" fill="rgb(106,19,177)"/>
<path d="M6 2h1v1h-1z" fill="rgb(116,44,154)"/>
<path d="M7 2h1v1h-1z" fill="rgb(150,109,97)"/>
<path d="M8 2h1v1h-1z" fill="rgb(152,116,93)"/>
<path d="M9 2h1v1h-1z" fill="rgb(118,47,149)"/>
<path d="M10 2h1v1h-1z" fill="rgb(107,19,177)"/>
<path d="M12 2h1v1h-1z" fill="rgb(100,17,172)"/>
<path d="M13 2h1v1h-1z" fill="rgb(94,19,159)"/>
<path d="M14 2h1v1h-1z" fill="rgb(82,22,133)"/>
<path d="M15 2h1v1h-1z" fill="rgb(64,25,97)"/>
<path d="M0 3h1v1h-1z" fill="rgb(63,26,91)"/>
<path d="M1 3h1v1h-1z" fill="rgb(75,22,119)"/>
<path d="M2 3h1v1h-1z" fill="rgb(94,20,156)"/>
<path d="M3 3h1v1h-1z" fill="rgb(100,17,165)"/>
<path d="M5 3h1v1h-1z" fill="rgb(106,19,175)"/>
<path d="M6 3h1v1h-1z" fill="rgb(133,73,128)"/>
<path d="M7 3h1v1h-1z" fill="rgb(184,179,62)"/>
<path d="M8 3h1v1h-1z" fill="rgb(187,184,61)"/>
<path d="M9 3h1v1h-1z" fill="rgb(137,77,117)"/>
<path d="M10 3h1v1h-1z" fill="rgb(106,19,173)"/>
<path d="M11 3h1v1h-1z" fill="rgb(100,18,167)"/>
<path d="M12 3h1v1h-1z" fill="rgb(96,20,159)"/>
<path d="M13 3h1v1h-1z" fill="rgb(88,23,145)"/>
<path d="M14 3h1v1h-1z" fill="rgb(70,22,109)"/>
<path d="M15 3h1v1h-1z" fill="rgb(59,26,88)"/>
<path d="M0 4h1v1h-1z" fill="rgb(63,24,91)"/>
<path d="M1 4h1v1h-1z" fill="rgb(70,22,109)"/>
<path d="M2 4h1v1h-1z" fill="rgb(86,21,137)"/>
<path d="M3 4h1v1h-1z" fill="rgb(94,21,153)"/>
<path d="M4 4h1v1h-1z" fill="rgb(98,19,170)"/>
<path d="M5 4h1v1h-1z" fill="rgb(105,18,178)"/>
<path d="M6 4h1v1h-1z" fill="rgb(115,36,159)"/>
<path d="M7 4h1v1h-1z" fill="rgb(140,89,111)"/>
<path d="M8 4h1v1h-1z" fill="rgb(141,92,110)"/>
<path d="M9 4h1v1h-1z" fill="rgb(116,38,155)"/>
<path d="M10 4h1v1h-1z" fill="rgb(102,19,173)"/>
<path d="M11 4h1v1h-1z" fill="rgb(95,20,162)"/>
<path d="M12 4h1v1h-1z" fill="rgb(89,18,147)"/>
<path d="M13 4h1v1h-1z" fill="rgb(79,22,122)"/>
<path d="M14 4h1v1h-1z" fill="rgb(66,24,97)"/>
<path d="M15 4h1v1h-1z" fill="rgb(60,27,90)"/>
<path d="M0 5h1v1h-1z" fill="rgb(62,25,90)"/>
<path d="M1 5h1v1h-1z" fill="rgb(66,24,95)"/>
<path d="M2 5h1v1h-1z" fill="rgb(76,23,119)"/>
<path d="M3 5h1v1h-1z" fill="rgb(86,19,136)"/>
<path d="M4 5h1v1h-1z" fill="rgb(95,21,163)"/>
<path d="M5 5h1v1h-1z" fill="rgb(101,18,171)"/>
<path d="M6 5h1v1h-1z" fill="rgb(105,17,175)"/>
<path d="M7 5h1v1h-1z" fill="rgb(108,24,174)"/>
<path d="M8 5h1v1h-1z" fill="rgb(106,24,176)"/>
<path d="M9 5h1v1h-1z" fill="rgb(105,17,175)"/>
<path d="M10 5h1v1h-1z" fill="rgb(98,18,167)"/>
<path d="M11 5h1v1h-1z" fill="rgb(89,21,147)"/>
<path d="M12 5h1v1h-1z" fill="rgb(80,22,128)"/>
<path d="M13 5h1v1h-1z" fill="rgb(71,25,105)"/>
<path d="M14 5h1v1h-1z" fill="rgb(61,24,89)"/>
<path d="M15 5h1v1h-1z" fill="rgb(60,26,91)"/>
<path d="M0 6h1v1h-1z" fill="rgb(59,26,89)"/>
<path d="M1 6h1v1h-1z" fill="rgb(61,27,92)"/>
<path d="M2 6h1v1h-1z" fill="rgb(68,24,101)"/>
<path d="M3 6h1v1h-1z" fill="rgb(80,22,127)"/>
<path d="M4 6h1v1h-1z" fill="rgb(91,20,151)"/>
<path d="M5 6h1v1h-1z" fill="rgb(99,19,166)"/>
<path d="M6 6h1v1h-1z" fill="rgb(115,36,159)"/>
<path d="M7 6h1v1h-1z" fill="rgb(135,80,118)"/>
<path d="M8 6h1v1h-1z" fill="rgb(136,78,117)"/>
<path d="M9 6h1v1h-1z" fill="rgb(114,32,156)"/>
<path d="M10 6h1v1h-1z" fill="rgb(97,17,162)"/>
<path d="M11 6h1v1h-1z" fill="rgb(88,21,140)"/>
<path d="M12 6h1v1h-1z" fill="rgb(74,21,116)"/>
<path d="M13 6h1v1h-1z" fill="rgb(65,26,98)"/>
<path d="M14 6h1v1h-1z" fill="rgb(61,28,91)"/>
<path d="M15 6h1v1h-1z" fill="rgb(62,24,89)"/>
<path d="M0 7h1v1h-1z" fill="rgb(62,25,88)"/>
<path d="M1 7h1v1h-1z" fill="rgb(59,27,90)"/>
<path d="M2 7h1v1h-1z" fill="rgb(64,24,98)"/>
<path d="M3 7h1v1h-1z" fill="rgb(75,22,117)"/>
<path d="M4 7h1v1h-1z" fill="rgb(88,21,145)"/>
<path d="M5 7h1v1h-1z" fill="rgb(99,20,162)"/>
<path d="M6 7h1v1h-1z" fill="rgb(137,81,114)"/>
<path d="M7 7h1v1h-1z" fill="rgb(185,179,63)"/>
<path d="M8 7h1v1h-1z" fill="rgb(181,177,62)"/>
<path d="M9 7h1v1h-1z" fill="rgb(133,78,119)"/>
<path d="M10 7h1v1h-1z" fill="rgb(95,21,157)"/>
<path d="M11 7h1v1h-1z" fill="rgb(84,21,137)"/>
<path d="M12 7h1v1h-1z" fill="rgb(73,22,112)"/>
<path d="M13 7h1v1h-1z" fill="rgb(62,25,95)"/>
<path d="M14 7h1v1h-1z" fill="rgb(58,26,87)"/>
<path d="M15 7h1v1h-1z" fill="rgb(62,25,90)"/>
<path d="M0 8h1v1h-1z" fill="rgb(62,25,90)"/>
<path d="M1 8h1v1h-1z" fill="rgb(62,25,91)"/>
<path d="M2 8h1v1h-1z" fill="rgb(64,25,95)"/>
<path d="M3 8h1v1h-1z" fill="rgb(74,22,118)"/>
<path d="M4 8h1v1h-1z" fill="rgb(90,20,142)"/>
<path d="M5 8h1v1h-1z" fill="rgb(99,19,164)"/>
<path d="M6 8h1v1h-1z" fill="rgb(134,80,115)"/>
<path d="M7 8h1v1h-1z" fill="rgb(184,181,61)"/>
<path d="M8 8h1v1h-1z" fill="rgb(182,178,62)"/>
<path d="M9 8h1v1h-1z" fill="rgb(132,76,122)"/>
<path d="M10 8h1v1h-1z" fill="rgb(96,21,157)"/>
<path d="M11 8h1v1h-1z" fill="rgb(83,21,135)"/>
<path d="M12 8h1v1h-1z" fill="rgb(73,23,110)"/>
<path d="M13 8h1v1h-1z" fill="rgb(63,24,91)"/>
<path d="M14 8h1v1h-1z" fill="rgb(59,26,88)"/>
<path d="M15 8h1v1h-1z" fill="rgb(61,24,90)"/>
<path d="M0 9h1v1h-1z" fill="rgb(62,25,88)"/>
<path d="M1 9h1v1h-1z" fill="rgb(59,26,88)"/>
<path d="M2 9h1v1h-1z" fill="rgb(64,24,98)"/>
<path d="M3 9h1v1h-1z" fill="rgb(77,23,121)"/>
<path d="M4 9h1v1h-1z" fill="rgb(92,21,150)"/>
<path d="M5 9h1v1h-1z" fill="rgb(98,18,169)"/>
<path d="M6 9h1v1h-1z" fill="rgb(114,35,158)"/>
<path d="M7 9h1v1h-1z" fill="rgb(137,79,117)"/>
<path d="M8 9h1v1h-1z" fill="rgb(135,76,121)"/>
<path d="M9 9h1v1h-1z" fill="rgb(113,34,157)"/>
<path d="M10 9h1v1h-1z" fill="rgb(96,18,162)"/>
<path d="M11 9h1v1h-1z" fill="rgb(87,21,146)"/>
<path d="M12 9h1v1h-1z" fill="rgb(75,22,119)"/>
<path d="M13 9h1v1h-1z" fill="rgb(67,25,98)"/>
<path d="M14 9h1v1h-1z" fill="rgb(59,27,91)"/>
<path d="M15 9h1v1h-1z" fill="rgb(62,25,90)"/>
<path d="M0 10h1v1h-1z" fill="rgb(62,25,90)"/>
<path d="M1 10h1v1h-1z" fill="rgb(64,25,92)"/>
<path d="M2 10h1v1h-1z" fill="rgb(70,22,111)"/>
<path d="M3 10h1v1h-1z" fill="rgb(85,20,135)"/>
<path d="M4 10h1v1h-1z" fill="rgb(93,20,157)"/>
<path d="M5 10h1v1h-1z" fill="rgb(102,19,172)"/>
<path d="M6 10h1v1h-1z" fill="rgb(104,18,177)"/>
<path d="M7 10h1v1h-1z" fill="rgb(108,22,176)"/>
<path d="M8 10h1v1h-1z" fill="rgb(108,23,175)"/>
<path d="M9 10h1v1h-1z" fill="rgb(104,17,173)"/>
<path d="M10 10h1v1h-1z" fill="rgb(101,18,170)"/>
<path d="M11 10h1v1h-1z" fill="rgb(93,20,152)"/>
<path d="M12 10h1v1h-1z" fill="rgb(85,20,133)"/>
<path d="M13 10h1v1h-1z" fill="rgb(71,23,110)"/>
<path d="M14 10h1v1h-1z" fill="rgb(62,25,95)"/>
<path d="M15 10h1v1h-1z" fill="rgb(61,25,86)"/>
<path d="M0 11h1v1h-1z" fill="rgb(61,24,92)"/>
<path d="M1 11h1v1h-1z" fill="rgb(68,23,103)"/>
<path d="M2 11h1v1h-1z" fill="rgb(81,23,128)"/>
<path d="M3 11h1v1h-1z" fill="rgb(93,21,150)"/>
<path d="M4 11h1v1h-1z" fill="rgb(98,18,163)"/>
<path d="M5 11h1v1h-1z" fill="rgb(103,18,171)"/>
<path d="M6 11h1v1h-1z" fill="rgb(117,38,159)"/>
<path d="M7 11h1v1h-1z" fill="rgb(139,87,112)"/>
<path d="M8 11h1v1h-1z" fill="rgb(139,90,108)"/>
<path d="M9 11h1v1h-1z" fill="rgb(115,39,157)"/>
<path d="M10 11h1v1h-1z" fill="rgb(102,17,171)"/>
<path d="M11 11h1v1h-1z" fill="rgb(97,18,165)"/>
<path d="M12 11h1v1h-1z" fill="rgb(91,20,149)"/>
<path d="M13 11h1v1h-1z" fill="rgb(80,22,127)"/>
<path d="M14 11h1v1h-1z" fill="rgb(67,24,103)"/>
<path d="M15 11h1v1h-1z" fill="rgb(62,25,91)"/>
<path d="M0 12h1v1h-1z" fill="rgb(64,25,92)"/>
<path d="M1 12h1v1h-1z" fill="rgb(75,22,118)"/>
<path d="M2 12h1v1h-1z" fill="rgb(91,20,149)"/>
<path d="M3 12h1v1h-1z" fill="rgb(97,18,167)"/>
<path d="M4 12h1v1h-1z" fill="rgb(102,19,172)"/>
<path d="M5 12h1v1h-1z" fill="rgb(105,18,174)"/>
<path d="M6 12h1v1h-1z" fill="rgb(135,74,122)"/>
<path d="M7 12h1v1h-1z" fill="rgb(185,180,63)"/>
<path d="M8 12h1v1h-1z" fill="rgb(185,182,64)"/>
<path d="M9 12h1v1h-1z" fill="rgb(134,75,120)"/>
<path d="M10 12h1v1h-1z" fill="rgb(107,19,177)"/>
<path d="M11 12h1v1h-1z" fill="rgb(102,19,172)"/>
<path d="M12 12h1v1h-1z" fill="rgb(95,19,163)"/>
<path d="M13 12h1v1h-1z" fill="rgb(89,21,147)"/>
<path d="M14 12h1v1h-1z" fill="rgb(76,23,122)"/>
<path d="M15 12h1v1h-1z" fill="rgb(64,25,97)"/>
<path d="M0 13h1v1h-1z" fill="rgb(64,25,95)"/>
<path d="M1 13h1v1h-1z" fill="rgb(84,20,130)"/>
<path d="M2 13h1v1h-1z" fill="rgb(100,17,163)"/>
<path d="M3 13h1v2h-1z" fill="rgb(102,17,171)"/>
<path d="M4 13h1v1h-1z" fill="rgb(106,19,179)"/>
<path d="M5 13h1v1h-1z" fill="rgb(106,18,176)"/>
<path d="M6 13h1v1h-1z" fill="rgb(121,45,154)"/>
<path d="M7 13h1v1h-1z" fill="rgb(151,113,93)"/>
<path d="M8 13h1v1h-1z" fill="rgb(152,115,91)"/>
<path d="M9 13h1v1h-1z" fill="rgb(122,47,150)"/>
<path d="M10 13h1v1h-1z" fill="rgb(106,19,175)"/>
<path d="M11 13h1v2h-1z" fill="rgb(105,18,178)"/>
<path d="M12 13h1v1h-1z" fill="rgb(101,18,173)"/>
<path d="M13 13h1v1h-1z" fill="rgb(98,18,162)"/>
<path d="M14 13h1v1h-1z" fill="rgb(85,20,133)"/>
<path d="M15 13h1v1h-1z" fill="rgb(68,26,99)"/>
<path d="M0 14h1v1h-1z" fill="rgb(65,23,95)"/>
<path d="M1 14h1v1h-1z" fill="rgb(81,21,130)"/>
<path d="M2 14h1v1h-1z" fill="rgb(97,19,160)"/>
<path d="M4 14h1v1h-1z" fill="rgb(105,18,178)"/>
<path d="M5 14h1v1h-1z" fill="rgb(105,18,181)"/>
<path d="M6 14h1v1h-1z" fill="rgb(107,19,174)"/>
<path d="M7 14h1v1h-1z" fill="rgb(112,29,165)"/>
<path d="M8 14h1v1h-1z" fill="rgb(113,30,166)"/>
<path d="M9 14h1v1h-1z" fill="rgb(107,21,175)"/>
<path d="M10 14h1v1h-1z" fill="rgb(107,18,181)"/>
<path d="M12 14h1v1h-1z" fill="rgb(99,19,171)"/>
<path d="M13 14h1v1h-1z" fill="rgb(92,19,151)"/>
<path d="M14 14h1v1h-1z" fill="rgb(80,20,129)"/>
<path d="M15 14h1v1h-1z" fill="rgb(67,25,99)"/>
<path d="M0 15h1v1h-1z" fill="rgb(67,23,100)"/>
<path d="M1 15h1v1h-1z" fill="rgb(68,26,100)"/>
<path d="M2 15h1v1h-1z" fill="rgb(75,22,118)"/>
<path d="M3 15h1v1h-1z" fill="rgb(93,19,155)"/>
<path d="M4 15h1v1h-1z" fill="rgb(102,19,173)"/>
<path d="M5 15h1v1h-1z" fill="rgb(107,18,181)"/>
<path d="M6 15h1v1h-1z" fill="rgb(106,18,176)"/>
<path d="M7 15h3v1h-3z" fill="rgb(105,18,178)"/>
<path d="M10 15h1v1h-1z" fill="rgb(106,18,178)"/>
<path d="M11 15h1v1h-1z" fill="rgb(101,18,170)"/>
<path d="M12 15h1v1h-1z" fill="rgb(85,20,135)"/>
<path d="M13 15h1v1h-1z" fill="rgb(69,24,104)"/>
<path d="M14 15h1v1h-1z" fill="rgb(65,25,101)"/>
<path d="M15 15h1v1h-1z" fill="rgb(66,24,97)"/>
</svg>
