<?xml version="1.0" encoding="UTF-8" standalone="no"?>
<!-- generated at drububu.com  -->

<svg
   xmlns:dc="http://purl.org/dc/elements/1.1/"
   xmlns:cc="http://creativecommons.org/ns#"
   xmlns:rdf="http://www.w3.org/1999/02/22-rdf-syntax-ns#"
   xmlns:svg="http://www.w3.org/2000/svg"
   xmlns="http://www.w3.org/2000/svg"
   xmlns:sodipodi="http://sodipodi.sourceforge.net/DTD/sodipodi-0.dtd"
   xmlns:inkscape="http://www.inkscape.org/namespaces/inkscape"
   version="1.1"
   preserveAspectRatio="xMinYMin meet"
   x="0px"
   y="0px"
   width="16px"
   height="16px"
   viewBox="0 0 16 16"
   id="svg34554"
   inkscape:version="0.48.5 r10040"
   sodipodi:docname="locust.turret.svg">
  <metadata
     id="metadata34754">
    <rdf:RDF>
      <cc:Work
         rdf:about="">
        <dc:format>image/svg+xml</dc:format>
        <dc:type
           rdf:resource="http://purl.org/dc/dcmitype/StillImage" />
      </cc:Work>
    </rdf:RDF>
  </metadata>
  <defs
     id="defs34752" />
  <sodipodi:namedview
     pagecolor="#ffffff"
     bordercolor="#666666"
     borderopacity="1"
     objecttolerance="10"
     gridtolerance="10"
     guidetolerance="10"
     inkscape:pageopacity="0"
     inkscape:pageshadow="2"
     inkscape:window-width="640"
     inkscape:window-height="480"
     id="namedview34750"
     showgrid="false"
     inkscape:zoom="14.75"
     inkscape:cx="8"
     inkscape:cy="8"
     inkscape:window-x="0"
     inkscape:window-y="0"
     inkscape:window-maximized="0"
     inkscape:current-layer="svg34554" />
  <path
     d="M3 4h1v1h-1z"
     fill="rgb(209,220,48)"
     id="path34558" />
  <path
     d="M4 4h1v1h-1z"
     fill="rgb(197,204,48)"
     id="path34560" />
  <path
     d="M11 4h1v1h-1z"
     fill="rgb(201,207,46)"
     id="path34562" />
  <path
     d="M12 4h1v1h-1z"
     fill="rgb(210,218,48)"
     id="path34564" />
  <path
     d="M3 5h1v1h-1z"
     fill="rgb(113,17,140)"
     id="path34566" />
  <path
     d="M4 5h1v1h-1z"
     fill="rgb(114,18,137)"
     id="path34568" />
  <path
     d="M11 5h1v1h-1z"
     fill="rgb(112,18,141)"
     id="path34570" />
  <path
     d="M12 5h1v1h-1z"
     fill="rgb(112,20,137)"
     id="path34572" />
  <path
     d="M3 6h1v1h-1z"
     fill="rgb(109,16,136)"
     id="path34574" />
  <path
     d="M4 6h1v1h-1z"
     fill="rgb(111,19,138)"
     id="path34576" />
  <path
     d="M11 6h1v1h-1z"
     fill="rgb(110,17,137)"
     id="path34578" />
  <path
     d="M12 6h1v1h-1z"
     fill="rgb(110,16,141)"
     id="path34580" />
  <path
     d="M3 7h1v1h-1z"
     fill="rgb(110,19,138)"
     id="path34582" />
  <path
     d="M4 7h1v1h-1z"
     fill="rgb(110,18,140)"
     id="path34584" />
  <path
     d="M11 7h1v1h-1z"
     fill="rgb(110,18,140)"
     id="path34586" />
  <path
     d="M12 7h1v1h-1z"
     fill="rgb(109,17,137)"
     id="path34588" />
  <path
     d="M3 8h1v1h-1z"
     fill="rgb(202,205,47)"
     id="path34590" />
  <path
     d="M4 8h1v1h-1z"
     fill="rgb(196,196,49)"
     id="path34592" />
  <path
     d="M11 8h1v1h-1z"
     fill="rgb(184,172,52)"
     id="path34594" />
  <path
     d="M12 8h1v1h-1z"
     fill="rgb(197,196,48)"
     id="path34596" />
  <path
     d="M3 9h1v1h-1z"
     fill="rgb(152,107,86)"
     id="path34598" />
  <path
     d="M4 9h1v1h-1z"
     fill="rgb(148,102,89)"
     id="path34600" />
  <path
     d="M11 9h1v1h-1z"
     fill="rgb(132,74,106)"
     id="path34602" />
  <path
     d="M12 9h1v1h-1z"
     fill="rgb(141,85,97)"
     id="path34604" />
  <path
     d="M3 10h1v1h-1z"
     fill="rgb(110,16,141)"
     id="path34606" />
  <path
     d="M4 10h1v1h-1z"
     fill="rgb(111,20,139)"
     id="path34608" />
  <path
     d="M11 10h1v1h-1z"
     fill="rgb(106,18,129)"
     id="path34610" />
  <path
     d="M12 10h1v1h-1z"
     fill="rgb(111,14,138)"
     id="path34612" />
  <path
     d="M3 11h1v1h-1z"
     fill="rgb(110,16,132)"
     id="path34614" />
  <path
     d="M4 11h1v1h-1z"
     fill="rgb(96,20,120)"
     id="path34616" />
  <path
     d="M5 11h1v1h-1z"
     fill="rgb(165,36,192)"
     id="path34618" />
  <path
     d="M6 11h1v1h-1z"
     fill="rgb(183,56,220)"
     id="path34620" />
  <path
     d="M7 11h1v1h-1z"
     fill="rgb(176,46,215)"
     id="path34622" />
  <path
     d="M8 11h1v1h-1z"
     fill="rgb(164,34,206)"
     id="path34624" />
  <path
     d="M9 11h1v1h-1z"
     fill="rgb(179,58,212)"
     id="path34626" />
  <path
     d="M10 11h1v1h-1z"
     fill="rgb(152,48,188)"
     id="path34628" />
  <path
     d="M11 11h1v1h-1z"
     fill="rgb(77,18,95)"
     id="path34630" />
  <path
     d="M12 11h1v1h-1z"
     fill="rgb(106,18,131)"
     id="path34632" />
  <path
     d="M2 12h1v1h-1z"
     fill="rgb(185,59,219)"
     id="path34634" />
  <path
     d="M3 12h1v1h-1z"
     fill="rgb(59,19,70)"
     id="path34636" />
  <path
     d="M4 12h1v1h-1z"
     fill="rgb(100,15,124)"
     id="path34638" />
  <path
     d="M5 12h1v1h-1z"
     fill="rgb(151,0,196)"
     id="path34640" />
  <path
     d="M6 12h1v1h-1z"
     fill="rgb(165,0,221)"
     id="path34642" />
  <path
     d="M7 12h1v1h-1z"
     fill="rgb(144,0,182)"
     id="path34644" />
  <path
     d="M8 12h1v1h-1z"
     fill="rgb(143,0,185)"
     id="path34646" />
  <path
     d="M9 12h1v1h-1z"
     fill="rgb(163,0,215)"
     id="path34648" />
  <path
     d="M10 12h1v1h-1z"
     fill="rgb(145,0,187)"
     id="path34650" />
  <path
     d="M11 12h1v1h-1z"
     fill="rgb(103,18,134)"
     id="path34652" />
  <path
     d="M12 12h1v1h-1z"
     fill="rgb(99,18,126)"
     id="path34654" />
  <path
     d="M13 12h1v1h-1z"
     fill="rgb(164,56,196)"
     id="path34656" />
  <path
     d="M1 13h1v1h-1z"
     fill="rgb(162,37,201)"
     id="path34658" />
  <path
     d="M2 13h1v1h-1z"
     fill="rgb(109,6,143)"
     id="path34660" />
  <path
     d="M3 13h1v1h-1z"
     fill="rgb(131,0,169)"
     id="path34662" />
  <path
     d="M4 13h1v1h-1z"
     fill="rgb(115,11,147)"
     id="path34664" />
  <path
     d="M5 13h1v1h-1z"
     fill="rgb(132,0,171)"
     id="path34666" />
  <path
     d="M6 13h1v1h-1z"
     fill="rgb(129,0,161)"
     id="path34668" />
  <path
     d="M7 13h1v1h-1z"
     fill="rgb(110,17,137)"
     id="path34670" />
  <path
     d="M8 13h1v1h-1z"
     fill="rgb(113,12,144)"
     id="path34672" />
  <path
     d="M9 13h1v1h-1z"
     fill="rgb(129,0,165)"
     id="path34674" />
  <path
     d="M10 13h1v1h-1z"
     fill="rgb(112,14,143)"
     id="path34676" />
  <path
     d="M11 13h1v1h-1z"
     fill="rgb(112,16,137)"
     id="path34678" />
  <path
     d="M12 13h1v1h-1z"
     fill="rgb(113,10,145)"
     id="path34680" />
  <path
     d="M13 13h1v1h-1z"
     fill="rgb(150,0,192)"
     id="path34682" />
  <path
     d="M14 13h1v1h-1z"
     fill="rgb(170,41,209)"
     id="path34684" />
  <path
     d="M0 14h1v1h-1z"
     fill="rgb(156,11,198)"
     id="path34686" />
  <path
     d="M1 14h1v1h-1z"
     fill="rgb(145,0,193)"
     id="path34688" />
  <path
     d="M2 14h1v1h-1z"
     fill="rgb(124,2,154)"
     id="path34690" />
  <path
     d="M3 14h1v1h-1z"
     fill="rgb(150,0,198)"
     id="path34692" />
  <path
     d="M4 14h1v1h-1z"
     fill="rgb(147,0,192)"
     id="path34694" />
  <path
     d="M5 14h1v1h-1z"
     fill="rgb(119,8,151)"
     id="path34696" />
  <path
     d="M6 14h1v1h-1z"
     fill="rgb(110,16,141)"
     id="path34698" />
  <path
     d="M7 14h1v1h-1z"
     fill="rgb(113,14,139)"
     id="path34700" />
  <path
     d="M8 14h1v1h-1z"
     fill="rgb(111,17,140)"
     id="path34702" />
  <path
     d="M9 14h1v1h-1z"
     fill="rgb(126,3,160)"
     id="path34704" />
  <path
     d="M10 14h1v1h-1z"
     fill="rgb(146,0,191)"
     id="path34706" />
  <path
     d="M11 14h1v1h-1z"
     fill="rgb(124,4,157)"
     id="path34708" />
  <path
     d="M12 14h1v1h-1z"
     fill="rgb(119,7,152)"
     id="path34710" />
  <path
     d="M13 14h1v1h-1z"
     fill="rgb(125,1,154)"
     id="path34712" />
  <path
     d="M14 14h1v1h-1z"
     fill="rgb(164,0,221)"
     id="path34714" />
  <path
     d="M15 14h1v1h-1z"
     fill="rgb(174,8,218)"
     id="path34716" />
  <path
     d="M0 15h1v1h-1z"
     fill="rgb(149,0,196)"
     id="path34718" />
  <path
     d="M1 15h1v1h-1z"
     fill="rgb(150,0,197)"
     id="path34720" />
  <path
     d="M2 15h1v1h-1z"
     fill="rgb(164,0,216)"
     id="path34722" />
  <path
     d="M3 15h1v1h-1z"
     fill="rgb(143,0,184)"
     id="path34724" />
  <path
     d="M4 15h1v1h-1z"
     fill="rgb(110,18,135)"
     id="path34726" />
  <path
     d="M5 15h1v1h-1z"
     fill="rgb(109,17,141)"
     id="path34728" />
  <path
     d="M6 15h1v1h-1z"
     fill="rgb(112,14,141)"
     id="path34730" />
  <path
     d="M7 15h1v1h-1z"
     fill="rgb(117,9,147)"
     id="path34732" />
  <path
     d="M8 15h1v1h-1z"
     fill="rgb(117,7,150)"
     id="path34734" />
  <path
     d="M9 15h1v1h-1z"
     fill="rgb(113,14,139)"
     id="path34736" />
  <path
     d="M10 15h1v1h-1z"
     fill="rgb(114,15,142)"
     id="path34738" />
  <path
     d="M11 15h1v1h-1z"
     fill="rgb(129,0,165)"
     id="path34740" />
  <path
     d="M12 15h1v1h-1z"
     fill="rgb(169,0,222)"
     id="path34742" />
  <path
     d="M13 15h1v1h-1z"
     fill="rgb(145,0,189)"
     id="path34744" />
  <path
     d="M14 15h1v1h-1z"
     fill="rgb(141,0,186)"
     id="path34746" />
  <path
     d="M15 15h1v1h-1z"
     fill="rgb(166,0,217)"
     id="path34748" />
</svg>
