<?xml version="1.0" encoding="UTF-8" standalone="no"?>
<!-- generated at drububu.com  -->

<svg
   xmlns:dc="http://purl.org/dc/elements/1.1/"
   xmlns:cc="http://creativecommons.org/ns#"
   xmlns:rdf="http://www.w3.org/1999/02/22-rdf-syntax-ns#"
   xmlns:svg="http://www.w3.org/2000/svg"
   xmlns="http://www.w3.org/2000/svg"
   xmlns:sodipodi="http://sodipodi.sourceforge.net/DTD/sodipodi-0.dtd"
   xmlns:inkscape="http://www.inkscape.org/namespaces/inkscape"
   version="1.1"
   preserveAspectRatio="xMinYMin meet"
   x="0px"
   y="0px"
   width="16px"
   height="16px"
   viewBox="0 0 16 16"
   id="svg23038"
   inkscape:version="0.48.5 r10040"
   sodipodi:docname="rebellion.turret.svg">
  <metadata
     id="metadata23208">
    <rdf:RDF>
      <cc:Work
         rdf:about="">
        <dc:format>image/svg+xml</dc:format>
        <dc:type
           rdf:resource="http://purl.org/dc/dcmitype/StillImage" />
      </cc:Work>
    </rdf:RDF>
  </metadata>
  <defs
     id="defs23206" />
  <sodipodi:namedview
     pagecolor="#ffffff"
     bordercolor="#666666"
     borderopacity="1"
     objecttolerance="10"
     gridtolerance="10"
     guidetolerance="10"
     inkscape:pageopacity="0"
     inkscape:pageshadow="2"
     inkscape:window-width="640"
     inkscape:window-height="480"
     id="namedview23204"
     showgrid="false"
     inkscape:zoom="14.75"
     inkscape:cx="8"
     inkscape:cy="8"
     inkscape:window-x="0"
     inkscape:window-y="0"
     inkscape:window-maximized="0"
     inkscape:current-layer="svg23038" />
  <path
     d="M7 2h2v1h1v1h-2v1h-1v-1h-1v-1h1z"
     fill="rgb(47,31,17)"
     id="path23042" />
  <path
     d="M6 4h1v1h-1z"
     fill="rgb(48,31,18)"
     id="path23044" />
  <path
     d="M8 4h1v1h-1z"
     fill="rgb(49,32,17)"
     id="path23046" />
  <path
     d="M9 4h1v1h-1z"
     fill="rgb(45,31,18)"
     id="path23048" />
  <path
     d="M6 5h1v1h-1z"
     fill="rgb(68,42,20)"
     id="path23050" />
  <path
     d="M7 5h1v1h-1z"
     fill="rgb(90,52,23)"
     id="path23052" />
  <path
     d="M8 5h1v1h-1z"
     fill="rgb(87,51,23)"
     id="path23054" />
  <path
     d="M9 5h1v1h-1z"
     fill="rgb(59,39,21)"
     id="path23056" />
  <path
     d="M5 6h1v1h-1z"
     fill="rgb(56,36,19)"
     id="path23058" />
  <path
     d="M6 6h1v1h-1z"
     fill="rgb(69,44,21)"
     id="path23060" />
  <path
     d="M7 6h1v1h-1z"
     fill="rgb(88,53,22)"
     id="path23062" />
  <path
     d="M8 6h1v1h-1z"
     fill="rgb(87,50,22)"
     id="path23064" />
  <path
     d="M9 6h1v1h-1z"
     fill="rgb(67,41,20)"
     id="path23066" />
  <path
     d="M10 6h1v1h-1z"
     fill="rgb(58,37,19)"
     id="path23068" />
  <path
     d="M5 7h1v1h-1z"
     fill="rgb(66,40,20)"
     id="path23070" />
  <path
     d="M6 7h1v1h-1z"
     fill="rgb(53,35,19)"
     id="path23072" />
  <path
     d="M7 7h1v1h-1z"
     fill="rgb(64,41,20)"
     id="path23074" />
  <path
     d="M8 7h1v1h-1z"
     fill="rgb(77,47,21)"
     id="path23076" />
  <path
     d="M9 7h1v1h-1z"
     fill="rgb(71,44,20)"
     id="path23078" />
  <path
     d="M10 7h1v1h-1z"
     fill="rgb(82,46,22)"
     id="path23080" />
  <path
     d="M5 8h1v1h-1z"
     fill="rgb(55,34,19)"
     id="path23082" />
  <path
     d="M6 8h1v1h-1z"
     fill="rgb(51,34,19)"
     id="path23084" />
  <path
     d="M7 8h1v1h-1z"
     fill="rgb(61,39,20)"
     id="path23086" />
  <path
     d="M8 8h1v1h-1z"
     fill="rgb(77,47,22)"
     id="path23088" />
  <path
     d="M9 8h1v1h-1z"
     fill="rgb(68,42,19)"
     id="path23090" />
  <path
     d="M10 8h1v1h-1z"
     fill="rgb(76,46,21)"
     id="path23092" />
  <path
     d="M5 9h1v1h-1z"
     fill="rgb(58,38,20)"
     id="path23094" />
  <path
     d="M6 9h1v1h-1z"
     fill="rgb(66,41,21)"
     id="path23096" />
  <path
     d="M7 9h1v1h-1z"
     fill="rgb(68,41,21)"
     id="path23098" />
  <path
     d="M8 9h1v1h-1z"
     fill="rgb(75,47,22)"
     id="path23100" />
  <path
     d="M9 9h1v1h-1z"
     fill="rgb(70,42,20)"
     id="path23102" />
  <path
     d="M10 9h1v1h-1z"
     fill="rgb(70,43,20)"
     id="path23104" />
  <path
     d="M5 10h1v1h-1z"
     fill="rgb(56,36,19)"
     id="path23106" />
  <path
     d="M6 10h1v1h-1z"
     fill="rgb(75,47,22)"
     id="path23108" />
  <path
     d="M7 10h1v1h-1z"
     fill="rgb(64,41,19)"
     id="path23110" />
  <path
     d="M8 10h1v1h-1z"
     fill="rgb(70,43,20)"
     id="path23112" />
  <path
     d="M9 10h1v1h-1z"
     fill="rgb(83,50,21)"
     id="path23114" />
  <path
     d="M10 10h1v1h-1z"
     fill="rgb(91,54,22)"
     id="path23116" />
  <path
     d="M4 11h1v1h-1z"
     fill="rgb(61,37,20)"
     id="path23118" />
  <path
     d="M5 11h1v1h-1z"
     fill="rgb(67,40,20)"
     id="path23120" />
  <path
     d="M6 11h1v1h-1z"
     fill="rgb(89,53,23)"
     id="path23122" />
  <path
     d="M7 11h1v1h-1z"
     fill="rgb(100,56,23)"
     id="path23124" />
  <path
     d="M8 11h2v1h-2z"
     fill="rgb(101,58,23)"
     id="path23126" />
  <path
     d="M10 11h1v1h-1z"
     fill="rgb(96,58,23)"
     id="path23128" />
  <path
     d="M11 11h1v1h-1z"
     fill="rgb(59,37,19)"
     id="path23130" />
  <path
     d="M4 12h1v1h-1z"
     fill="rgb(49,32,17)"
     id="path23132" />
  <path
     d="M5 12h1v1h-1z"
     fill="rgb(74,45,22)"
     id="path23134" />
  <path
     d="M6 12h1v1h-1z"
     fill="rgb(67,42,19)"
     id="path23136" />
  <path
     d="M7 12h1v1h-1z"
     fill="rgb(85,50,22)"
     id="path23138" />
  <path
     d="M8 12h1v1h-1z"
     fill="rgb(94,52,23)"
     id="path23140" />
  <path
     d="M9 12h1v1h-1z"
     fill="rgb(61,39,18)"
     id="path23142" />
  <path
     d="M10 12h1v1h-1z"
     fill="rgb(80,49,23)"
     id="path23144" />
  <path
     d="M11 12h1v1h-1z"
     fill="rgb(46,31,18)"
     id="path23146" />
  <path
     d="M4 13h1v1h-1z"
     fill="rgb(57,36,19)"
     id="path23148" />
  <path
     d="M5 13h1v1h-1z"
     fill="rgb(84,51,23)"
     id="path23150" />
  <path
     d="M6 13h1v1h-1z"
     fill="rgb(75,45,20)"
     id="path23152" />
  <path
     d="M7 13h1v1h-1z"
     fill="rgb(77,47,22)"
     id="path23154" />
  <path
     d="M8 13h1v1h-1z"
     fill="rgb(86,50,23)"
     id="path23156" />
  <path
     d="M9 13h1v1h-1z"
     fill="rgb(59,38,18)"
     id="path23158" />
  <path
     d="M10 13h1v1h-1z"
     fill="rgb(94,55,23)"
     id="path23160" />
  <path
     d="M11 13h1v1h-1z"
     fill="rgb(85,51,23)"
     id="path23162" />
  <path
     d="M3 14h1v1h-1z"
     fill="rgb(55,36,19)"
     id="path23164" />
  <path
     d="M4 14h1v1h-1z"
     fill="rgb(68,42,20)"
     id="path23166" />
  <path
     d="M5 14h1v1h-1z"
     fill="rgb(78,50,22)"
     id="path23168" />
  <path
     d="M6 14h1v1h-1z"
     fill="rgb(78,45,21)"
     id="path23170" />
  <path
     d="M7 14h1v1h-1z"
     fill="rgb(92,54,23)"
     id="path23172" />
  <path
     d="M8 14h1v1h-1z"
     fill="rgb(89,53,22)"
     id="path23174" />
  <path
     d="M9 14h1v1h-1z"
     fill="rgb(90,55,22)"
     id="path23176" />
  <path
     d="M10 14h1v1h-1z"
     fill="rgb(107,63,24)"
     id="path23178" />
  <path
     d="M11 14h1v1h-1z"
     fill="rgb(75,46,21)"
     id="path23180" />
  <path
     d="M12 14h1v1h-1z"
     fill="rgb(50,32,18)"
     id="path23182" />
  <path
     d="M3 15h1v1h-1z"
     fill="rgb(54,35,19)"
     id="path23184" />
  <path
     d="M4 15h1v1h-1z"
     fill="rgb(78,48,23)"
     id="path23186" />
  <path
     d="M5 15h1v1h-1z"
     fill="rgb(80,49,22)"
     id="path23188" />
  <path
     d="M6 15h1v1h-1z"
     fill="rgb(63,39,20)"
     id="path23190" />
  <path
     d="M7 15h1v1h-1z"
     fill="rgb(71,44,21)"
     id="path23192" />
  <path
     d="M8 15h1v1h-1z"
     fill="rgb(74,45,20)"
     id="path23194" />
  <path
     d="M9 15h1v1h-1z"
     fill="rgb(92,54,22)"
     id="path23196" />
  <path
     d="M10 15h1v1h-1z"
     fill="rgb(107,60,24)"
     id="path23198" />
  <path
     d="M11 15h1v1h-1z"
     fill="rgb(72,43,20)"
     id="path23200" />
  <path
     d="M12 15h1v1h-1z"
     fill="rgb(54,34,19)"
     id="path23202" />
</svg>
