<?xml version="1.0" encoding="utf-8"?>
<!-- generated at drububu.com  -->
<!DOCTYPE svg PUBLIC "-//W3C//DTD SVG 1.1//EN" "http://www.w3.org/Graphics/SVG/1.1/DTD/svg11.dtd">
<svg version="1.1" preserveAspectRatio="xMinYMin meet" xmlns="http://www.w3.org/2000/svg" xmlns:xlink="http://www.w3.org/1999/xlink" x="0px" y="0px" width="16px" height="16px" viewBox="0 0 16 16">
<path d="M0 0h16v16h-4v-2h-1v-2h-1v-11h-1v6h-2v-6h-1v11h-1v2h-1v2h-4z" fill="rgb(0,0,0)"/>
<path d="M6 1h1v1h-1z" fill="rgb(58,56,56)"/>
<path d="M9 1h1v1h-1z" fill="rgb(58,56,56)"/>
<path d="M6 2h1v1h-1z" fill="rgb(78,78,78)"/>
<path d="M9 2h1v1h-1z" fill="rgb(78,78,78)"/>
<path d="M6 3h1v1h-1z" fill="rgb(89,89,89)"/>
<path d="M9 3h1v1h-1z" fill="rgb(89,89,89)"/>
<path d="M6 4h1v2h-1z" fill="rgb(96,93,93)"/>
<path d="M9 4h1v2h-1z" fill="rgb(96,93,93)"/>
<path d="M6 6h1v2h-1z" fill="rgb(89,89,89)"/>
<path d="M9 6h1v2h-1z" fill="rgb(89,89,89)"/>
<path d="M7 7h2v1h-2z" fill="rgb(100,98,98)"/>
<path d="M6 8h1v1h-1z" fill="rgb(100,98,98)"/>
<path d="M7 8h2v1h-2z" fill="rgb(110,110,110)"/>
<path d="M9 8h1v1h-1z" fill="rgb(100,98,98)"/>
<path d="M6 9h1v2h-1z" fill="rgb(78,78,78)"/>
<path d="M7 9h2v1h-2z" fill="rgb(128,34,17)"/>
<path d="M9 9h1v2h-1z" fill="rgb(78,78,78)"/>
<path d="M7 10h2v1h-2z" fill="rgb(89,89,89)"/>
<path d="M6 11h1v1h-1z" fill="rgb(68,68,68)"/>
<path d="M7 11h2v1h-2z" fill="rgb(78,78,78)"/>
<path d="M9 11h1v1h-1z" fill="rgb(68,68,68)"/>
<path d="M5 12h1v1h-1z" fill="rgb(78,78,78)"/>
<path d="M6 12h1v1h-1z" fill="rgb(89,89,89)"/>
<path d="M7 12h2v1h-2z" fill="rgb(110,110,110)"/>
<path d="M9 12h1v1h-1z" fill="rgb(89,89,89)"/>
<path d="M10 12h1v1h-1z" fill="rgb(78,78,78)"/>
<path d="M5 13h1v1h-1z" fill="rgb(58,56,56)"/>
<path d="M6 13h4v1h-4z" fill="rgb(78,78,78)"/>
<path d="M10 13h1v1h-1z" fill="rgb(58,56,56)"/>
<path d="M4 14h1v1h-1z" fill="rgb(78,78,78)"/>
<path d="M5 14h1v1h-1z" fill="rgb(89,89,89)"/>
<path d="M6 14h1v1h-1z" fill="rgb(96,93,93)"/>
<path d="M7 14h2v1h-2z" fill="rgb(110,110,110)"/>
<path d="M9 14h1v1h-1z" fill="rgb(96,93,93)"/>
<path d="M10 14h1v1h-1z" fill="rgb(89,89,89)"/>
<path d="M11 14h1v1h-1z" fill="rgb(78,78,78)"/>
<path d="M4 15h1v1h-1z" fill="rgb(58,56,56)"/>
<path d="M5 15h6v1h-6z" fill="rgb(78,78,78)"/>
<path d="M11 15h1v1h-1z" fill="rgb(58,56,56)"/>
</svg>
