<?xml version="1.0" encoding="utf-8"?>
<!-- generated at drububu.com  -->
<!DOCTYPE svg PUBLIC "-//W3C//DTD SVG 1.1//EN" "http://www.w3.org/Graphics/SVG/1.1/DTD/svg11.dtd">
<svg version="1.1" preserveAspectRatio="xMinYMin meet" xmlns="http://www.w3.org/2000/svg" xmlns:xlink="http://www.w3.org/1999/xlink" x="0px" y="0px" width="64px" height="64px" viewBox="0 0 64 64">
<path d="M0 0h3v1h-1v1h-1v1h-1z" fill="rgb(0,0,0)"/>
<path d="M3 0h26v1h1v1h1v1h1v-3h4v1h1v1h1v1h1v-1h1v-1h3v-1h10v1h3v1h1v1h1v-1h1
	v-1h1v-1h4v4h-1v1h-1v1h-1v1h1v1h1v3h1v10h-1v3h-1v1h-1v1h1v1h1v1h1v4h-4v-1h-1v-1
	h-1v-1h-1v1h-1v1h-3v1h1v1h3v1h2v1h2v2h1v2h1v3h1v12h-1v3h-1v2h-1v2h-2v1h-2v1h-3
	v1h-12v-1h-3v-1h-2v-1h-2v-2h-1v-2h-1v-3h-1v7h-1v1h-1v1h-1v1h-26v-1h-1v-1h-1v-1
	h-1v-26h1v-1h1v-1h1v-2h-1v-1h-1v-1h-1v-26h1v-1h1v-1h1z" fill="rgb(54,54,54)"/>
<path d="M29 0h3v3h-1v-1h-1v-1h-1z" fill="rgb(0,0,0)"/>
<path d="M36 0h7v1h-3v1h-1v1h-1v-1h-1v-1h-1z" fill="rgb(0,0,0)"/>
<path d="M53 0h7v1h-1v1h-1v1h-1v-1h-1v-1h-3z" fill="rgb(0,0,0)"/>
<path d="M4 1h10v4h1v2h-1v-1h-1v1h-1v-1h-1v1h-1v-1h-1v1h-1v-1h-1v1h-1v1h1v1h-1
	v1h1v1h-1v1h1v1h-1v1h1v1h-2v-1h-4v-10h1v-1h1v-1h1z" fill="rgb(51,120,130)"/>
<path d="M18 1h10v1h1v1h1v1h1v10h-4v1h-2v-1h1v-1h-1v-1h1v-1h-1v-1h1v-1h-1v-1h1
	v-1h-1v-1h-1v1h-1v-1h-1v1h-1v-1h-1v1h-1v-1h-1v1h-1v-2h1z" fill="rgb(51,120,130)"/>
<path d="M34 1h1v1h-1z" fill="rgb(189,184,37)"/>
<path d="M46 1h4v1h3v1h2v1h2v1h1v-1h1v1h1v1h-1v1h1v2h1v2h1v3h1v4h-1v3h-1v2h-1v2
	h-1v1h1v1h-1v1h-1v-1h-1v1h-2v1h-2v1h-3v1h-4v-1h-3v-1h-2v-1h-2v-1h-1v1h-1v-1h-1
	v-1h1v-1h-1v-2h-1v-2h-1v-3h-1v-4h1v-3h1v-2h1v-2h1v-1h-1v-1h1v-1h1v1h1v-1h2v-1
	h2v-1h3z" fill="rgb(189,184,37)"/>
<path d="M61 1h1v1h-1z" fill="rgb(189,184,37)"/>
<path d="M7 2h1v3h-1z" fill="rgb(54,54,54)"/>
<path d="M9 2h1v1h-1z" fill="rgb(54,54,54)"/>
<path d="M11 2h1v1h-1z" fill="rgb(54,54,54)"/>
<path d="M20 2h1v1h-1z" fill="rgb(54,54,54)"/>
<path d="M22 2h1v1h-1z" fill="rgb(54,54,54)"/>
<path d="M24 2h1v3h-1z" fill="rgb(54,54,54)"/>
<path d="M33 2h1v1h-1z" fill="rgb(189,184,37)"/>
<path d="M34 2h1v1h-1z" fill="rgb(54,54,54)"/>
<path d="M35 2h1v1h-1z" fill="rgb(189,184,37)"/>
<path d="M60 2h1v1h-1z" fill="rgb(189,184,37)"/>
<path d="M61 2h1v1h-1z" fill="rgb(54,54,54)"/>
<path d="M62 2h1v1h-1z" fill="rgb(189,184,37)"/>
<path d="M15 3h2v1h-2z" fill="rgb(0,0,0)"/>
<path d="M34 3h1v1h-1z" fill="rgb(189,184,37)"/>
<path d="M61 3h1v1h-1z" fill="rgb(189,184,37)"/>
<path d="M9 4h1v1h-1z" fill="rgb(54,54,54)"/>
<path d="M11 4h1v1h-1z" fill="rgb(54,54,54)"/>
<path d="M20 4h1v1h-1z" fill="rgb(54,54,54)"/>
<path d="M22 4h1v1h-1z" fill="rgb(54,54,54)"/>
<path d="M32 4h1v1h1v1h1v1h-1v1h-1v3h-1z" fill="rgb(0,0,0)"/>
<path d="M63 4h1v7h-1v-3h-1v-1h-1v-1h1v-1h1z" fill="rgb(0,0,0)"/>
<path d="M38 6h1v1h-1z" fill="rgb(54,54,54)"/>
<path d="M57 6h1v1h-1z" fill="rgb(54,54,54)"/>
<path d="M2 7h3v1h-3z" fill="rgb(54,54,54)"/>
<path d="M27 7h3v1h-3z" fill="rgb(54,54,54)"/>
<path d="M39 7h1v1h-1z" fill="rgb(54,54,54)"/>
<path d="M45 7h6v1h2v1h2v1h2v1h1v1h1v1h1v1h1v4h-1v1h-1v1h-1v1h-1v1h-2v1h-2v1h-2
	v1h-6v-1h-2v-1h-2v-1h-2v-1h-1v-1h-1v-1h-1v-1h-1v-4h1v-1h1v-1h1v-1h1v-1h2v-1h2
	v-1h2z" fill="rgb(54,54,54)"/>
<path d="M56 7h1v1h-1z" fill="rgb(54,54,54)"/>
<path d="M8 8h1v1h-1z" fill="rgb(51,120,130)"/>
<path d="M10 8h3v1h1v1h1v2h-2v-1h-1v-1h-1v-1h-1z" fill="rgb(51,120,130)"/>
<path d="M14 8h1v1h-1z" fill="rgb(51,120,130)"/>
<path d="M17 8h1v1h-1z" fill="rgb(51,120,130)"/>
<path d="M19 8h3v1h-1v1h-1v1h-1v1h-2v-2h1v-1h1z" fill="rgb(51,120,130)"/>
<path d="M23 8h1v1h-1z" fill="rgb(51,120,130)"/>
<path d="M2 9h1v1h-1z" fill="rgb(54,54,54)"/>
<path d="M4 9h1v1h-1z" fill="rgb(54,54,54)"/>
<path d="M9 9h1v1h-1z" fill="rgb(51,120,130)"/>
<path d="M10 9h1v1h-1z" fill="rgb(54,54,54)"/>
<path d="M14 9h1v1h-1z" fill="rgb(54,54,54)"/>
<path d="M15 9h2v1h-2z" fill="rgb(51,120,130)"/>
<path d="M17 9h1v1h-1z" fill="rgb(54,54,54)"/>
<path d="M21 9h1v1h-1z" fill="rgb(54,54,54)"/>
<path d="M22 9h1v1h-1z" fill="rgb(51,120,130)"/>
<path d="M27 9h1v1h-1z" fill="rgb(54,54,54)"/>
<path d="M29 9h1v1h-1z" fill="rgb(54,54,54)"/>
<path d="M45 9h6v1h2v1h2v1h1v1h1v6h-1v1h-1v1h-2v1h-2v1h-6v-1h-2v-1h-2v-1h-1v-1
	h-1v-6h1v-1h1v-1h2v-1h2z" fill="rgb(189,184,37)"/>
<path d="M8 10h1v1h1v1h1v1h1v2h-2v-1h-1v-1h-1z" fill="rgb(51,120,130)"/>
<path d="M9 10h1v1h-1z" fill="rgb(54,54,54)"/>
<path d="M10 10h1v1h-1z" fill="rgb(51,120,130)"/>
<path d="M11 10h1v1h-1z" fill="rgb(54,54,54)"/>
<path d="M15 10h2v2h2v-1h1v1h1v1h-1v2h2v2h-2v2h1v1h-1v1h-1v-1h-2v2h-2v-2h-2v1
	h-1v-1h-1v-1h1v-2h-2v-2h2v-2h-1v-1h1v-1h1v1h2z" fill="rgb(54,54,54)"/>
<path d="M20 10h1v1h-1z" fill="rgb(54,54,54)"/>
<path d="M21 10h1v1h-1z" fill="rgb(51,120,130)"/>
<path d="M22 10h1v1h-1z" fill="rgb(54,54,54)"/>
<path d="M23 10h1v3h-1v1h-1v1h-2v-2h1v-1h1v-1h1z" fill="rgb(51,120,130)"/>
<path d="M46 10h4v1h2v1h2v1h1v1h1v4h-1v1h-1v1h-2v1h-2v1h-4v-1h-2v-1h-2v-1h-1v-1
	h-1v-4h1v-1h1v-1h2v-1h2z" fill="rgb(54,54,54)"/>
<path d="M2 11h1v1h-1z" fill="rgb(54,54,54)"/>
<path d="M4 11h1v1h-1z" fill="rgb(54,54,54)"/>
<path d="M10 11h1v1h-1z" fill="rgb(54,54,54)"/>
<path d="M11 11h1v1h-1z" fill="rgb(51,120,130)"/>
<path d="M20 11h1v1h-1z" fill="rgb(51,120,130)"/>
<path d="M21 11h1v1h-1z" fill="rgb(54,54,54)"/>
<path d="M27 11h1v1h-1z" fill="rgb(54,54,54)"/>
<path d="M29 11h1v1h-1z" fill="rgb(54,54,54)"/>
<path d="M47 11h2v1h2v1h2v1h1v1h1v2h-1v1h-1v1h-2v1h-2v1h-2v-1h-2v-1h-2v-1h-1v-1
	h-1v-2h1v-1h1v-1h2v-1h2z" fill="rgb(189,184,37)"/>
<path d="M46 13h4v1h1v1h2v2h-2v1h-1v1h-4v-1h-1v-1h-2v-2h2v-1h1z" fill="rgb(54,54,54)"/>
<path d="M8 14h1v1h-1z" fill="rgb(51,120,130)"/>
<path d="M9 14h1v1h-1z" fill="rgb(54,54,54)"/>
<path d="M15 14h2v1h-2z" fill="rgb(51,120,130)"/>
<path d="M22 14h1v1h-1z" fill="rgb(54,54,54)"/>
<path d="M23 14h1v1h-1z" fill="rgb(51,120,130)"/>
<path d="M47 14h2v1h-2z" fill="rgb(189,184,37)"/>
<path d="M3 15h1v2h-1z" fill="rgb(0,0,0)"/>
<path d="M9 15h1v2h-1z" fill="rgb(51,120,130)"/>
<path d="M14 15h1v2h-1z" fill="rgb(51,120,130)"/>
<path d="M15 15h2v2h-2z" fill="rgb(54,54,54)"/>
<path d="M17 15h1v2h-1z" fill="rgb(51,120,130)"/>
<path d="M22 15h1v2h-1z" fill="rgb(51,120,130)"/>
<path d="M28 15h1v2h-1z" fill="rgb(0,0,0)"/>
<path d="M46 15h1v2h-1z" fill="rgb(189,184,37)"/>
<path d="M47 15h2v2h-2z" fill="rgb(54,54,54)"/>
<path d="M49 15h1v2h-1z" fill="rgb(189,184,37)"/>
<path d="M5 17h2v1h-1v1h1v1h-1v1h1v1h-1v1h1v1h-1v1h1v1h1v-1h1v1h1v-1h1v1h1v-1h1
	v1h1v-1h1v2h-1v3h4v-3h-1v-2h1v1h1v-1h1v1h1v-1h1v1h1v-1h1v1h1v-1h1v-1h-1v-1h1
	v-1h-1v-1h1v-1h-1v-1h1v-1h-1v-1h2v1h4v10h-1v1h-1v1h-1v1h-24v-1h-1v-1h-1v-1h-1
	v-10h4z" fill="rgb(51,120,130)"/>
<path d="M8 17h1v1h-1z" fill="rgb(51,120,130)"/>
<path d="M9 17h1v1h-1z" fill="rgb(54,54,54)"/>
<path d="M10 17h2v2h-1v1h-1v1h-1v1h-1v-3h1v-1h1z" fill="rgb(51,120,130)"/>
<path d="M15 17h2v1h-2z" fill="rgb(51,120,130)"/>
<path d="M20 17h2v1h1v1h1v3h-1v-1h-1v-1h-1v-1h-1z" fill="rgb(51,120,130)"/>
<path d="M22 17h1v1h-1z" fill="rgb(54,54,54)"/>
<path d="M23 17h1v1h-1z" fill="rgb(51,120,130)"/>
<path d="M47 17h2v1h-2z" fill="rgb(189,184,37)"/>
<path d="M2 20h1v1h-1z" fill="rgb(54,54,54)"/>
<path d="M4 20h1v1h-1z" fill="rgb(54,54,54)"/>
<path d="M10 20h1v1h-1z" fill="rgb(54,54,54)"/>
<path d="M11 20h1v1h-1z" fill="rgb(51,120,130)"/>
<path d="M13 20h2v2h-1v1h-1v1h-3v-1h1v-1h1v-1h1z" fill="rgb(51,120,130)"/>
<path d="M17 20h2v1h1v1h1v1h1v1h-3v-1h-1v-1h-1z" fill="rgb(51,120,130)"/>
<path d="M20 20h1v1h-1z" fill="rgb(51,120,130)"/>
<path d="M21 20h1v1h-1z" fill="rgb(54,54,54)"/>
<path d="M27 20h1v1h-1z" fill="rgb(54,54,54)"/>
<path d="M29 20h1v1h-1z" fill="rgb(54,54,54)"/>
<path d="M9 21h1v1h-1z" fill="rgb(54,54,54)"/>
<path d="M10 21h1v1h-1z" fill="rgb(51,120,130)"/>
<path d="M11 21h1v1h-1z" fill="rgb(54,54,54)"/>
<path d="M20 21h1v1h-1z" fill="rgb(54,54,54)"/>
<path d="M21 21h1v1h-1z" fill="rgb(51,120,130)"/>
<path d="M22 21h1v1h-1z" fill="rgb(54,54,54)"/>
<path d="M32 21h1v3h1v1h1v1h-1v1h-1v1h-1z" fill="rgb(0,0,0)"/>
<path d="M63 21h1v7h-1v-1h-1v-1h-1v-1h1v-1h1z" fill="rgb(0,0,0)"/>
<path d="M2 22h1v1h-1z" fill="rgb(54,54,54)"/>
<path d="M4 22h1v1h-1z" fill="rgb(54,54,54)"/>
<path d="M9 22h1v1h-1z" fill="rgb(51,120,130)"/>
<path d="M10 22h1v1h-1z" fill="rgb(54,54,54)"/>
<path d="M14 22h1v1h-1z" fill="rgb(54,54,54)"/>
<path d="M15 22h2v1h-2z" fill="rgb(51,120,130)"/>
<path d="M17 22h1v1h-1z" fill="rgb(54,54,54)"/>
<path d="M21 22h1v1h-1z" fill="rgb(54,54,54)"/>
<path d="M22 22h1v1h-1z" fill="rgb(51,120,130)"/>
<path d="M27 22h1v1h-1z" fill="rgb(54,54,54)"/>
<path d="M29 22h1v1h-1z" fill="rgb(54,54,54)"/>
<path d="M8 23h1v1h-1z" fill="rgb(51,120,130)"/>
<path d="M14 23h1v1h-1z" fill="rgb(51,120,130)"/>
<path d="M17 23h1v1h-1z" fill="rgb(51,120,130)"/>
<path d="M23 23h1v1h-1z" fill="rgb(51,120,130)"/>
<path d="M2 24h3v1h-3z" fill="rgb(54,54,54)"/>
<path d="M27 24h3v1h-3z" fill="rgb(54,54,54)"/>
<path d="M39 24h1v1h-1z" fill="rgb(54,54,54)"/>
<path d="M56 24h1v1h-1z" fill="rgb(54,54,54)"/>
<path d="M38 25h1v1h-1z" fill="rgb(54,54,54)"/>
<path d="M57 25h1v1h-1z" fill="rgb(54,54,54)"/>
<path d="M7 27h1v3h-1z" fill="rgb(54,54,54)"/>
<path d="M9 27h1v1h-1z" fill="rgb(54,54,54)"/>
<path d="M11 27h1v1h-1z" fill="rgb(54,54,54)"/>
<path d="M20 27h1v1h-1z" fill="rgb(54,54,54)"/>
<path d="M22 27h1v1h-1z" fill="rgb(54,54,54)"/>
<path d="M24 27h1v3h-1z" fill="rgb(54,54,54)"/>
<path d="M15 28h2v1h-2z" fill="rgb(0,0,0)"/>
<path d="M34 28h1v1h-1z" fill="rgb(189,184,37)"/>
<path d="M61 28h1v1h-1z" fill="rgb(189,184,37)"/>
<path d="M0 29h1v1h1v1h1v2h-1v1h-1v1h-1z" fill="rgb(0,0,0)"/>
<path d="M9 29h1v1h-1z" fill="rgb(54,54,54)"/>
<path d="M11 29h1v1h-1z" fill="rgb(54,54,54)"/>
<path d="M20 29h1v1h-1z" fill="rgb(54,54,54)"/>
<path d="M22 29h1v1h-1z" fill="rgb(54,54,54)"/>
<path d="M31 29h1v3h4v-1h1v-1h1v-1h1v1h1v1h3v1h-1v1h-3v1h-2v1h-2v2h-1v2h-1v3h-1
	v-7h-1v-1h-1v-1h-1v-2h1v-1h1z" fill="rgb(0,0,0)"/>
<path d="M33 29h1v1h-1z" fill="rgb(189,184,37)"/>
<path d="M34 29h1v1h-1z" fill="rgb(54,54,54)"/>
<path d="M35 29h1v1h-1z" fill="rgb(189,184,37)"/>
<path d="M57 29h1v1h1v1h1v1h4v10h-1v-3h-1v-2h-1v-2h-2v-1h-2v-1h-3v-1h-1v-1h3v-1
	h1z" fill="rgb(0,0,0)"/>
<path d="M60 29h1v1h-1z" fill="rgb(189,184,37)"/>
<path d="M61 29h1v1h-1z" fill="rgb(54,54,54)"/>
<path d="M62 29h1v1h-1z" fill="rgb(189,184,37)"/>
<path d="M34 30h1v1h-1z" fill="rgb(189,184,37)"/>
<path d="M61 30h1v1h-1z" fill="rgb(189,184,37)"/>
<path d="M8 33h1v1h-1z" fill="rgb(66,102,54)"/>
<path d="M10 33h5v3h-1v4h-1v2h1v1h-2v1h-1v2h-1v-1h-2v1h-4v1h-3v-5h1v-1h2v-1h3
	v-1h1v-3h1v-2h1z" fill="rgb(66,102,54)"/>
<path d="M17 33h5v1h1v2h1v3h1v1h3v1h2v1h1v5h-3v-1h-4v-1h-2v1h-1v-2h-1v-1h-2v-1
	h1v-2h-1v-4h-1z" fill="rgb(66,102,54)"/>
<path d="M23 33h1v1h-1z" fill="rgb(66,102,54)"/>
<path d="M45 33h6v1h5v1h2v2h-1v2h-2v-1h-2v-1h-2v-1h-6v1h-2v1h-2v1h-2v-2h-1v-2h2
	v-1h5z" fill="rgb(97,57,90)"/>
<path d="M4 34h2v4h-4v-2h1v-1h1z" fill="rgb(0,0,0)"/>
<path d="M26 34h2v1h1v1h1v2h-4z" fill="rgb(0,0,0)"/>
<path d="M14 36h1v4h-1z" fill="rgb(54,54,54)"/>
<path d="M15 36h2v4h-2z" fill="rgb(66,102,54)"/>
<path d="M17 36h1v4h-1z" fill="rgb(54,54,54)"/>
<path d="M45 36h6v1h-6z" fill="rgb(54,54,54)"/>
<path d="M43 37h2v1h-2z" fill="rgb(54,54,54)"/>
<path d="M45 37h6v1h-6z" fill="rgb(97,57,90)"/>
<path d="M51 37h2v1h-2z" fill="rgb(54,54,54)"/>
<path d="M35 38h2v1h2v2h-1v2h-1v2h-1v6h1v2h1v2h1v2h-2v1h-2v-2h-1v-5h-1v-6h1v-5
	h1z" fill="rgb(97,57,90)"/>
<path d="M41 38h2v1h-2z" fill="rgb(54,54,54)"/>
<path d="M43 38h2v1h-2z" fill="rgb(97,57,90)"/>
<path d="M45 38h6v1h2v1h2v1h1v2h1v2h1v6h-1v2h-1v2h-1v1h-2v1h-2v1h-6v-1h-2v-1h-2
	v-1h-1v-2h-1v-2h-1v-6h1v-2h1v-2h1v-1h2v-1h2z" fill="rgb(54,54,54)"/>
<path d="M51 38h2v1h-2z" fill="rgb(97,57,90)"/>
<path d="M53 38h2v1h-2z" fill="rgb(54,54,54)"/>
<path d="M59 38h2v2h1v5h1v6h-1v5h-1v2h-2v-1h-2v-2h1v-2h1v-2h1v-6h-1v-2h-1v-2h-1
	v-2h2z" fill="rgb(97,57,90)"/>
<path d="M39 39h2v1h-1v1h-1z" fill="rgb(54,54,54)"/>
<path d="M41 39h2v1h-2z" fill="rgb(97,57,90)"/>
<path d="M53 39h2v1h-2z" fill="rgb(97,57,90)"/>
<path d="M55 39h2v2h-1v-1h-1z" fill="rgb(54,54,54)"/>
<path d="M1 40h1v1h-1z" fill="rgb(66,102,54)"/>
<path d="M13 40h1v2h-1z" fill="rgb(54,54,54)"/>
<path d="M14 40h1v2h-1z" fill="rgb(66,102,54)"/>
<path d="M15 40h2v2h-2z" fill="rgb(54,54,54)"/>
<path d="M17 40h1v2h-1z" fill="rgb(66,102,54)"/>
<path d="M18 40h1v2h-1z" fill="rgb(54,54,54)"/>
<path d="M30 40h1v1h-1z" fill="rgb(66,102,54)"/>
<path d="M40 40h1v1h-1z" fill="rgb(97,57,90)"/>
<path d="M55 40h1v1h-1z" fill="rgb(97,57,90)"/>
<path d="M38 41h1v2h-1z" fill="rgb(54,54,54)"/>
<path d="M39 41h1v2h-1z" fill="rgb(97,57,90)"/>
<path d="M56 41h1v2h-1z" fill="rgb(97,57,90)"/>
<path d="M57 41h1v2h-1z" fill="rgb(54,54,54)"/>
<path d="M14 42h1v1h-1z" fill="rgb(54,54,54)"/>
<path d="M15 42h2v1h-2z" fill="rgb(66,102,54)"/>
<path d="M17 42h1v1h-1z" fill="rgb(54,54,54)"/>
<path d="M47 42h2v2h-2z" fill="rgb(97,57,90)"/>
<path d="M12 43h2v2h-1v-1h-1z" fill="rgb(54,54,54)"/>
<path d="M14 43h1v1h2v-1h1v2h-4z" fill="rgb(66,102,54)"/>
<path d="M15 43h2v1h-2z" fill="rgb(54,54,54)"/>
<path d="M18 43h2v1h-1v1h-1z" fill="rgb(54,54,54)"/>
<path d="M37 43h1v2h-1z" fill="rgb(54,54,54)"/>
<path d="M38 43h1v2h-1z" fill="rgb(97,57,90)"/>
<path d="M45 43h1v1h-1z" fill="rgb(97,57,90)"/>
<path d="M50 43h1v1h-1z" fill="rgb(97,57,90)"/>
<path d="M57 43h1v2h-1z" fill="rgb(97,57,90)"/>
<path d="M58 43h1v2h-1z" fill="rgb(54,54,54)"/>
<path d="M11 44h1v1h1v1h-2z" fill="rgb(54,54,54)"/>
<path d="M12 44h1v1h-1z" fill="rgb(66,102,54)"/>
<path d="M19 44h1v1h-1z" fill="rgb(66,102,54)"/>
<path d="M20 44h1v2h-2v-1h1z" fill="rgb(54,54,54)"/>
<path d="M44 44h1v1h-1z" fill="rgb(97,57,90)"/>
<path d="M51 44h1v1h-1z" fill="rgb(97,57,90)"/>
<path d="M8 45h2v1h-2z" fill="rgb(54,54,54)"/>
<path d="M13 45h1v1h-1z" fill="rgb(66,102,54)"/>
<path d="M14 45h4v1h1v4h-1v1h-4v-1h-1v-4h1z" fill="rgb(54,54,54)"/>
<path d="M18 45h1v1h-1z" fill="rgb(66,102,54)"/>
<path d="M22 45h2v1h-2z" fill="rgb(54,54,54)"/>
<path d="M36 45h1v6h-1z" fill="rgb(54,54,54)"/>
<path d="M37 45h1v6h-1z" fill="rgb(97,57,90)"/>
<path d="M43 45h1v1h-1z" fill="rgb(97,57,90)"/>
<path d="M46 45h4v1h-4z" fill="rgb(0,0,0)"/>
<path d="M52 45h1v1h-1z" fill="rgb(97,57,90)"/>
<path d="M58 45h1v6h-1z" fill="rgb(97,57,90)"/>
<path d="M59 45h1v6h-1z" fill="rgb(54,54,54)"/>
<path d="M4 46h4v1h-4z" fill="rgb(54,54,54)"/>
<path d="M8 46h2v1h-2z" fill="rgb(66,102,54)"/>
<path d="M10 46h1v1h-1z" fill="rgb(54,54,54)"/>
<path d="M11 46h2v4h-2v-1h1v-2h-1z" fill="rgb(66,102,54)"/>
<path d="M19 46h2v1h-1v2h1v1h-2z" fill="rgb(66,102,54)"/>
<path d="M21 46h1v1h-1z" fill="rgb(54,54,54)"/>
<path d="M22 46h2v1h-2z" fill="rgb(66,102,54)"/>
<path d="M24 46h4v1h-4z" fill="rgb(54,54,54)"/>
<path d="M45 46h1v4h-1z" fill="rgb(0,0,0)"/>
<path d="M46 46h4v4h-4z" fill="rgb(54,54,54)"/>
<path d="M50 46h1v4h-1z" fill="rgb(0,0,0)"/>
<path d="M4 47h4v2h-4z" fill="rgb(66,102,54)"/>
<path d="M8 47h2v2h-2z" fill="rgb(54,54,54)"/>
<path d="M10 47h1v2h-1z" fill="rgb(66,102,54)"/>
<path d="M11 47h1v2h-1z" fill="rgb(54,54,54)"/>
<path d="M15 47h2v2h-2z" fill="rgb(0,0,0)"/>
<path d="M20 47h1v2h-1z" fill="rgb(54,54,54)"/>
<path d="M21 47h1v2h-1z" fill="rgb(66,102,54)"/>
<path d="M22 47h2v2h-2z" fill="rgb(54,54,54)"/>
<path d="M24 47h4v2h-4z" fill="rgb(66,102,54)"/>
<path d="M42 47h2v2h-2z" fill="rgb(97,57,90)"/>
<path d="M47 47h2v2h-2z" fill="rgb(0,0,0)"/>
<path d="M52 47h2v2h-2z" fill="rgb(97,57,90)"/>
<path d="M1 49h3v1h4v1h2v-1h1v2h1v1h2v1h-1v2h1v4h1v3h-5v-1h-1v-2h-1v-3h-1v-1h-3
	v-1h-2v-1h-1z" fill="rgb(66,102,54)"/>
<path d="M4 49h4v1h-4z" fill="rgb(54,54,54)"/>
<path d="M8 49h2v1h-2z" fill="rgb(66,102,54)"/>
<path d="M10 49h1v1h-1z" fill="rgb(54,54,54)"/>
<path d="M21 49h1v1h-1z" fill="rgb(54,54,54)"/>
<path d="M22 49h2v1h-2z" fill="rgb(66,102,54)"/>
<path d="M24 49h4v1h-4z" fill="rgb(54,54,54)"/>
<path d="M28 49h3v5h-1v1h-2v1h-3v1h-1v3h-1v2h-1v1h-5v-3h1v-4h1v-2h-1v-1h2v-1h1
	v-2h1v1h2v-1h4z" fill="rgb(66,102,54)"/>
<path d="M8 50h2v1h-2z" fill="rgb(54,54,54)"/>
<path d="M11 50h2v1h-1v1h-1z" fill="rgb(54,54,54)"/>
<path d="M13 50h1v1h-1z" fill="rgb(66,102,54)"/>
<path d="M18 50h1v1h-1z" fill="rgb(66,102,54)"/>
<path d="M19 50h2v2h-1v-1h-1z" fill="rgb(54,54,54)"/>
<path d="M22 50h2v1h-2z" fill="rgb(54,54,54)"/>
<path d="M43 50h1v1h-1z" fill="rgb(97,57,90)"/>
<path d="M46 50h4v1h-4z" fill="rgb(0,0,0)"/>
<path d="M52 50h1v1h-1z" fill="rgb(97,57,90)"/>
<path d="M12 51h1v1h-1z" fill="rgb(66,102,54)"/>
<path d="M13 51h1v2h-2v-1h1z" fill="rgb(54,54,54)"/>
<path d="M14 51h4v2h-1v-1h-2v1h-1z" fill="rgb(66,102,54)"/>
<path d="M18 51h1v1h1v1h-2z" fill="rgb(54,54,54)"/>
<path d="M19 51h1v1h-1z" fill="rgb(66,102,54)"/>
<path d="M37 51h1v2h-1z" fill="rgb(54,54,54)"/>
<path d="M38 51h1v2h-1z" fill="rgb(97,57,90)"/>
<path d="M44 51h1v1h-1z" fill="rgb(97,57,90)"/>
<path d="M51 51h1v1h-1z" fill="rgb(97,57,90)"/>
<path d="M57 51h1v2h-1z" fill="rgb(97,57,90)"/>
<path d="M58 51h1v2h-1z" fill="rgb(54,54,54)"/>
<path d="M15 52h2v1h-2z" fill="rgb(54,54,54)"/>
<path d="M45 52h1v1h-1z" fill="rgb(97,57,90)"/>
<path d="M47 52h2v2h-2z" fill="rgb(97,57,90)"/>
<path d="M50 52h1v1h-1z" fill="rgb(97,57,90)"/>
<path d="M14 53h1v1h-1z" fill="rgb(54,54,54)"/>
<path d="M15 53h2v1h-2z" fill="rgb(66,102,54)"/>
<path d="M17 53h1v1h-1z" fill="rgb(54,54,54)"/>
<path d="M38 53h1v2h-1z" fill="rgb(54,54,54)"/>
<path d="M39 53h1v2h-1z" fill="rgb(97,57,90)"/>
<path d="M56 53h1v2h-1z" fill="rgb(97,57,90)"/>
<path d="M57 53h1v2h-1z" fill="rgb(54,54,54)"/>
<path d="M13 54h1v2h-1z" fill="rgb(54,54,54)"/>
<path d="M14 54h1v2h-1z" fill="rgb(66,102,54)"/>
<path d="M15 54h2v2h-2z" fill="rgb(54,54,54)"/>
<path d="M17 54h1v2h-1z" fill="rgb(66,102,54)"/>
<path d="M18 54h1v2h-1z" fill="rgb(54,54,54)"/>
<path d="M32 54h1v3h1v2h1v2h2v1h2v1h3v1h-13v-1h1v-1h1v-1h1z" fill="rgb(0,0,0)"/>
<path d="M63 54h1v10h-10v-1h3v-1h2v-1h2v-2h1v-2h1z" fill="rgb(0,0,0)"/>
<path d="M1 55h1v1h-1z" fill="rgb(66,102,54)"/>
<path d="M30 55h1v1h-1z" fill="rgb(66,102,54)"/>
<path d="M39 55h1v1h1v1h-2z" fill="rgb(54,54,54)"/>
<path d="M40 55h1v1h-1z" fill="rgb(97,57,90)"/>
<path d="M55 55h1v1h-1z" fill="rgb(97,57,90)"/>
<path d="M56 55h1v2h-2v-1h1z" fill="rgb(54,54,54)"/>
<path d="M14 56h1v4h-1z" fill="rgb(54,54,54)"/>
<path d="M15 56h2v4h-2z" fill="rgb(66,102,54)"/>
<path d="M17 56h1v4h-1z" fill="rgb(54,54,54)"/>
<path d="M41 56h2v1h-2z" fill="rgb(97,57,90)"/>
<path d="M53 56h2v1h-2z" fill="rgb(97,57,90)"/>
<path d="M39 57h2v1h2v1h2v1h6v-1h2v-1h2v-1h2v2h1v2h-2v1h-5v1h-6v-1h-5v-1h-2v-2
	h1z" fill="rgb(97,57,90)"/>
<path d="M41 57h2v1h-2z" fill="rgb(54,54,54)"/>
<path d="M43 57h2v1h-2z" fill="rgb(97,57,90)"/>
<path d="M51 57h2v1h-2z" fill="rgb(97,57,90)"/>
<path d="M53 57h2v1h-2z" fill="rgb(54,54,54)"/>
<path d="M2 58h4v4h-2v-1h-1v-1h-1z" fill="rgb(0,0,0)"/>
<path d="M26 58h4v2h-1v1h-1v1h-2z" fill="rgb(0,0,0)"/>
<path d="M43 58h2v1h-2z" fill="rgb(54,54,54)"/>
<path d="M45 58h6v1h-6z" fill="rgb(97,57,90)"/>
<path d="M51 58h2v1h-2z" fill="rgb(54,54,54)"/>
<path d="M45 59h6v1h-6z" fill="rgb(54,54,54)"/>
<path d="M0 61h1v1h1v1h1v1h-3z" fill="rgb(0,0,0)"/>
<path d="M8 62h1v1h-1z" fill="rgb(66,102,54)"/>
<path d="M23 62h1v1h-1z" fill="rgb(66,102,54)"/>
</svg>
