<?xml version="1.0" encoding="utf-8"?>
<!-- generated at drububu.com  -->
<!DOCTYPE svg PUBLIC "-//W3C//DTD SVG 1.1//EN" "http://www.w3.org/Graphics/SVG/1.1/DTD/svg11.dtd">
<svg version="1.1" preserveAspectRatio="xMinYMin meet" xmlns="http://www.w3.org/2000/svg" xmlns:xlink="http://www.w3.org/1999/xlink" x="0px" y="0px" width="16px" height="16px" viewBox="0 0 16 16">
<path d="M0 0h2v2h1v1h1v1h1v3h-1v1h8v-1h-1v-3h1v-1h1v-1h1v-2h2v16h-16z" fill="rgb(255,0,255)"/>
<path d="M2 0h1v2h-1z" fill="rgb(77,77,77)"/>
<path d="M3 0h1v2h-1z" fill="rgb(80,80,80)"/>
<path d="M4 0h1v2h-1z" fill="rgb(90,89,89)"/>
<path d="M5 0h1v2h-1z" fill="rgb(104,104,104)"/>
<path d="M6 0h1v2h-1z" fill="rgb(130,130,130)"/>
<path d="M7 0h2v1h-2z" fill="rgb(108,18,0)"/>
<path d="M9 0h1v2h-1z" fill="rgb(130,130,130)"/>
<path d="M10 0h1v2h-1z" fill="rgb(104,104,104)"/>
<path d="M11 0h1v2h-1z" fill="rgb(90,89,89)"/>
<path d="M12 0h1v2h-1z" fill="rgb(80,80,80)"/>
<path d="M13 0h1v2h-1z" fill="rgb(77,77,77)"/>
<path d="M7 1h2v1h-2z" fill="rgb(150,150,150)"/>
<path d="M3 2h1v1h-1z" fill="rgb(77,77,77)"/>
<path d="M4 2h1v1h-1z" fill="rgb(80,80,80)"/>
<path d="M5 2h1v1h-1z" fill="rgb(90,89,89)"/>
<path d="M6 2h1v1h-1z" fill="rgb(104,104,104)"/>
<path d="M7 2h2v3h-2z" fill="rgb(130,130,130)"/>
<path d="M9 2h1v1h-1z" fill="rgb(104,104,104)"/>
<path d="M10 2h1v1h-1z" fill="rgb(90,89,89)"/>
<path d="M11 2h1v1h-1z" fill="rgb(80,80,80)"/>
<path d="M12 2h1v1h-1z" fill="rgb(77,77,77)"/>
<path d="M4 3h1v1h-1z" fill="rgb(77,77,77)"/>
<path d="M5 3h1v1h-1z" fill="rgb(80,80,80)"/>
<path d="M6 3h1v3h-1z" fill="rgb(90,89,89)"/>
<path d="M9 3h1v3h-1z" fill="rgb(90,89,89)"/>
<path d="M10 3h1v2h-1z" fill="rgb(80,80,80)"/>
<path d="M11 3h1v1h-1z" fill="rgb(77,77,77)"/>
<path d="M5 4h1v3h-1z" fill="rgb(77,77,77)"/>
<path d="M7 5h2v1h-2z" fill="rgb(113,111,111)"/>
<path d="M10 5h1v2h-1z" fill="rgb(77,77,77)"/>
<path d="M6 6h1v1h-1z" fill="rgb(80,80,80)"/>
<path d="M7 6h2v1h-2z" fill="rgb(104,104,104)"/>
<path d="M9 6h1v1h-1z" fill="rgb(80,80,80)"/>
<path d="M4 7h1v1h-1z" fill="rgb(77,77,77)"/>
<path d="M5 7h1v1h-1z" fill="rgb(90,89,89)"/>
<path d="M6 7h1v1h-1z" fill="rgb(113,111,111)"/>
<path d="M7 7h2v1h-2z" fill="rgb(150,150,150)"/>
<path d="M9 7h1v1h-1z" fill="rgb(113,111,111)"/>
<path d="M10 7h1v1h-1z" fill="rgb(90,89,89)"/>
<path d="M11 7h1v1h-1z" fill="rgb(77,77,77)"/>
</svg>
