<?xml version="1.0" encoding="utf-8"?>
<!-- generated at drububu.com  -->
<!DOCTYPE svg PUBLIC "-//W3C//DTD SVG 1.1//EN" "http://www.w3.org/Graphics/SVG/1.1/DTD/svg11.dtd">
<svg version="1.1" preserveAspectRatio="xMinYMin meet" xmlns="http://www.w3.org/2000/svg" xmlns:xlink="http://www.w3.org/1999/xlink" x="0px" y="0px" width="16px" height="16px" viewBox="0 0 16 16">
<path d="M0 0h5v7h1v1h-1v2h7v-2h-1v-1h1v-7h4v16h-16z" fill="rgb(0,0,0)"/>
<path d="M5 0h1v1h-1z" fill="rgb(145,145,145)"/>
<path d="M6 0h1v1h-1z" fill="rgb(175,175,175)"/>
<path d="M7 0h1v1h-1z" fill="rgb(197,197,197)"/>
<path d="M8 0h1v1h-1z" fill="rgb(213,213,213)"/>
<path d="M9 0h1v1h-1z" fill="rgb(201,201,201)"/>
<path d="M10 0h1v1h-1z" fill="rgb(162,162,162)"/>
<path d="M11 0h1v1h-1z" fill="rgb(138,138,138)"/>
<path d="M5 1h1v1h-1z" fill="rgb(78,78,78)"/>
<path d="M6 1h1v1h-1z" fill="rgb(162,162,162)"/>
<path d="M7 1h1v1h-1z" fill="rgb(215,215,215)"/>
<path d="M8 1h1v1h-1z" fill="rgb(226,226,226)"/>
<path d="M9 1h1v1h-1z" fill="rgb(221,221,221)"/>
<path d="M10 1h1v1h-1z" fill="rgb(182,182,182)"/>
<path d="M11 1h1v1h-1z" fill="rgb(86,86,86)"/>
<path d="M5 2h1v1h-1z" fill="rgb(58,58,58)"/>
<path d="M6 2h1v1h-1z" fill="rgb(193,193,193)"/>
<path d="M7 2h1v1h-1z" fill="rgb(224,224,224)"/>
<path d="M8 2h2v2h-1v1h-1z" fill="rgb(228,228,228)"/>
<path d="M10 2h1v1h-1z" fill="rgb(199,199,199)"/>
<path d="M11 2h1v1h-1z" fill="rgb(92,92,92)"/>
<path d="M5 3h1v2h-1z" fill="rgb(90,90,90)"/>
<path d="M6 3h1v2h-1z" fill="rgb(210,210,210)"/>
<path d="M7 3h1v2h-1z" fill="rgb(227,227,227)"/>
<path d="M10 3h1v2h-1z" fill="rgb(204,204,204)"/>
<path d="M11 3h1v1h-1z" fill="rgb(98,98,98)"/>
<path d="M9 4h1v1h-1z" fill="rgb(226,226,226)"/>
<path d="M11 4h1v1h-1z" fill="rgb(108,108,108)"/>
<path d="M5 5h1v1h-1z" fill="rgb(107,107,107)"/>
<path d="M6 5h1v1h-1z" fill="rgb(194,194,194)"/>
<path d="M7 5h1v1h-1z" fill="rgb(219,219,219)"/>
<path d="M8 5h1v1h-1z" fill="rgb(226,226,226)"/>
<path d="M9 5h1v1h-1z" fill="rgb(224,224,224)"/>
<path d="M10 5h1v1h-1z" fill="rgb(195,195,195)"/>
<path d="M11 5h1v1h-1z" fill="rgb(129,129,129)"/>
<path d="M5 6h1v1h-1z" fill="rgb(121,121,121)"/>
<path d="M6 6h1v1h-1z" fill="rgb(169,169,169)"/>
<path d="M7 6h1v1h-1z" fill="rgb(186,186,186)"/>
<path d="M8 6h1v1h-1z" fill="rgb(210,210,210)"/>
<path d="M9 6h1v1h-1z" fill="rgb(205,205,205)"/>
<path d="M10 6h1v1h-1z" fill="rgb(185,185,185)"/>
<path d="M11 6h1v1h-1z" fill="rgb(164,164,164)"/>
<path d="M6 7h1v1h-1z" fill="rgb(135,135,135)"/>
<path d="M7 7h1v1h-1z" fill="rgb(139,139,139)"/>
<path d="M8 7h1v1h-1z" fill="rgb(182,182,182)"/>
<path d="M9 7h1v1h-1z" fill="rgb(161,161,161)"/>
<path d="M10 7h1v1h-1z" fill="rgb(126,126,126)"/>
<path d="M5 8h1v1h-1z" fill="rgb(93,93,93)"/>
<path d="M6 8h1v1h-1z" fill="rgb(113,113,113)"/>
<path d="M7 8h1v1h-1z" fill="rgb(135,135,135)"/>
<path d="M8 8h1v1h-1z" fill="rgb(161,161,161)"/>
<path d="M9 8h1v1h-1z" fill="rgb(154,154,154)"/>
<path d="M10 8h1v1h-1z" fill="rgb(103,103,103)"/>
<path d="M11 8h1v1h-1z" fill="rgb(80,80,80)"/>
<path d="M5 9h1v1h-1z" fill="rgb(79,79,79)"/>
<path d="M6 9h1v1h-1z" fill="rgb(61,61,61)"/>
<path d="M7 9h1v1h-1z" fill="rgb(66,66,66)"/>
<path d="M8 9h1v1h-1z" fill="rgb(81,81,81)"/>
<path d="M9 9h1v1h-1z" fill="rgb(83,83,83)"/>
<path d="M10 9h1v1h-1z" fill="rgb(81,81,81)"/>
<path d="M11 9h1v1h-1z" fill="rgb(70,70,70)"/>
</svg>
