<?xml version="1.0" encoding="UTF-8" standalone="no"?>
<!-- generated at drububu.com  -->

<svg
   xmlns:dc="http://purl.org/dc/elements/1.1/"
   xmlns:cc="http://creativecommons.org/ns#"
   xmlns:rdf="http://www.w3.org/1999/02/22-rdf-syntax-ns#"
   xmlns:svg="http://www.w3.org/2000/svg"
   xmlns="http://www.w3.org/2000/svg"
   xmlns:sodipodi="http://sodipodi.sourceforge.net/DTD/sodipodi-0.dtd"
   xmlns:inkscape="http://www.inkscape.org/namespaces/inkscape"
   version="1.1"
   preserveAspectRatio="xMinYMin meet"
   x="0px"
   y="0px"
   width="16px"
   height="16px"
   viewBox="0 0 16 16"
   id="svg8837"
   inkscape:version="0.48.5 r10040"
   sodipodi:docname="federation.turret.svg">
  <metadata
     id="metadata8993">
    <rdf:RDF>
      <cc:Work
         rdf:about="">
        <dc:format>image/svg+xml</dc:format>
        <dc:type
           rdf:resource="http://purl.org/dc/dcmitype/StillImage" />
      </cc:Work>
    </rdf:RDF>
  </metadata>
  <defs
     id="defs8991" />
  <sodipodi:namedview
     pagecolor="#ffffff"
     bordercolor="#666666"
     borderopacity="1"
     objecttolerance="10"
     gridtolerance="10"
     guidetolerance="10"
     inkscape:pageopacity="0"
     inkscape:pageshadow="2"
     inkscape:window-width="640"
     inkscape:window-height="480"
     id="namedview8989"
     showgrid="false"
     inkscape:zoom="14.75"
     inkscape:cx="8"
     inkscape:cy="8"
     inkscape:window-x="445"
     inkscape:window-y="67"
     inkscape:window-maximized="0"
     inkscape:current-layer="svg8837" />
  <path
     d="M4 1h1v1h-1z"
     fill="rgb(161,161,161)"
     id="path8841" />
  <path
     d="M11 1h1v1h-1z"
     fill="rgb(183,183,183)"
     id="path8843" />
  <path
     d="M4 2h1v1h-1z"
     fill="rgb(160,160,160)"
     id="path8845" />
  <path
     d="M11 2h1v1h-1z"
     fill="rgb(109,109,109)"
     id="path8847" />
  <path
     d="M4 3h1v1h-1z"
     fill="rgb(178,178,178)"
     id="path8849" />
  <path
     d="M11 3h1v1h-1z"
     fill="rgb(147,147,147)"
     id="path8851" />
  <path
     d="M4 4h1v1h-1z"
     fill="rgb(198,198,198)"
     id="path8853" />
  <path
     d="M5 4h1v1h-1z"
     fill="rgb(87,87,87)"
     id="path8855" />
  <path
     d="M10 4h1v1h-1z"
     fill="rgb(137,137,137)"
     id="path8857" />
  <path
     d="M11 4h1v1h-1z"
     fill="rgb(186,186,186)"
     id="path8859" />
  <path
     d="M4 5h1v1h-1z"
     fill="rgb(183,183,183)"
     id="path8861" />
  <path
     d="M5 5h1v1h-1z"
     fill="rgb(112,112,112)"
     id="path8863" />
  <path
     d="M10 5h1v1h-1z"
     fill="rgb(152,152,152)"
     id="path8865" />
  <path
     d="M11 5h1v1h-1z"
     fill="rgb(193,193,193)"
     id="path8867" />
  <path
     d="M4 6h1v1h-1z"
     fill="rgb(184,184,184)"
     id="path8869" />
  <path
     d="M5 6h1v1h-1z"
     fill="rgb(158,158,158)"
     id="path8871" />
  <path
     d="M10 6h1v1h-1z"
     fill="rgb(176,176,176)"
     id="path8873" />
  <path
     d="M11 6h1v1h-1z"
     fill="rgb(187,187,187)"
     id="path8875" />
  <path
     d="M4 7h1v1h-1z"
     fill="rgb(190,190,190)"
     id="path8877" />
  <path
     d="M5 7h1v1h-1z"
     fill="rgb(182,182,182)"
     id="path8879" />
  <path
     d="M6 7h1v1h-1z"
     fill="rgb(85,85,85)"
     id="path8881" />
  <path
     d="M9 7h1v1h-1z"
     fill="rgb(111,111,111)"
     id="path8883" />
  <path
     d="M10 7h1v1h-1z"
     fill="rgb(202,202,202)"
     id="path8885" />
  <path
     d="M11 7h1v1h-1z"
     fill="rgb(188,188,188)"
     id="path8887" />
  <path
     d="M4 8h1v1h-1z"
     fill="rgb(198,198,198)"
     id="path8889" />
  <path
     d="M5 8h1v1h-1z"
     fill="rgb(213,213,213)"
     id="path8891" />
  <path
     d="M6 8h1v1h-1z"
     fill="rgb(170,170,170)"
     id="path8893" />
  <path
     d="M9 8h1v1h-1z"
     fill="rgb(131,131,131)"
     id="path8895" />
  <path
     d="M10 8h1v1h-1z"
     fill="rgb(212,212,212)"
     id="path8897" />
  <path
     d="M11 8h1v1h-1z"
     fill="rgb(200,200,200)"
     id="path8899" />
  <path
     d="M4 9h1v1h-1z"
     fill="rgb(188,188,188)"
     id="path8901" />
  <path
     d="M5 9h1v1h-1z"
     fill="rgb(216,216,216)"
     id="path8903" />
  <path
     d="M6 9h1v1h-1z"
     fill="rgb(205,205,205)"
     id="path8905" />
  <path
     d="M9 9h1v1h-1z"
     fill="rgb(194,194,194)"
     id="path8907" />
  <path
     d="M10 9h1v1h-1z"
     fill="rgb(220,220,220)"
     id="path8909" />
  <path
     d="M11 9h1v1h-1z"
     fill="rgb(196,196,196)"
     id="path8911" />
  <path
     d="M4 10h1v1h-1z"
     fill="rgb(151,151,151)"
     id="path8913" />
  <path
     d="M5 10h1v1h-1z"
     fill="rgb(196,196,196)"
     id="path8915" />
  <path
     d="M6 10h1v1h-1z"
     fill="rgb(216,216,216)"
     id="path8917" />
  <path
     d="M7 10h1v1h-1z"
     fill="rgb(179,179,179)"
     id="path8919" />
  <path
     d="M8 10h1v1h-1z"
     fill="rgb(178,178,178)"
     id="path8921" />
  <path
     d="M9 10h1v1h-1z"
     fill="rgb(217,217,217)"
     id="path8923" />
  <path
     d="M10 10h1v1h-1z"
     fill="rgb(198,198,198)"
     id="path8925" />
  <path
     d="M11 10h1v1h-1z"
     fill="rgb(171,171,171)"
     id="path8927" />
  <path
     d="M5 11h1v1h-1z"
     fill="rgb(148,148,148)"
     id="path8929" />
  <path
     d="M6 11h1v1h-1z"
     fill="rgb(209,209,209)"
     id="path8931" />
  <path
     d="M7 11h1v1h-1z"
     fill="rgb(221,221,221)"
     id="path8933" />
  <path
     d="M8 11h1v1h-1z"
     fill="rgb(222,222,222)"
     id="path8935" />
  <path
     d="M9 11h1v1h-1z"
     fill="rgb(209,209,209)"
     id="path8937" />
  <path
     d="M10 11h1v1h-1z"
     fill="rgb(136,136,136)"
     id="path8939" />
  <path
     d="M5 12h1v1h-1z"
     fill="rgb(98,98,98)"
     id="path8941" />
  <path
     d="M6 12h1v1h-1z"
     fill="rgb(168,168,168)"
     id="path8943" />
  <path
     d="M7 12h1v1h-1z"
     fill="rgb(219,219,219)"
     id="path8945" />
  <path
     d="M8 12h1v1h-1z"
     fill="rgb(223,223,223)"
     id="path8947" />
  <path
     d="M9 12h1v1h-1z"
     fill="rgb(172,172,172)"
     id="path8949" />
  <path
     d="M10 12h1v1h-1z"
     fill="rgb(71,71,71)"
     id="path8951" />
  <path
     d="M5 13h1v1h-1z"
     fill="rgb(69,69,69)"
     id="path8953" />
  <path
     d="M6 13h1v1h-1z"
     fill="rgb(65,65,65)"
     id="path8955" />
  <path
     d="M7 13h1v1h-1z"
     fill="rgb(182,182,182)"
     id="path8957" />
  <path
     d="M8 13h1v1h-1z"
     fill="rgb(179,179,179)"
     id="path8959" />
  <path
     d="M9 13h1v1h-1z"
     fill="rgb(67,67,67)"
     id="path8961" />
  <path
     d="M10 13h1v1h-1z"
     fill="rgb(50,50,50)"
     id="path8963" />
  <path
     d="M5 14h1v1h-1z"
     fill="rgb(81,81,81)"
     id="path8965" />
  <path
     d="M6 14h1v1h-1z"
     fill="rgb(56,56,56)"
     id="path8967" />
  <path
     d="M7 14h1v1h-1z"
     fill="rgb(184,184,184)"
     id="path8969" />
  <path
     d="M8 14h1v1h-1z"
     fill="rgb(137,137,137)"
     id="path8971" />
  <path
     d="M9 14h1v1h-1z"
     fill="rgb(51,51,51)"
     id="path8973" />
  <path
     d="M10 14h1v1h-1z"
     fill="rgb(101,101,101)"
     id="path8975" />
  <path
     d="M5 15h1v1h-1z"
     fill="rgb(80,80,80)"
     id="path8977" />
  <path
     d="M6 15h1v1h-1z"
     fill="rgb(58,58,58)"
     id="path8979" />
  <path
     d="M7 15h1v1h-1z"
     fill="rgb(174,174,174)"
     id="path8981" />
  <path
     d="M8 15h1v1h-1z"
     fill="rgb(122,122,122)"
     id="path8983" />
  <path
     d="M9 15h1v1h-1z"
     fill="rgb(43,43,43)"
     id="path8985" />
  <path
     d="M10 15h1v1h-1z"
     fill="rgb(98,98,98)"
     id="path8987" />
</svg>
