<?xml version="1.0" encoding="UTF-8" standalone="no"?>
<!-- generated at drububu.com  -->

<svg
   xmlns:dc="http://purl.org/dc/elements/1.1/"
   xmlns:cc="http://creativecommons.org/ns#"
   xmlns:rdf="http://www.w3.org/1999/02/22-rdf-syntax-ns#"
   xmlns:svg="http://www.w3.org/2000/svg"
   xmlns="http://www.w3.org/2000/svg"
   xmlns:sodipodi="http://sodipodi.sourceforge.net/DTD/sodipodi-0.dtd"
   xmlns:inkscape="http://www.inkscape.org/namespaces/inkscape"
   version="1.1"
   preserveAspectRatio="xMinYMin meet"
   x="0px"
   y="0px"
   width="16px"
   height="16px"
   viewBox="0 0 16 16"
   id="svg36275"
   inkscape:version="0.48.5 r10040"
   sodipodi:docname="locust.engine.svg">
  <metadata
     id="metadata36675">
    <rdf:RDF>
      <cc:Work
         rdf:about="">
        <dc:format>image/svg+xml</dc:format>
        <dc:type
           rdf:resource="http://purl.org/dc/dcmitype/StillImage" />
      </cc:Work>
    </rdf:RDF>
  </metadata>
  <defs
     id="defs36673" />
  <sodipodi:namedview
     pagecolor="#ffffff"
     bordercolor="#666666"
     borderopacity="1"
     objecttolerance="10"
     gridtolerance="10"
     guidetolerance="10"
     inkscape:pageopacity="0"
     inkscape:pageshadow="2"
     inkscape:window-width="640"
     inkscape:window-height="480"
     id="namedview36671"
     showgrid="false"
     inkscape:zoom="14.75"
     inkscape:cx="8"
     inkscape:cy="8"
     inkscape:window-x="0"
     inkscape:window-y="0"
     inkscape:window-maximized="0"
     inkscape:current-layer="svg36275" />
  <path
     d="M2 0h1v1h-1z"
     fill="rgb(80,50,102)"
     id="path36279" />
  <path
     d="M3 0h1v1h-1z"
     fill="rgb(67,32,88)"
     id="path36281" />
  <path
     d="M4 0h1v1h-1z"
     fill="rgb(96,9,146)"
     id="path36283" />
  <path
     d="M5 0h1v1h-1z"
     fill="rgb(82,0,137)"
     id="path36285" />
  <path
     d="M6 0h1v1h-1z"
     fill="rgb(70,0,126)"
     id="path36287" />
  <path
     d="M7 0h1v1h-1z"
     fill="rgb(65,0,122)"
     id="path36289" />
  <path
     d="M8 0h1v1h-1z"
     fill="rgb(65,0,121)"
     id="path36291" />
  <path
     d="M9 0h1v1h-1z"
     fill="rgb(68,0,127)"
     id="path36293" />
  <path
     d="M10 0h1v1h-1z"
     fill="rgb(79,0,135)"
     id="path36295" />
  <path
     d="M11 0h1v1h-1z"
     fill="rgb(95,22,146)"
     id="path36297" />
  <path
     d="M12 0h1v1h-1z"
     fill="rgb(117,60,151)"
     id="path36299" />
  <path
     d="M13 0h1v1h-1z"
     fill="rgb(82,49,99)"
     id="path36301" />
  <path
     d="M2 1h1v1h-1z"
     fill="rgb(70,44,84)"
     id="path36303" />
  <path
     d="M3 1h1v1h-1z"
     fill="rgb(97,35,130)"
     id="path36305" />
  <path
     d="M4 1h1v1h-1z"
     fill="rgb(99,8,141)"
     id="path36307" />
  <path
     d="M5 1h1v1h-1z"
     fill="rgb(88,4,138)"
     id="path36309" />
  <path
     d="M6 1h1v1h-1z"
     fill="rgb(80,0,137)"
     id="path36311" />
  <path
     d="M7 1h1v1h-1z"
     fill="rgb(76,0,132)"
     id="path36313" />
  <path
     d="M8 1h1v1h-1z"
     fill="rgb(74,0,132)"
     id="path36315" />
  <path
     d="M9 1h1v1h-1z"
     fill="rgb(81,0,133)"
     id="path36317" />
  <path
     d="M10 1h1v1h-1z"
     fill="rgb(87,3,140)"
     id="path36319" />
  <path
     d="M11 1h1v1h-1z"
     fill="rgb(97,16,144)"
     id="path36321" />
  <path
     d="M12 1h1v1h-1z"
     fill="rgb(115,54,149)"
     id="path36323" />
  <path
     d="M13 1h1v1h-1z"
     fill="rgb(111,67,137)"
     id="path36325" />
  <path
     d="M1 2h1v1h-1z"
     fill="rgb(91,62,111)"
     id="path36327" />
  <path
     d="M2 2h1v1h-1z"
     fill="rgb(87,58,86)"
     id="path36329" />
  <path
     d="M3 2h1v1h-1z"
     fill="rgb(160,146,68)"
     id="path36331" />
  <path
     d="M4 2h1v1h-1z"
     fill="rgb(138,109,86)"
     id="path36333" />
  <path
     d="M5 2h1v1h-1z"
     fill="rgb(104,31,132)"
     id="path36335" />
  <path
     d="M6 2h1v1h-1z"
     fill="rgb(90,4,144)"
     id="path36337" />
  <path
     d="M7 2h1v1h-1z"
     fill="rgb(90,0,142)"
     id="path36339" />
  <path
     d="M8 2h1v1h-1z"
     fill="rgb(87,2,139)"
     id="path36341" />
  <path
     d="M9 2h1v1h-1z"
     fill="rgb(92,4,140)"
     id="path36343" />
  <path
     d="M10 2h1v1h-1z"
     fill="rgb(107,42,121)"
     id="path36345" />
  <path
     d="M11 2h1v1h-1z"
     fill="rgb(149,128,73)"
     id="path36347" />
  <path
     d="M12 2h1v1h-1z"
     fill="rgb(151,132,77)"
     id="path36349" />
  <path
     d="M13 2h1v1h-1z"
     fill="rgb(120,78,128)"
     id="path36351" />
  <path
     d="M14 2h1v1h-1z"
     fill="rgb(73,49,92)"
     id="path36353" />
  <path
     d="M1 3h1v1h-1z"
     fill="rgb(92,62,115)"
     id="path36355" />
  <path
     d="M2 3h1v1h-1z"
     fill="rgb(139,125,66)"
     id="path36357" />
  <path
     d="M3 3h1v1h-1z"
     fill="rgb(201,231,48)"
     id="path36359" />
  <path
     d="M4 3h1v1h-1z"
     fill="rgb(191,212,47)"
     id="path36361" />
  <path
     d="M5 3h1v1h-1z"
     fill="rgb(127,84,97)"
     id="path36363" />
  <path
     d="M6 3h1v1h-1z"
     fill="rgb(86,1,138)"
     id="path36365" />
  <path
     d="M7 3h1v1h-1z"
     fill="rgb(88,2,142)"
     id="path36367" />
  <path
     d="M8 3h1v1h-1z"
     fill="rgb(86,1,138)"
     id="path36369" />
  <path
     d="M9 3h1v1h-1z"
     fill="rgb(87,8,138)"
     id="path36371" />
  <path
     d="M10 3h1v1h-1z"
     fill="rgb(149,124,76)"
     id="path36373" />
  <path
     d="M11 3h1v1h-1z"
     fill="rgb(199,226,48)"
     id="path36375" />
  <path
     d="M12 3h1v1h-1z"
     fill="rgb(203,226,48)"
     id="path36377" />
  <path
     d="M13 3h1v1h-1z"
     fill="rgb(158,138,94)"
     id="path36379" />
  <path
     d="M14 3h1v1h-1z"
     fill="rgb(66,45,82)"
     id="path36381" />
  <path
     d="M1 4h1v1h-1z"
     fill="rgb(101,64,120)"
     id="path36383" />
  <path
     d="M2 4h1v1h-1z"
     fill="rgb(139,119,74)"
     id="path36385" />
  <path
     d="M3 4h1v1h-1z"
     fill="rgb(189,208,46)"
     id="path36387" />
  <path
     d="M4 4h1v1h-1z"
     fill="rgb(174,183,51)"
     id="path36389" />
  <path
     d="M5 4h1v1h-1z"
     fill="rgb(103,53,104)"
     id="path36391" />
  <path
     d="M6 4h1v1h-1z"
     fill="rgb(68,0,123)"
     id="path36393" />
  <path
     d="M7 4h1v1h-1z"
     fill="rgb(82,0,132)"
     id="path36395" />
  <path
     d="M8 4h1v1h-1z"
     fill="rgb(69,0,126)"
     id="path36397" />
  <path
     d="M9 4h1v1h-1z"
     fill="rgb(76,0,129)"
     id="path36399" />
  <path
     d="M10 4h1v1h-1z"
     fill="rgb(131,96,84)"
     id="path36401" />
  <path
     d="M11 4h1v1h-1z"
     fill="rgb(190,211,46)"
     id="path36403" />
  <path
     d="M12 4h1v1h-1z"
     fill="rgb(193,214,48)"
     id="path36405" />
  <path
     d="M13 4h1v1h-1z"
     fill="rgb(150,129,97)"
     id="path36407" />
  <path
     d="M14 4h1v1h-1z"
     fill="rgb(68,48,87)"
     id="path36409" />
  <path
     d="M1 5h1v1h-1z"
     fill="rgb(100,56,122)"
     id="path36411" />
  <path
     d="M2 5h1v1h-1z"
     fill="rgb(99,41,128)"
     id="path36413" />
  <path
     d="M3 5h1v1h-1z"
     fill="rgb(87,38,101)"
     id="path36415" />
  <path
     d="M4 5h1v1h-1z"
     fill="rgb(80,27,107)"
     id="path36417" />
  <path
     d="M5 5h1v1h-1z"
     fill="rgb(80,4,134)"
     id="path36419" />
  <path
     d="M6 5h1v1h-1z"
     fill="rgb(81,14,124)"
     id="path36421" />
  <path
     d="M7 5h1v1h-1z"
     fill="rgb(123,92,90)"
     id="path36423" />
  <path
     d="M8 5h1v1h-1z"
     fill="rgb(103,55,103)"
     id="path36425" />
  <path
     d="M9 5h1v1h-1z"
     fill="rgb(67,0,119)"
     id="path36427" />
  <path
     d="M10 5h1v1h-1z"
     fill="rgb(74,8,120)"
     id="path36429" />
  <path
     d="M11 5h1v1h-1z"
     fill="rgb(90,43,103)"
     id="path36431" />
  <path
     d="M12 5h1v1h-1z"
     fill="rgb(93,50,96)"
     id="path36433" />
  <path
     d="M13 5h1v1h-1z"
     fill="rgb(111,49,133)"
     id="path36435" />
  <path
     d="M14 5h1v1h-1z"
     fill="rgb(73,50,89)"
     id="path36437" />
  <path
     d="M1 6h1v1h-1z"
     fill="rgb(97,67,121)"
     id="path36439" />
  <path
     d="M2 6h1v1h-1z"
     fill="rgb(104,45,126)"
     id="path36441" />
  <path
     d="M3 6h1v1h-1z"
     fill="rgb(86,38,98)"
     id="path36443" />
  <path
     d="M4 6h1v1h-1z"
     fill="rgb(74,22,107)"
     id="path36445" />
  <path
     d="M5 6h1v1h-1z"
     fill="rgb(86,27,117)"
     id="path36447" />
  <path
     d="M6 6h1v1h-1z"
     fill="rgb(140,122,67)"
     id="path36449" />
  <path
     d="M7 6h1v1h-1z"
     fill="rgb(184,210,44)"
     id="path36451" />
  <path
     d="M8 6h1v1h-1z"
     fill="rgb(175,190,44)"
     id="path36453" />
  <path
     d="M9 6h1v1h-1z"
     fill="rgb(129,105,76)"
     id="path36455" />
  <path
     d="M10 6h1v1h-1z"
     fill="rgb(90,33,114)"
     id="path36457" />
  <path
     d="M11 6h1v1h-1z"
     fill="rgb(83,22,118)"
     id="path36459" />
  <path
     d="M12 6h1v1h-1z"
     fill="rgb(85,37,104)"
     id="path36461" />
  <path
     d="M13 6h1v1h-1z"
     fill="rgb(104,51,128)"
     id="path36463" />
  <path
     d="M14 6h1v1h-1z"
     fill="rgb(82,51,95)"
     id="path36465" />
  <path
     d="M1 7h1v1h-1z"
     fill="rgb(122,67,158)"
     id="path36467" />
  <path
     d="M2 7h1v1h-1z"
     fill="rgb(148,131,76)"
     id="path36469" />
  <path
     d="M3 7h1v1h-1z"
     fill="rgb(189,208,46)"
     id="path36471" />
  <path
     d="M4 7h1v1h-1z"
     fill="rgb(169,181,45)"
     id="path36473" />
  <path
     d="M5 7h1v1h-1z"
     fill="rgb(174,190,45)"
     id="path36475" />
  <path
     d="M6 7h1v1h-1z"
     fill="rgb(183,208,45)"
     id="path36477" />
  <path
     d="M7 7h1v1h-1z"
     fill="rgb(190,221,45)"
     id="path36479" />
  <path
     d="M8 7h1v1h-1z"
     fill="rgb(189,219,45)"
     id="path36481" />
  <path
     d="M9 7h1v1h-1z"
     fill="rgb(182,210,44)"
     id="path36483" />
  <path
     d="M10 7h1v1h-1z"
     fill="rgb(177,188,46)"
     id="path36485" />
  <path
     d="M11 7h1v1h-1z"
     fill="rgb(182,204,45)"
     id="path36487" />
  <path
     d="M12 7h1v1h-1z"
     fill="rgb(185,199,46)"
     id="path36489" />
  <path
     d="M13 7h1v1h-1z"
     fill="rgb(127,107,80)"
     id="path36491" />
  <path
     d="M14 7h1v1h-1z"
     fill="rgb(57,39,70)"
     id="path36493" />
  <path
     d="M1 8h1v1h-1z"
     fill="rgb(96,67,109)"
     id="path36495" />
  <path
     d="M2 8h1v1h-1z"
     fill="rgb(149,131,79)"
     id="path36497" />
  <path
     d="M3 8h1v1h-1z"
     fill="rgb(193,215,46)"
     id="path36499" />
  <path
     d="M4 8h1v1h-1z"
     fill="rgb(178,199,45)"
     id="path36501" />
  <path
     d="M5 8h1v1h-1z"
     fill="rgb(179,201,44)"
     id="path36503" />
  <path
     d="M6 8h1v1h-1z"
     fill="rgb(187,212,45)"
     id="path36505" />
  <path
     d="M7 8h1v1h-1z"
     fill="rgb(188,221,45)"
     id="path36507" />
  <path
     d="M8 8h1v1h-1z"
     fill="rgb(188,220,46)"
     id="path36509" />
  <path
     d="M9 8h1v1h-1z"
     fill="rgb(187,216,45)"
     id="path36511" />
  <path
     d="M10 8h1v1h-1z"
     fill="rgb(178,190,44)"
     id="path36513" />
  <path
     d="M11 8h1v1h-1z"
     fill="rgb(187,207,46)"
     id="path36515" />
  <path
     d="M12 8h1v1h-1z"
     fill="rgb(188,208,46)"
     id="path36517" />
  <path
     d="M13 8h1v1h-1z"
     fill="rgb(127,107,83)"
     id="path36519" />
  <path
     d="M14 8h1v1h-1z"
     fill="rgb(53,40,61)"
     id="path36521" />
  <path
     d="M1 9h1v1h-1z"
     fill="rgb(92,55,100)"
     id="path36523" />
  <path
     d="M2 9h1v1h-1z"
     fill="rgb(101,46,122)"
     id="path36525" />
  <path
     d="M3 9h1v1h-1z"
     fill="rgb(89,32,113)"
     id="path36527" />
  <path
     d="M4 9h1v1h-1z"
     fill="rgb(84,28,111)"
     id="path36529" />
  <path
     d="M5 9h1v1h-1z"
     fill="rgb(93,55,99)"
     id="path36531" />
  <path
     d="M6 9h1v1h-1z"
     fill="rgb(138,129,62)"
     id="path36533" />
  <path
     d="M7 9h1v1h-1z"
     fill="rgb(168,182,45)"
     id="path36535" />
  <path
     d="M8 9h1v1h-1z"
     fill="rgb(156,160,50)"
     id="path36537" />
  <path
     d="M9 9h1v1h-1z"
     fill="rgb(109,78,81)"
     id="path36539" />
  <path
     d="M10 9h1v1h-1z"
     fill="rgb(85,37,106)"
     id="path36541" />
  <path
     d="M11 9h1v1h-1z"
     fill="rgb(83,27,113)"
     id="path36543" />
  <path
     d="M12 9h1v1h-1z"
     fill="rgb(93,53,100)"
     id="path36545" />
  <path
     d="M13 9h1v1h-1z"
     fill="rgb(104,52,125)"
     id="path36547" />
  <path
     d="M14 9h1v1h-1z"
     fill="rgb(70,45,82)"
     id="path36549" />
  <path
     d="M1 10h1v1h-1z"
     fill="rgb(74,49,92)"
     id="path36551" />
  <path
     d="M2 10h1v1h-1z"
     fill="rgb(101,50,121)"
     id="path36553" />
  <path
     d="M3 10h1v1h-1z"
     fill="rgb(91,34,113)"
     id="path36555" />
  <path
     d="M4 10h1v1h-1z"
     fill="rgb(84,19,122)"
     id="path36557" />
  <path
     d="M5 10h1v1h-1z"
     fill="rgb(77,2,131)"
     id="path36559" />
  <path
     d="M6 10h1v1h-1z"
     fill="rgb(83,7,134)"
     id="path36561" />
  <path
     d="M7 10h1v1h-1z"
     fill="rgb(82,7,134)"
     id="path36563" />
  <path
     d="M8 10h1v1h-1z"
     fill="rgb(82,6,131)"
     id="path36565" />
  <path
     d="M9 10h1v1h-1z"
     fill="rgb(78,2,133)"
     id="path36567" />
  <path
     d="M10 10h1v1h-1z"
     fill="rgb(73,5,123)"
     id="path36569" />
  <path
     d="M11 10h1v1h-1z"
     fill="rgb(83,10,130)"
     id="path36571" />
  <path
     d="M12 10h1v1h-1z"
     fill="rgb(92,49,95)"
     id="path36573" />
  <path
     d="M13 10h1v1h-1z"
     fill="rgb(102,53,123)"
     id="path36575" />
  <path
     d="M14 10h1v1h-1z"
     fill="rgb(56,40,67)"
     id="path36577" />
  <path
     d="M1 11h1v1h-1z"
     fill="rgb(61,44,73)"
     id="path36579" />
  <path
     d="M2 11h1v1h-1z"
     fill="rgb(156,146,73)"
     id="path36581" />
  <path
     d="M3 11h1v1h-1z"
     fill="rgb(199,228,49)"
     id="path36583" />
  <path
     d="M4 11h1v1h-1z"
     fill="rgb(179,192,50)"
     id="path36585" />
  <path
     d="M5 11h1v1h-1z"
     fill="rgb(105,68,106)"
     id="path36587" />
  <path
     d="M6 11h1v1h-1z"
     fill="rgb(93,31,141)"
     id="path36589" />
  <path
     d="M7 11h1v1h-1z"
     fill="rgb(95,34,141)"
     id="path36591" />
  <path
     d="M8 11h1v1h-1z"
     fill="rgb(79,29,117)"
     id="path36593" />
  <path
     d="M9 11h1v1h-1z"
     fill="rgb(87,21,130)"
     id="path36595" />
  <path
     d="M10 11h1v1h-1z"
     fill="rgb(126,94,101)"
     id="path36597" />
  <path
     d="M11 11h1v1h-1z"
     fill="rgb(187,206,48)"
     id="path36599" />
  <path
     d="M12 11h1v1h-1z"
     fill="rgb(191,212,47)"
     id="path36601" />
  <path
     d="M13 11h1v1h-1z"
     fill="rgb(140,115,94)"
     id="path36603" />
  <path
     d="M14 11h1v1h-1z"
     fill="rgb(74,51,86)"
     id="path36605" />
  <path
     d="M1 12h1v1h-1z"
     fill="rgb(70,43,86)"
     id="path36607" />
  <path
     d="M2 12h1v1h-1z"
     fill="rgb(165,158,88)"
     id="path36609" />
  <path
     d="M3 12h1v1h-1z"
     fill="rgb(205,234,49)"
     id="path36611" />
  <path
     d="M4 12h1v1h-1z"
     fill="rgb(204,224,52)"
     id="path36613" />
  <path
     d="M5 12h1v1h-1z"
     fill="rgb(130,106,96)"
     id="path36615" />
  <path
     d="M6 12h1v1h-1z"
     fill="rgb(127,77,152)"
     id="path36617" />
  <path
     d="M7 12h1v1h-1z"
     fill="rgb(96,62,118)"
     id="path36619" />
  <path
     d="M8 12h1v1h-1z"
     fill="rgb(98,64,120)"
     id="path36621" />
  <path
     d="M9 12h1v1h-1z"
     fill="rgb(107,73,141)"
     id="path36623" />
  <path
     d="M10 12h1v1h-1z"
     fill="rgb(177,165,116)"
     id="path36625" />
  <path
     d="M11 12h1v1h-1z"
     fill="rgb(204,229,52)"
     id="path36627" />
  <path
     d="M12 12h1v1h-1z"
     fill="rgb(206,230,50)"
     id="path36629" />
  <path
     d="M13 12h1v1h-1z"
     fill="rgb(154,139,94)"
     id="path36631" />
  <path
     d="M14 12h1v1h-1z"
     fill="rgb(115,78,144)"
     id="path36633" />
  <path
     d="M2 13h1v1h-1z"
     fill="rgb(98,70,97)"
     id="path36635" />
  <path
     d="M3 13h1v1h-1z"
     fill="rgb(187,181,107)"
     id="path36637" />
  <path
     d="M4 13h1v1h-1z"
     fill="rgb(174,154,122)"
     id="path36639" />
  <path
     d="M5 13h1v1h-1z"
     fill="rgb(113,81,127)"
     id="path36641" />
  <path
     d="M6 13h1v1h-1z"
     fill="rgb(92,51,114)"
     id="path36643" />
  <path
     d="M9 13h1v1h-1z"
     fill="rgb(103,61,114)"
     id="path36645" />
  <path
     d="M10 13h1v1h-1z"
     fill="rgb(99,75,103)"
     id="path36647" />
  <path
     d="M11 13h1v1h-1z"
     fill="rgb(187,180,122)"
     id="path36649" />
  <path
     d="M12 13h1v1h-1z"
     fill="rgb(185,172,122)"
     id="path36651" />
  <path
     d="M13 13h1v1h-1z"
     fill="rgb(115,77,117)"
     id="path36653" />
  <path
     d="M2 14h1v1h-1z"
     fill="rgb(85,38,104)"
     id="path36655" />
  <path
     d="M3 14h1v1h-1z"
     fill="rgb(78,48,101)"
     id="path36657" />
  <path
     d="M4 14h1v1h-1z"
     fill="rgb(97,60,108)"
     id="path36659" />
  <path
     d="M5 14h1v1h-1z"
     fill="rgb(70,45,90)"
     id="path36661" />
  <path
     d="M10 14h1v1h-1z"
     fill="rgb(69,45,81)"
     id="path36663" />
  <path
     d="M11 14h1v1h-1z"
     fill="rgb(84,54,104)"
     id="path36665" />
  <path
     d="M12 14h1v1h-1z"
     fill="rgb(97,65,112)"
     id="path36667" />
  <path
     d="M13 14h1v1h-1z"
     fill="rgb(79,41,109)"
     id="path36669" />
</svg>
