<?xml version="1.0" encoding="UTF-8" standalone="no"?>
<!-- generated at drububu.com  -->

<svg
   xmlns:dc="http://purl.org/dc/elements/1.1/"
   xmlns:cc="http://creativecommons.org/ns#"
   xmlns:rdf="http://www.w3.org/1999/02/22-rdf-syntax-ns#"
   xmlns:svg="http://www.w3.org/2000/svg"
   xmlns="http://www.w3.org/2000/svg"
   xmlns:sodipodi="http://sodipodi.sourceforge.net/DTD/sodipodi-0.dtd"
   xmlns:inkscape="http://www.inkscape.org/namespaces/inkscape"
   version="1.1"
   preserveAspectRatio="xMinYMin meet"
   x="0px"
   y="0px"
   width="16px"
   height="16px"
   viewBox="0 0 16 16"
   id="svg19195"
   inkscape:version="0.48.5 r10040"
   sodipodi:docname="locust.core.svg">
  <metadata
     id="metadata19709">
    <rdf:RDF>
      <cc:Work
         rdf:about="">
        <dc:format>image/svg+xml</dc:format>
        <dc:type
           rdf:resource="http://purl.org/dc/dcmitype/StillImage" />
      </cc:Work>
    </rdf:RDF>
  </metadata>
  <defs
     id="defs19707" />
  <sodipodi:namedview
     pagecolor="#ffffff"
     bordercolor="#666666"
     borderopacity="1"
     objecttolerance="10"
     gridtolerance="10"
     guidetolerance="10"
     inkscape:pageopacity="0"
     inkscape:pageshadow="2"
     inkscape:window-width="640"
     inkscape:window-height="480"
     id="namedview19705"
     showgrid="false"
     inkscape:zoom="41.7193"
     inkscape:cx="1.8205608"
     inkscape:cy="14.615627"
     inkscape:window-x="208"
     inkscape:window-y="0"
     inkscape:window-maximized="0"
     inkscape:current-layer="svg19195" />
  <path
     d="M3 0h1v1h-1z"
     fill="rgb(205,136,236)"
     id="path19201" />
  <path
     d="M4 0h1v1h-1z"
     fill="rgb(144,20,213)"
     id="path19203" />
  <path
     d="M5 0h1v1h-1z"
     fill="rgb(120,20,172)"
     id="path19205" />
  <path
     d="M6 0h1v1h-1z"
     fill="rgb(109,21,152)"
     id="path19207" />
  <path
     d="M7 0h1v1h-1z"
     fill="rgb(116,22,167)"
     id="path19209" />
  <path
     d="M8 0h1v1h-1z"
     fill="rgb(121,20,172)"
     id="path19211" />
  <path
     d="M9 0h1v1h-1z"
     fill="rgb(130,19,190)"
     id="path19213" />
  <path
     d="M10 0h1v1h-1z"
     fill="rgb(131,20,191)"
     id="path19215" />
  <path
     d="M11 0h1v1h-1z"
     fill="rgb(152,46,208)"
     id="path19217" />
  <path
     d="M12 0h1v1h-1z"
     fill="rgb(210,152,240)"
     id="path19219" />
  <path
     d="M13 0h1v1h-1z"
     fill="rgb(239,222,249)"
     id="path19221" />
  <path
     d="M2 1h1v1h-1z"
     fill="rgb(184,94,232)"
     id="path19231" />
  <path
     d="M3 1h1v1h-1z"
     fill="rgb(132,18,191)"
     id="path19233" />
  <path
     d="M4 1h1v1h-1z"
     fill="rgb(114,20,163)"
     id="path19235" />
  <path
     d="M5 1h1v1h-1z"
     fill="rgb(126,25,181)"
     id="path19237" />
  <path
     d="M6 1h1v1h-1z"
     fill="rgb(124,28,167)"
     id="path19239" />
  <path
     d="M7 1h1v1h-1z"
     fill="rgb(127,30,167)"
     id="path19241" />
  <path
     d="M8 1h1v1h-1z"
     fill="rgb(137,37,170)"
     id="path19243" />
  <path
     d="M9 1h1v1h-1z"
     fill="rgb(139,40,175)"
     id="path19245" />
  <path
     d="M10 1h1v1h-1z"
     fill="rgb(135,19,190)"
     id="path19247" />
  <path
     d="M11 1h1v1h-1z"
     fill="rgb(119,19,170)"
     id="path19249" />
  <path
     d="M12 1h1v1h-1z"
     fill="rgb(115,21,164)"
     id="path19251" />
  <path
     d="M13 1h1v1h-1z"
     fill="rgb(147,24,208)"
     id="path19253" />
  <path
     d="M14 1h1v1h-1z"
     fill="rgb(213,156,241)"
     id="path19255" />
  <path
     d="M1 2h1v1h-1z"
     fill="rgb(194,120,235)"
     id="path19261" />
  <path
     d="M2 2h1v1h-1z"
     fill="rgb(132,19,188)"
     id="path19263" />
  <path
     d="M3 2h1v1h-1z"
     fill="rgb(114,20,165)"
     id="path19265" />
  <path
     d="M4 2h1v1h-1z"
     fill="rgb(196,156,102)"
     id="path19267" />
  <path
     d="M5 2h1v1h-1z"
     fill="rgb(218,232,74)"
     id="path19269" />
  <path
     d="M6 2h1v1h-1z"
     fill="rgb(220,231,74)"
     id="path19271" />
  <path
     d="M7 2h1v1h-1z"
     fill="rgb(128,61,120)"
     id="path19273" />
  <path
     d="M8 2h1v1h-1z"
     fill="rgb(122,53,129)"
     id="path19275" />
  <path
     d="M9 2h1v1h-1z"
     fill="rgb(215,232,74)"
     id="path19277" />
  <path
     d="M10 2h1v1h-1z"
     fill="rgb(218,231,74)"
     id="path19279" />
  <path
     d="M11 2h1v1h-1z"
     fill="rgb(194,149,101)"
     id="path19281" />
  <path
     d="M12 2h1v1h-1z"
     fill="rgb(154,53,184)"
     id="path19283" />
  <path
     d="M13 2h1v1h-1z"
     fill="rgb(116,20,166)"
     id="path19285" />
  <path
     d="M14 2h1v1h-1z"
     fill="rgb(140,17,208)"
     id="path19287" />
  <path
     d="M15 2h1v1h-1z"
     fill="rgb(213,156,243)"
     id="path19289" />
  <path
     d="M0 3h1v1h-1z"
     fill="rgb(235,209,248)"
     id="path19291" />
  <path
     d="M1 3h1v1h-1z"
     fill="rgb(118,20,174)"
     id="path19293" />
  <path
     d="M2 3h1v1h-1z"
     fill="rgb(110,22,153)"
     id="path19295" />
  <path
     d="M3 3h1v1h-1z"
     fill="rgb(148,86,117)"
     id="path19297" />
  <path
     d="M4 3h1v1h-1z"
     fill="rgb(153,110,93)"
     id="path19299" />
  <path
     d="M5 3h1v1h-1z"
     fill="rgb(217,232,75)"
     id="path19301" />
  <path
     d="M6 3h1v1h-1z"
     fill="rgb(218,230,74)"
     id="path19303" />
  <path
     d="M7 3h1v1h-1z"
     fill="rgb(131,61,125)"
     id="path19305" />
  <path
     d="M8 3h1v1h-1z"
     fill="rgb(109,25,145)"
     id="path19307" />
  <path
     d="M9 3h1v1h-1z"
     fill="rgb(218,230,74)"
     id="path19309" />
  <path
     d="M10 3h1v1h-1z"
     fill="rgb(218,232,74)"
     id="path19311" />
  <path
     d="M11 3h1v1h-1z"
     fill="rgb(204,208,71)"
     id="path19313" />
  <path
     d="M12 3h1v1h-1z"
     fill="rgb(190,173,73)"
     id="path19315" />
  <path
     d="M13 3h1v1h-1z"
     fill="rgb(148,51,181)"
     id="path19317" />
  <path
     d="M14 3h1v1h-1z"
     fill="rgb(116,21,168)"
     id="path19319" />
  <path
     d="M15 3h1v1h-1z"
     fill="rgb(162,37,226)"
     id="path19321" />
  <path
     d="M0 4h1v1h-1z"
     fill="rgb(154,48,211)"
     id="path19323" />
  <path
     d="M1 4h1v1h-1z"
     fill="rgb(107,22,152)"
     id="path19325" />
  <path
     d="M2 4h1v1h-1z"
     fill="rgb(153,83,134)"
     id="path19327" />
  <path
     d="M3 4h1v1h-1z"
     fill="rgb(148,100,101)"
     id="path19329" />
  <path
     d="M4 4h1v1h-1z"
     fill="rgb(107,22,146)"
     id="path19331" />
  <path
     d="M5 4h1v1h-1z"
     fill="rgb(200,191,78)"
     id="path19333" />
  <path
     d="M6 4h1v1h-1z"
     fill="rgb(135,47,127)"
     id="path19335" />
  <path
     d="M7 4h1v1h-1z"
     fill="rgb(122,18,141)"
     id="path19337" />
  <path
     d="M8 4h1v1h-1z"
     fill="rgb(123,17,145)"
     id="path19339" />
  <path
     d="M9 4h1v1h-1z"
     fill="rgb(134,42,131)"
     id="path19341" />
  <path
     d="M10 4h1v1h-1z"
     fill="rgb(183,152,89)"
     id="path19343" />
  <path
     d="M11 4h1v1h-1z"
     fill="rgb(129,61,124)"
     id="path19345" />
  <path
     d="M12 4h1v1h-1z"
     fill="rgb(105,22,151)"
     id="path19347" />
  <path
     d="M13 4h1v1h-1z"
     fill="rgb(214,225,73)"
     id="path19349" />
  <path
     d="M14 4h1v1h-1z"
     fill="rgb(115,21,164)"
     id="path19351" />
  <path
     d="M15 4h1v1h-1z"
     fill="rgb(137,22,196)"
     id="path19353" />
  <path
     d="M0 5h1v1h-1z"
     fill="rgb(120,23,173)"
     id="path19355" />
  <path
     d="M1 5h1v1h-1z"
     fill="rgb(112,22,156)"
     id="path19357" />
  <path
     d="M2 5h1v1h-1z"
     fill="rgb(198,173,84)"
     id="path19359" />
  <path
     d="M3 5h1v1h-1z"
     fill="rgb(219,232,74)"
     id="path19361" />
  <path
     d="M4 5h1v1h-1z"
     fill="rgb(197,178,76)"
     id="path19363" />
  <path
     d="M5 5h1v1h-1z"
     fill="rgb(124,19,141)"
     id="path19365" />
  <path
     d="M6 5h1v1h-1z"
     fill="rgb(114,7,151)"
     id="path19367" />
  <path
     d="M7 5h1v1h-1z"
     fill="rgb(114,14,147)"
     id="path19369" />
  <path
     d="M8 5h1v1h-1z"
     fill="rgb(113,13,146)"
     id="path19371" />
  <path
     d="M9 5h1v1h-1z"
     fill="rgb(117,7,152)"
     id="path19373" />
  <path
     d="M10 5h1v1h-1z"
     fill="rgb(125,20,142)"
     id="path19375" />
  <path
     d="M11 5h1v1h-1z"
     fill="rgb(191,161,75)"
     id="path19377" />
  <path
     d="M12 5h1v1h-1z"
     fill="rgb(214,218,72)"
     id="path19379" />
  <path
     d="M13 5h1v1h-1z"
     fill="rgb(216,233,75)"
     id="path19381" />
  <path
     d="M14 5h1v1h-1z"
     fill="rgb(151,37,189)"
     id="path19383" />
  <path
     d="M15 5h1v1h-1z"
     fill="rgb(122,20,173)"
     id="path19385" />
  <path
     d="M0 6h1v1h-1z"
     fill="rgb(111,24,153)"
     id="path19387" />
  <path
     d="M1 6h1v1h-1z"
     fill="rgb(122,28,166)"
     id="path19389" />
  <path
     d="M2 6h1v1h-1z"
     fill="rgb(216,228,73)"
     id="path19391" />
  <path
     d="M3 6h1v1h-1z"
     fill="rgb(216,230,75)"
     id="path19393" />
  <path
     d="M4 6h1v1h-1z"
     fill="rgb(131,38,131)"
     id="path19395" />
  <path
     d="M5 6h1v1h-1z"
     fill="rgb(115,8,150)"
     id="path19397" />
  <path
     d="M6 6h1v1h-1z"
     fill="rgb(106,44,128)"
     id="path19399" />
  <path
     d="M7 6h1v1h-1z"
     fill="rgb(79,113,92)"
     id="path19401" />
  <path
     d="M8 6h1v1h-1z"
     fill="rgb(77,115,89)"
     id="path19403" />
  <path
     d="M9 6h1v1h-1z"
     fill="rgb(103,40,130)"
     id="path19405" />
  <path
     d="M10 6h1v1h-1z"
     fill="rgb(117,6,150)"
     id="path19407" />
  <path
     d="M11 6h1v1h-1z"
     fill="rgb(151,79,107)"
     id="path19409" />
  <path
     d="M12 6h1v1h-1z"
     fill="rgb(215,229,74)"
     id="path19411" />
  <path
     d="M13 6h1v1h-1z"
     fill="rgb(217,231,73)"
     id="path19413" />
  <path
     d="M14 6h1v1h-1z"
     fill="rgb(175,94,152)"
     id="path19415" />
  <path
     d="M15 6h1v1h-1z"
     fill="rgb(117,19,171)"
     id="path19417" />
  <path
     d="M0 7h1v1h-1z"
     fill="rgb(107,22,152)"
     id="path19419" />
  <path
     d="M1 7h1v1h-1z"
     fill="rgb(134,26,178)"
     id="path19421" />
  <path
     d="M2 7h1v1h-1z"
     fill="rgb(118,39,138)"
     id="path19423" />
  <path
     d="M3 7h1v1h-1z"
     fill="rgb(144,91,108)"
     id="path19425" />
  <path
     d="M4 7h1v1h-1z"
     fill="rgb(119,9,150)"
     id="path19427" />
  <path
     d="M5 7h1v1h-1z"
     fill="rgb(112,12,146)"
     id="path19429" />
  <path
     d="M6 7h1v1h-1z"
     fill="rgb(78,112,91)"
     id="path19431" />
  <path
     d="M7 7h1v1h-1z"
     fill="rgb(22,180,67)"
     id="path19433" />
  <path
     d="M8 7h1v1h-1z"
     fill="rgb(10,184,67)"
     id="path19435" />
  <path
     d="M9 7h1v1h-1z"
     fill="rgb(77,114,92)"
     id="path19437" />
  <path
     d="M10 7h1v1h-1z"
     fill="rgb(114,10,146)"
     id="path19439" />
  <path
     d="M11 7h1v1h-1z"
     fill="rgb(134,46,128)"
     id="path19441" />
  <path
     d="M12 7h1v1h-1z"
     fill="rgb(112,28,146)"
     id="path19443" />
  <path
     d="M13 7h1v1h-1z"
     fill="rgb(116,37,136)"
     id="path19445" />
  <path
     d="M14 7h1v1h-1z"
     fill="rgb(186,128,118)"
     id="path19447" />
  <path
     d="M15 7h1v1h-1z"
     fill="rgb(120,19,175)"
     id="path19449" />
  <path
     d="M0 8h1v1h-1z"
     fill="rgb(121,22,181)"
     id="path19451" />
  <path
     d="M1 8h1v1h-1z"
     fill="rgb(126,26,164)"
     id="path19453" />
  <path
     d="M2 8h1v1h-1z"
     fill="rgb(114,31,141)"
     id="path19455" />
  <path
     d="M3 8h1v1h-1z"
     fill="rgb(117,46,134)"
     id="path19457" />
  <path
     d="M4 8h1v1h-1z"
     fill="rgb(117,5,153)"
     id="path19459" />
  <path
     d="M5 8h1v1h-1z"
     fill="rgb(113,13,147)"
     id="path19461" />
  <path
     d="M6 8h1v1h-1z"
     fill="rgb(73,118,91)"
     id="path19463" />
  <path
     d="M7 8h1v1h-1z"
     fill="rgb(4,187,66)"
     id="path19465" />
  <path
     d="M8 8h1v1h-1z"
     fill="rgb(0,190,66)"
     id="path19467" />
  <path
     d="M9 8h1v1h-1z"
     fill="rgb(71,121,88)"
     id="path19469" />
  <path
     d="M10 8h1v1h-1z"
     fill="rgb(115,10,147)"
     id="path19471" />
  <path
     d="M11 8h1v1h-1z"
     fill="rgb(127,36,132)"
     id="path19473" />
  <path
     d="M12 8h1v1h-1z"
     fill="rgb(112,31,142)"
     id="path19475" />
  <path
     d="M13 8h1v1h-1z"
     fill="rgb(130,63,122)"
     id="path19477" />
  <path
     d="M14 8h1v1h-1z"
     fill="rgb(198,157,98)"
     id="path19479" />
  <path
     d="M15 8h1v1h-1z"
     fill="rgb(121,18,175)"
     id="path19481" />
  <path
     d="M0 9h1v1h-1z"
     fill="rgb(110,21,151)"
     id="path19483" />
  <path
     d="M1 9h1v1h-1z"
     fill="rgb(115,27,160)"
     id="path19485" />
  <path
     d="M2 9h1v1h-1z"
     fill="rgb(216,229,73)"
     id="path19487" />
  <path
     d="M3 9h1v1h-1z"
     fill="rgb(216,231,74)"
     id="path19489" />
  <path
     d="M4 9h1v1h-1z"
     fill="rgb(129,33,142)"
     id="path19491" />
  <path
     d="M5 9h1v1h-1z"
     fill="rgb(114,6,147)"
     id="path19493" />
  <path
     d="M6 9h1v1h-1z"
     fill="rgb(104,41,131)"
     id="path19495" />
  <path
     d="M7 9h1v1h-1z"
     fill="rgb(75,117,86)"
     id="path19497" />
  <path
     d="M8 9h1v1h-1z"
     fill="rgb(71,121,88)"
     id="path19499" />
  <path
     d="M9 9h1v1h-1z"
     fill="rgb(103,42,131)"
     id="path19501" />
  <path
     d="M10 9h1v1h-1z"
     fill="rgb(116,4,148)"
     id="path19503" />
  <path
     d="M11 9h1v1h-1z"
     fill="rgb(147,63,119)"
     id="path19505" />
  <path
     d="M12 9h1v1h-1z"
     fill="rgb(216,226,75)"
     id="path19507" />
  <path
     d="M13 9h1v1h-1z"
     fill="rgb(219,232,75)"
     id="path19509" />
  <path
     d="M14 9h1v1h-1z"
     fill="rgb(194,153,102)"
     id="path19511" />
  <path
     d="M15 9h1v1h-1z"
     fill="rgb(119,21,173)"
     id="path19513" />
  <path
     d="M0 10h1v1h-1z"
     fill="rgb(121,20,178)"
     id="path19515" />
  <path
     d="M1 10h1v1h-1z"
     fill="rgb(107,24,153)"
     id="path19517" />
  <path
     d="M2 10h1v1h-1z"
     fill="rgb(184,137,103)"
     id="path19519" />
  <path
     d="M3 10h1v1h-1z"
     fill="rgb(219,232,74)"
     id="path19521" />
  <path
     d="M4 10h1v1h-1z"
     fill="rgb(207,205,73)"
     id="path19523" />
  <path
     d="M5 10h1v1h-1z"
     fill="rgb(126,17,144)"
     id="path19525" />
  <path
     d="M6 10h1v1h-1z"
     fill="rgb(114,9,148)"
     id="path19527" />
  <path
     d="M7 10h1v1h-1z"
     fill="rgb(116,12,149)"
     id="path19529" />
  <path
     d="M8 10h1v1h-1z"
     fill="rgb(115,12,148)"
     id="path19531" />
  <path
     d="M9 10h1v1h-1z"
     fill="rgb(114,9,150)"
     id="path19533" />
  <path
     d="M10 10h1v1h-1z"
     fill="rgb(131,30,135)"
     id="path19535" />
  <path
     d="M11 10h1v1h-1z"
     fill="rgb(193,177,73)"
     id="path19537" />
  <path
     d="M12 10h1v1h-1z"
     fill="rgb(217,233,74)"
     id="path19539" />
  <path
     d="M13 10h1v1h-1z"
     fill="rgb(216,232,74)"
     id="path19541" />
  <path
     d="M14 10h1v1h-1z"
     fill="rgb(160,78,162)"
     id="path19543" />
  <path
     d="M15 10h1v1h-1z"
     fill="rgb(121,18,177)"
     id="path19545" />
  <path
     d="M0 11h1v1h-1z"
     fill="rgb(169,53,229)"
     id="path19547" />
  <path
     d="M1 11h1v1h-1z"
     fill="rgb(115,19,163)"
     id="path19549" />
  <path
     d="M2 11h1v1h-1z"
     fill="rgb(125,22,177)"
     id="path19551" />
  <path
     d="M3 11h1v1h-1z"
     fill="rgb(184,162,73)"
     id="path19553" />
  <path
     d="M4 11h1v1h-1z"
     fill="rgb(106,23,151)"
     id="path19555" />
  <path
     d="M5 11h1v1h-1z"
     fill="rgb(200,190,73)"
     id="path19557" />
  <path
     d="M6 11h1v1h-1z"
     fill="rgb(161,106,93)"
     id="path19559" />
  <path
     d="M7 11h1v1h-1z"
     fill="rgb(140,55,119)"
     id="path19561" />
  <path
     d="M8 11h1v1h-1z"
     fill="rgb(138,47,122)"
     id="path19563" />
  <path
     d="M9 11h1v1h-1z"
     fill="rgb(154,90,104)"
     id="path19565" />
  <path
     d="M10 11h1v1h-1z"
     fill="rgb(205,201,70)"
     id="path19567" />
  <path
     d="M11 11h1v1h-1z"
     fill="rgb(109,22,146)"
     id="path19569" />
  <path
     d="M12 11h1v1h-1z"
     fill="rgb(140,82,108)"
     id="path19571" />
  <path
     d="M13 11h1v1h-1z"
     fill="rgb(210,191,86)"
     id="path19573" />
  <path
     d="M14 11h1v1h-1z"
     fill="rgb(147,17,222)"
     id="path19575" />
  <path
     d="M15 11h1v1h-1z"
     fill="rgb(146,18,216)"
     id="path19577" />
  <path
     d="M0 12h1v1h-1z"
     fill="rgb(240,219,252)"
     id="path19579" />
  <path
     d="M1 12h1v1h-1z"
     fill="rgb(149,18,222)"
     id="path19581" />
  <path
     d="M2 12h1v1h-1z"
     fill="rgb(117,19,171)"
     id="path19583" />
  <path
     d="M3 12h1v1h-1z"
     fill="rgb(144,68,136)"
     id="path19585" />
  <path
     d="M4 12h1v1h-1z"
     fill="rgb(168,136,81)"
     id="path19587" />
  <path
     d="M5 12h1v1h-1z"
     fill="rgb(214,230,73)"
     id="path19589" />
  <path
     d="M6 12h1v1h-1z"
     fill="rgb(219,230,74)"
     id="path19591" />
  <path
     d="M7 12h1v1h-1z"
     fill="rgb(119,48,133)"
     id="path19593" />
  <path
     d="M8 12h1v1h-1z"
     fill="rgb(119,46,134)"
     id="path19595" />
  <path
     d="M9 12h1v1h-1z"
     fill="rgb(221,233,75)"
     id="path19597" />
  <path
     d="M10 12h1v1h-1z"
     fill="rgb(217,233,75)"
     id="path19599" />
  <path
     d="M11 12h1v1h-1z"
     fill="rgb(173,144,81)"
     id="path19601" />
  <path
     d="M12 12h1v1h-1z"
     fill="rgb(177,124,108)"
     id="path19603" />
  <path
     d="M13 12h1v1h-1z"
     fill="rgb(140,20,203)"
     id="path19605" />
  <path
     d="M14 12h1v1h-1z"
     fill="rgb(133,17,193)"
     id="path19607" />
  <path
     d="M15 12h1v1h-1z"
     fill="rgb(207,143,241)"
     id="path19609" />
  <path
     d="M1 13h1v1h-1z"
     fill="rgb(198,119,236)"
     id="path19613" />
  <path
     d="M2 13h1v1h-1z"
     fill="rgb(130,18,193)"
     id="path19615" />
  <path
     d="M3 13h1v1h-1z"
     fill="rgb(106,21,151)"
     id="path19617" />
  <path
     d="M4 13h1v1h-1z"
     fill="rgb(128,27,172)"
     id="path19619" />
  <path
     d="M5 13h1v1h-1z"
     fill="rgb(209,191,76)"
     id="path19621" />
  <path
     d="M6 13h1v1h-1z"
     fill="rgb(218,223,72)"
     id="path19623" />
  <path
     d="M7 13h1v1h-1z"
     fill="rgb(120,49,134)"
     id="path19625" />
  <path
     d="M8 13h1v1h-1z"
     fill="rgb(120,50,131)"
     id="path19627" />
  <path
     d="M9 13h1v1h-1z"
     fill="rgb(218,231,74)"
     id="path19629" />
  <path
     d="M10 13h1v1h-1z"
     fill="rgb(214,223,73)"
     id="path19631" />
  <path
     d="M11 13h1v1h-1z"
     fill="rgb(170,90,157)"
     id="path19633" />
  <path
     d="M12 13h1v1h-1z"
     fill="rgb(117,19,171)"
     id="path19635" />
  <path
     d="M13 13h1v1h-1z"
     fill="rgb(117,20,170)"
     id="path19637" />
  <path
     d="M14 13h1v1h-1z"
     fill="rgb(141,29,199)"
     id="path19639" />
  <path
     d="M15 13h1v1h-1z"
     fill="rgb(248,238,254)"
     id="path19641" />
  <path
     d="M2 14h1v1h-1z"
     fill="rgb(212,144,240)"
     id="path19647" />
  <path
     d="M3 14h1v1h-1z"
     fill="rgb(129,19,186)"
     id="path19649" />
  <path
     d="M4 14h1v1h-1z"
     fill="rgb(106,21,150)"
     id="path19651" />
  <path
     d="M5 14h1v1h-1z"
     fill="rgb(110,21,152)"
     id="path19653" />
  <path
     d="M6 14h1v1h-1z"
     fill="rgb(126,20,181)"
     id="path19655" />
  <path
     d="M7 14h1v1h-1z"
     fill="rgb(119,22,166)"
     id="path19657" />
  <path
     d="M8 14h1v1h-1z"
     fill="rgb(137,25,189)"
     id="path19659" />
  <path
     d="M9 14h1v1h-1z"
     fill="rgb(139,20,199)"
     id="path19661" />
  <path
     d="M10 14h1v1h-1z"
     fill="rgb(133,17,195)"
     id="path19663" />
  <path
     d="M11 14h1v1h-1z"
     fill="rgb(112,21,163)"
     id="path19665" />
  <path
     d="M12 14h1v1h-1z"
     fill="rgb(137,22,200)"
     id="path19667" />
  <path
     d="M13 14h1v1h-1z"
     fill="rgb(171,59,229)"
     id="path19669" />
  <path
     d="M14 14h1v1h-1z"
     fill="rgb(232,208,251)"
     id="path19671" />
  <path
     d="M3 15h1v1h-1z"
     fill="rgb(245,230,251)"
     id="path19679" />
  <path
     d="M4 15h1v1h-1z"
     fill="rgb(170,61,223)"
     id="path19681" />
  <path
     d="M5 15h1v1h-1z"
     fill="rgb(124,23,179)"
     id="path19683" />
  <path
     d="M6 15h1v1h-1z"
     fill="rgb(117,20,168)"
     id="path19685" />
  <path
     d="M7 15h1v1h-1z"
     fill="rgb(111,21,155)"
     id="path19687" />
  <path
     d="M8 15h1v1h-1z"
     fill="rgb(112,23,161)"
     id="path19689" />
  <path
     d="M9 15h1v1h-1z"
     fill="rgb(114,20,162)"
     id="path19691" />
  <path
     d="M10 15h1v1h-1z"
     fill="rgb(120,26,168)"
     id="path19693" />
  <path
     d="M11 15h1v1h-1z"
     fill="rgb(166,63,215)"
     id="path19695" />
  <path
     d="M12 15h1v1h-1z"
     fill="rgb(239,222,249)"
     id="path19697" />
</svg>
