<?xml version="1.0" encoding="UTF-8" standalone="no"?>
<!-- generated at drububu.com  -->

<svg
   xmlns:dc="http://purl.org/dc/elements/1.1/"
   xmlns:cc="http://creativecommons.org/ns#"
   xmlns:rdf="http://www.w3.org/1999/02/22-rdf-syntax-ns#"
   xmlns:svg="http://www.w3.org/2000/svg"
   xmlns="http://www.w3.org/2000/svg"
   xmlns:sodipodi="http://sodipodi.sourceforge.net/DTD/sodipodi-0.dtd"
   xmlns:inkscape="http://www.inkscape.org/namespaces/inkscape"
   version="1.1"
   preserveAspectRatio="xMinYMin meet"
   x="0px"
   y="0px"
   width="16px"
   height="16px"
   viewBox="0 0 16 16"
   id="svg32957"
   inkscape:version="0.48.5 r10040"
   sodipodi:docname="locust.core.svg">
  <metadata
     id="metadata33433">
    <rdf:RDF>
      <cc:Work
         rdf:about="">
        <dc:format>image/svg+xml</dc:format>
        <dc:type
           rdf:resource="http://purl.org/dc/dcmitype/StillImage" />
      </cc:Work>
    </rdf:RDF>
  </metadata>
  <defs
     id="defs33431" />
  <sodipodi:namedview
     pagecolor="#ffffff"
     bordercolor="#666666"
     borderopacity="1"
     objecttolerance="10"
     gridtolerance="10"
     guidetolerance="10"
     inkscape:pageopacity="0"
     inkscape:pageshadow="2"
     inkscape:window-width="640"
     inkscape:window-height="480"
     id="namedview33429"
     showgrid="false"
     inkscape:zoom="14.75"
     inkscape:cx="4.3835155"
     inkscape:cy="2.7873016"
     inkscape:window-x="0"
     inkscape:window-y="0"
     inkscape:window-maximized="0"
     inkscape:current-layer="svg32957" />
  <path
     d="M3 0h1v1h-1z"
     fill="rgb(174,69,227)"
     id="path32961" />
  <path
     d="M4 0h1v1h-1z"
     fill="rgb(139,0,212)"
     id="path32963" />
  <path
     d="M5 0h1v1h-1z"
     fill="rgb(119,0,175)"
     id="path32965" />
  <path
     d="M6 0h1v1h-1z"
     fill="rgb(108,6,155)"
     id="path32967" />
  <path
     d="M7 0h1v1h-1z"
     fill="rgb(115,5,170)"
     id="path32969" />
  <path
     d="M8 0h1v1h-1z"
     fill="rgb(120,0,175)"
     id="path32971" />
  <path
     d="M9 0h1v1h-1z"
     fill="rgb(129,0,194)"
     id="path32973" />
  <path
     d="M10 0h1v1h-1z"
     fill="rgb(130,0,195)"
     id="path32975" />
  <path
     d="M11 0h1v1h-1z"
     fill="rgb(151,34,212)"
     id="path32977" />
  <path
     d="M12 0h1v1h-1z"
     fill="rgb(140,0,204)"
     id="path32979" />
  <path
     d="M2 1h1v1h-1z"
     fill="rgb(141,29,201)"
     id="path32983" />
  <path
     d="M3 1h1v1h-1z"
     fill="rgb(109,0,163)"
     id="path32985" />
  <path
     d="M4 1h1v1h-1z"
     fill="rgb(113,2,166)"
     id="path32987" />
  <path
     d="M5 1h1v1h-1z"
     fill="rgb(126,4,185)"
     id="path32989" />
  <path
     d="M6 1h1v1h-1z"
     fill="rgb(123,16,170)"
     id="path32991" />
  <path
     d="M7 1h1v1h-1z"
     fill="rgb(126,19,170)"
     id="path32993" />
  <path
     d="M8 1h1v1h-1z"
     fill="rgb(136,29,173)"
     id="path32995" />
  <path
     d="M9 1h1v1h-1z"
     fill="rgb(138,31,178)"
     id="path32997" />
  <path
     d="M10 1h1v1h-1z"
     fill="rgb(134,0,194)"
     id="path32999" />
  <path
     d="M11 1h1v1h-1z"
     fill="rgb(118,0,173)"
     id="path33001" />
  <path
     d="M12 1h1v1h-1z"
     fill="rgb(106,6,154)"
     id="path33003" />
  <path
     d="M13 1h1v1h-1z"
     fill="rgb(131,0,191)"
     id="path33005" />
  <path
     d="M1 2h1v1h-1z"
     fill="rgb(155,49,218)"
     id="path33007" />
  <path
     d="M2 2h1v1h-1z"
     fill="rgb(110,0,161)"
     id="path33009" />
  <path
     d="M3 2h1v1h-1z"
     fill="rgb(113,2,168)"
     id="path33011" />
  <path
     d="M4 2h1v1h-1z"
     fill="rgb(194,157,98)"
     id="path33013" />
  <path
     d="M5 2h1v1h-1z"
     fill="rgb(218,234,50)"
     id="path33015" />
  <path
     d="M6 2h1v1h-1z"
     fill="rgb(220,233,51)"
     id="path33017" />
  <path
     d="M7 2h1v1h-1z"
     fill="rgb(126,60,121)"
     id="path33019" />
  <path
     d="M8 2h1v1h-1z"
     fill="rgb(121,50,131)"
     id="path33021" />
  <path
     d="M9 2h1v1h-1z"
     fill="rgb(215,234,51)"
     id="path33023" />
  <path
     d="M10 2h1v1h-1z"
     fill="rgb(218,233,51)"
     id="path33025" />
  <path
     d="M11 2h1v1h-1z"
     fill="rgb(192,150,98)"
     id="path33027" />
  <path
     d="M12 2h1v1h-1z"
     fill="rgb(152,45,186)"
     id="path33029" />
  <path
     d="M13 2h1v1h-1z"
     fill="rgb(103,6,150)"
     id="path33031" />
  <path
     d="M14 2h1v1h-1z"
     fill="rgb(126,0,192)"
     id="path33033" />
  <path
     d="M0 3h1v1h-1z"
     fill="rgb(142,8,205)"
     id="path33035" />
  <path
     d="M1 3h1v1h-1z"
     fill="rgb(94,6,142)"
     id="path33037" />
  <path
     d="M2 3h1v1h-1z"
     fill="rgb(108,10,153)"
     id="path33039" />
  <path
     d="M3 3h1v1h-1z"
     fill="rgb(146,86,118)"
     id="path33041" />
  <path
     d="M4 3h1v1h-1z"
     fill="rgb(151,110,92)"
     id="path33043" />
  <path
     d="M5 3h1v1h-1z"
     fill="rgb(217,235,51)"
     id="path33045" />
  <path
     d="M6 3h1v1h-1z"
     fill="rgb(218,232,52)"
     id="path33047" />
  <path
     d="M7 3h1v1h-1z"
     fill="rgb(129,60,127)"
     id="path33049" />
  <path
     d="M8 3h1v1h-1z"
     fill="rgb(108,15,148)"
     id="path33051" />
  <path
     d="M9 3h1v1h-1z"
     fill="rgb(218,232,52)"
     id="path33053" />
  <path
     d="M10 3h1v1h-1z"
     fill="rgb(218,233,50)"
     id="path33055" />
  <path
     d="M11 3h1v1h-1z"
     fill="rgb(203,210,52)"
     id="path33057" />
  <path
     d="M12 3h1v1h-1z"
     fill="rgb(188,174,62)"
     id="path33059" />
  <path
     d="M13 3h1v1h-1z"
     fill="rgb(147,46,182)"
     id="path33061" />
  <path
     d="M14 3h1v1h-1z"
     fill="rgb(110,3,164)"
     id="path33063" />
  <path
     d="M15 3h1v1h-1z"
     fill="rgb(153,8,219)"
     id="path33065" />
  <path
     d="M0 4h1v1h-1z"
     fill="rgb(139,28,199)"
     id="path33067" />
  <path
     d="M1 4h1v1h-1z"
     fill="rgb(104,9,151)"
     id="path33069" />
  <path
     d="M2 4h1v1h-1z"
     fill="rgb(151,82,135)"
     id="path33071" />
  <path
     d="M3 4h1v1h-1z"
     fill="rgb(146,100,101)"
     id="path33073" />
  <path
     d="M4 4h1v1h-1z"
     fill="rgb(106,10,149)"
     id="path33075" />
  <path
     d="M5 4h1v1h-1z"
     fill="rgb(199,193,66)"
     id="path33077" />
  <path
     d="M6 4h1v1h-1z"
     fill="rgb(133,44,129)"
     id="path33079" />
  <path
     d="M7 4h1v1h-1z"
     fill="rgb(120,6,143)"
     id="path33081" />
  <path
     d="M8 4h1v1h-1z"
     fill="rgb(121,2,148)"
     id="path33083" />
  <path
     d="M9 4h1v1h-1z"
     fill="rgb(133,38,133)"
     id="path33085" />
  <path
     d="M10 4h1v1h-1z"
     fill="rgb(182,153,84)"
     id="path33087" />
  <path
     d="M11 4h1v1h-1z"
     fill="rgb(127,60,126)"
     id="path33089" />
  <path
     d="M12 4h1v1h-1z"
     fill="rgb(104,8,154)"
     id="path33091" />
  <path
     d="M13 4h1v1h-1z"
     fill="rgb(214,227,52)"
     id="path33093" />
  <path
     d="M14 4h1v1h-1z"
     fill="rgb(114,4,167)"
     id="path33095" />
  <path
     d="M15 4h1v1h-1z"
     fill="rgb(135,0,198)"
     id="path33097" />
  <path
     d="M0 5h1v1h-1z"
     fill="rgb(96,8,141)"
     id="path33099" />
  <path
     d="M1 5h1v1h-1z"
     fill="rgb(111,7,159)"
     id="path33101" />
  <path
     d="M2 5h1v1h-1z"
     fill="rgb(196,174,75)"
     id="path33103" />
  <path
     d="M3 5h1v1h-1z"
     fill="rgb(218,233,50)"
     id="path33105" />
  <path
     d="M4 5h1v1h-1z"
     fill="rgb(195,179,65)"
     id="path33107" />
  <path
     d="M5 5h1v1h-1z"
     fill="rgb(122,6,144)"
     id="path33109" />
  <path
     d="M6 5h1v1h-1z"
     fill="rgb(113,0,154)"
     id="path33111" />
  <path
     d="M7 5h1v1h-1z"
     fill="rgb(113,0,149)"
     id="path33113" />
  <path
     d="M8 5h1v1h-1z"
     fill="rgb(112,0,148)"
     id="path33115" />
  <path
     d="M9 5h1v1h-1z"
     fill="rgb(116,0,155)"
     id="path33117" />
  <path
     d="M10 5h1v1h-1z"
     fill="rgb(123,7,145)"
     id="path33119" />
  <path
     d="M11 5h1v1h-1z"
     fill="rgb(189,162,66)"
     id="path33121" />
  <path
     d="M12 5h1v1h-1z"
     fill="rgb(213,220,51)"
     id="path33123" />
  <path
     d="M13 5h1v1h-1z"
     fill="rgb(216,235,51)"
     id="path33125" />
  <path
     d="M14 5h1v1h-1z"
     fill="rgb(150,25,193)"
     id="path33127" />
  <path
     d="M15 5h1v1h-1z"
     fill="rgb(121,0,176)"
     id="path33129" />
  <path
     d="M0 6h1v1h-1z"
     fill="rgb(94,14,132)"
     id="path33131" />
  <path
     d="M1 6h1v1h-1z"
     fill="rgb(121,16,169)"
     id="path33133" />
  <path
     d="M2 6h1v1h-1z"
     fill="rgb(216,230,51)"
     id="path33135" />
  <path
     d="M3 6h1v1h-1z"
     fill="rgb(216,232,53)"
     id="path33137" />
  <path
     d="M4 6h1v1h-1z"
     fill="rgb(130,34,133)"
     id="path33139" />
  <path
     d="M5 6h1v1h-1z"
     fill="rgb(114,0,153)"
     id="path33141" />
  <path
     d="M6 6h1v1h-1z"
     fill="rgb(105,41,130)"
     id="path33143" />
  <path
     d="M7 6h1v1h-1z"
     fill="rgb(81,114,91)"
     id="path33145" />
  <path
     d="M8 6h1v1h-1z"
     fill="rgb(79,116,88)"
     id="path33147" />
  <path
     d="M9 6h1v1h-1z"
     fill="rgb(101,37,133)"
     id="path33149" />
  <path
     d="M10 6h1v1h-1z"
     fill="rgb(116,0,153)"
     id="path33151" />
  <path
     d="M11 6h1v1h-1z"
     fill="rgb(149,78,108)"
     id="path33153" />
  <path
     d="M12 6h1v1h-1z"
     fill="rgb(215,231,52)"
     id="path33155" />
  <path
     d="M13 6h1v1h-1z"
     fill="rgb(217,233,49)"
     id="path33157" />
  <path
     d="M14 6h1v1h-1z"
     fill="rgb(173,93,151)"
     id="path33159" />
  <path
     d="M15 6h1v1h-1z"
     fill="rgb(116,0,174)"
     id="path33161" />
  <path
     d="M0 7h1v1h-1z"
     fill="rgb(106,8,155)"
     id="path33163" />
  <path
     d="M1 7h1v1h-1z"
     fill="rgb(133,9,182)"
     id="path33165" />
  <path
     d="M2 7h1v1h-1z"
     fill="rgb(117,34,141)"
     id="path33167" />
  <path
     d="M3 7h1v1h-1z"
     fill="rgb(143,91,108)"
     id="path33169" />
  <path
     d="M4 7h1v1h-1z"
     fill="rgb(118,0,153)"
     id="path33171" />
  <path
     d="M5 7h1v1h-1z"
     fill="rgb(111,0,149)"
     id="path33173" />
  <path
     d="M6 7h1v1h-1z"
     fill="rgb(80,113,90)"
     id="path33175" />
  <path
     d="M7 7h1v1h-1z"
     fill="rgb(42,182,56)"
     id="path33177" />
  <path
     d="M8 7h1v1h-1z"
     fill="rgb(37,186,55)"
     id="path33179" />
  <path
     d="M9 7h1v1h-1z"
     fill="rgb(79,115,91)"
     id="path33181" />
  <path
     d="M10 7h1v1h-1z"
     fill="rgb(113,0,149)"
     id="path33183" />
  <path
     d="M11 7h1v1h-1z"
     fill="rgb(132,43,130)"
     id="path33185" />
  <path
     d="M12 7h1v1h-1z"
     fill="rgb(111,19,149)"
     id="path33187" />
  <path
     d="M13 7h1v1h-1z"
     fill="rgb(115,32,139)"
     id="path33189" />
  <path
     d="M14 7h1v1h-1z"
     fill="rgb(184,128,116)"
     id="path33191" />
  <path
     d="M15 7h1v2h-1z"
     fill="rgb(120,0,179)"
     id="path33193" />
  <path
     d="M0 8h1v1h-1z"
     fill="rgb(121,0,185)"
     id="path33195" />
  <path
     d="M1 8h1v1h-1z"
     fill="rgb(125,13,167)"
     id="path33197" />
  <path
     d="M2 8h1v1h-1z"
     fill="rgb(112,25,144)"
     id="path33199" />
  <path
     d="M3 8h1v1h-1z"
     fill="rgb(116,42,137)"
     id="path33201" />
  <path
     d="M4 8h1v1h-1z"
     fill="rgb(116,0,156)"
     id="path33203" />
  <path
     d="M5 8h1v1h-1z"
     fill="rgb(112,0,150)"
     id="path33205" />
  <path
     d="M6 8h1v1h-1z"
     fill="rgb(75,119,89)"
     id="path33207" />
  <path
     d="M7 8h1v1h-1z"
     fill="rgb(36,189,54)"
     id="path33209" />
  <path
     d="M8 8h1v1h-1z"
     fill="rgb(34,192,53)"
     id="path33211" />
  <path
     d="M9 8h1v1h-1z"
     fill="rgb(74,122,87)"
     id="path33213" />
  <path
     d="M10 8h1v1h-1z"
     fill="rgb(114,0,149)"
     id="path33215" />
  <path
     d="M11 8h1v1h-1z"
     fill="rgb(126,32,135)"
     id="path33217" />
  <path
     d="M12 8h1v1h-1z"
     fill="rgb(110,23,145)"
     id="path33219" />
  <path
     d="M13 8h1v1h-1z"
     fill="rgb(128,62,123)"
     id="path33221" />
  <path
     d="M14 8h1v1h-1z"
     fill="rgb(196,158,93)"
     id="path33223" />
  <path
     d="M0 9h1v1h-1z"
     fill="rgb(109,6,154)"
     id="path33225" />
  <path
     d="M1 9h1v1h-1z"
     fill="rgb(114,15,163)"
     id="path33227" />
  <path
     d="M2 9h1v1h-1z"
     fill="rgb(216,231,50)"
     id="path33229" />
  <path
     d="M3 9h1v1h-1z"
     fill="rgb(216,233,51)"
     id="path33231" />
  <path
     d="M4 9h1v1h-1z"
     fill="rgb(127,26,145)"
     id="path33233" />
  <path
     d="M5 9h1v1h-1z"
     fill="rgb(113,0,150)"
     id="path33235" />
  <path
     d="M6 9h1v1h-1z"
     fill="rgb(103,37,134)"
     id="path33237" />
  <path
     d="M7 9h1v1h-1z"
     fill="rgb(77,118,85)"
     id="path33239" />
  <path
     d="M8 9h1v1h-1z"
     fill="rgb(74,122,87)"
     id="path33241" />
  <path
     d="M9 9h1v1h-1z"
     fill="rgb(102,39,134)"
     id="path33243" />
  <path
     d="M10 9h1v1h-1z"
     fill="rgb(115,0,151)"
     id="path33245" />
  <path
     d="M11 9h1v1h-1z"
     fill="rgb(145,61,120)"
     id="path33247" />
  <path
     d="M12 9h1v1h-1z"
     fill="rgb(216,228,53)"
     id="path33249" />
  <path
     d="M13 9h1v1h-1z"
     fill="rgb(219,234,52)"
     id="path33251" />
  <path
     d="M14 9h1v1h-1z"
     fill="rgb(192,154,98)"
     id="path33253" />
  <path
     d="M15 9h1v1h-1z"
     fill="rgb(118,0,176)"
     id="path33255" />
  <path
     d="M0 10h1v1h-1z"
     fill="rgb(121,0,182)"
     id="path33257" />
  <path
     d="M1 10h1v1h-1z"
     fill="rgb(106,11,156)"
     id="path33259" />
  <path
     d="M2 10h1v1h-1z"
     fill="rgb(182,138,101)"
     id="path33261" />
  <path
     d="M3 10h1v1h-1z"
     fill="rgb(219,234,51)"
     id="path33263" />
  <path
     d="M4 10h1v1h-1z"
     fill="rgb(206,207,55)"
     id="path33265" />
  <path
     d="M5 10h1v1h-1z"
     fill="rgb(124,2,147)"
     id="path33267" />
  <path
     d="M6 10h1v1h-1z"
     fill="rgb(113,0,151)"
     id="path33269" />
  <path
     d="M7 10h1v1h-1z"
     fill="rgb(115,0,152)"
     id="path33271" />
  <path
     d="M8 10h1v1h-1z"
     fill="rgb(114,0,151)"
     id="path33273" />
  <path
     d="M9 10h1v1h-1z"
     fill="rgb(113,0,153)"
     id="path33275" />
  <path
     d="M10 10h1v1h-1z"
     fill="rgb(130,24,138)"
     id="path33277" />
  <path
     d="M11 10h1v1h-1z"
     fill="rgb(191,178,62)"
     id="path33279" />
  <path
     d="M12 10h1v1h-1z"
     fill="rgb(217,235,51)"
     id="path33281" />
  <path
     d="M13 10h1v1h-1z"
     fill="rgb(216,234,50)"
     id="path33283" />
  <path
     d="M14 10h1v1h-1z"
     fill="rgb(159,75,165)"
     id="path33285" />
  <path
     d="M15 10h1v1h-1z"
     fill="rgb(121,0,181)"
     id="path33287" />
  <path
     d="M0 11h1v1h-1z"
     fill="rgb(168,39,233)"
     id="path33289" />
  <path
     d="M1 11h1v1h-1z"
     fill="rgb(114,1,166)"
     id="path33291" />
  <path
     d="M2 11h1v1h-1z"
     fill="rgb(124,0,181)"
     id="path33293" />
  <path
     d="M3 11h1v1h-1z"
     fill="rgb(182,163,64)"
     id="path33295" />
  <path
     d="M4 11h1v1h-1z"
     fill="rgb(105,10,154)"
     id="path33297" />
  <path
     d="M5 11h1v1h-1z"
     fill="rgb(198,191,58)"
     id="path33299" />
  <path
     d="M6 11h1v1h-1z"
     fill="rgb(159,106,92)"
     id="path33301" />
  <path
     d="M7 11h1v1h-1z"
     fill="rgb(138,53,120)"
     id="path33303" />
  <path
     d="M8 11h1v1h-1z"
     fill="rgb(136,44,124)"
     id="path33305" />
  <path
     d="M9 11h1v1h-1z"
     fill="rgb(152,90,104)"
     id="path33307" />
  <path
     d="M10 11h1v1h-1z"
     fill="rgb(204,203,53)"
     id="path33309" />
  <path
     d="M11 11h1v1h-1z"
     fill="rgb(108,10,149)"
     id="path33311" />
  <path
     d="M12 11h1v1h-1z"
     fill="rgb(139,82,111)"
     id="path33313" />
  <path
     d="M13 11h1v1h-1z"
     fill="rgb(208,192,76)"
     id="path33315" />
  <path
     d="M14 11h1v1h-1z"
     fill="rgb(146,0,226)"
     id="path33317" />
  <path
     d="M15 11h1v1h-1z"
     fill="rgb(142,0,216)"
     id="path33319" />
  <path
     d="M0 12h1v1h-1z"
     fill="rgb(176,71,236)"
     id="path33321" />
  <path
     d="M1 12h1v1h-1z"
     fill="rgb(138,0,211)"
     id="path33323" />
  <path
     d="M2 12h1v1h-1z"
     fill="rgb(115,0,173)"
     id="path33325" />
  <path
     d="M3 12h1v1h-1z"
     fill="rgb(142,66,138)"
     id="path33327" />
  <path
     d="M4 12h1v1h-1z"
     fill="rgb(167,137,77)"
     id="path33329" />
  <path
     d="M5 12h1v1h-1z"
     fill="rgb(214,232,50)"
     id="path33331" />
  <path
     d="M6 12h1v1h-1z"
     fill="rgb(219,232,51)"
     id="path33333" />
  <path
     d="M7 12h1v1h-1z"
     fill="rgb(118,45,135)"
     id="path33335" />
  <path
     d="M8 12h1v1h-1z"
     fill="rgb(118,42,136)"
     id="path33337" />
  <path
     d="M9 12h1v1h-1z"
     fill="rgb(221,235,51)"
     id="path33339" />
  <path
     d="M10 12h1v1h-1z"
     fill="rgb(217,234,52)"
     id="path33341" />
  <path
     d="M11 12h1v1h-1z"
     fill="rgb(172,145,75)"
     id="path33343" />
  <path
     d="M12 12h1v1h-1z"
     fill="rgb(175,124,107)"
     id="path33345" />
  <path
     d="M13 12h1v1h-1z"
     fill="rgb(139,0,207)"
     id="path33347" />
  <path
     d="M14 12h1v1h-1z"
     fill="rgb(112,0,165)"
     id="path33349" />
  <path
     d="M15 12h1v1h-1z"
     fill="rgb(154,36,220)"
     id="path33351" />
  <path
     d="M1 13h1v1h-1z"
     fill="rgb(151,35,212)"
     id="path33355" />
  <path
     d="M2 13h1v1h-1z"
     fill="rgb(114,0,173)"
     id="path33357" />
  <path
     d="M3 13h1v1h-1z"
     fill="rgb(105,7,153)"
     id="path33359" />
  <path
     d="M4 13h1v1h-1z"
     fill="rgb(127,13,175)"
     id="path33361" />
  <path
     d="M5 13h1v1h-1z"
     fill="rgb(207,192,63)"
     id="path33363" />
  <path
     d="M6 13h1v1h-1z"
     fill="rgb(217,225,50)"
     id="path33365" />
  <path
     d="M7 13h1v1h-1z"
     fill="rgb(119,46,136)"
     id="path33367" />
  <path
     d="M8 13h1v1h-1z"
     fill="rgb(119,47,133)"
     id="path33369" />
  <path
     d="M9 13h1v1h-1z"
     fill="rgb(218,233,51)"
     id="path33371" />
  <path
     d="M10 13h1v1h-1z"
     fill="rgb(214,225,51)"
     id="path33373" />
  <path
     d="M11 13h1v1h-1z"
     fill="rgb(168,89,159)"
     id="path33375" />
  <path
     d="M12 13h1v1h-1z"
     fill="rgb(116,0,174)"
     id="path33377" />
  <path
     d="M13 13h1v1h-1z"
     fill="rgb(104,4,154)"
     id="path33379" />
  <path
     d="M14 13h1v1h-1z"
     fill="rgb(100,13,144)"
     id="path33381" />
  <path
     d="M2 14h1v1h-1z"
     fill="rgb(155,31,212)"
     id="path33385" />
  <path
     d="M3 14h1v1h-1z"
     fill="rgb(115,0,173)"
     id="path33387" />
  <path
     d="M4 14h1v1h-1z"
     fill="rgb(105,7,153)"
     id="path33389" />
  <path
     d="M5 14h1v1h-1z"
     fill="rgb(109,6,155)"
     id="path33391" />
  <path
     d="M6 14h1v1h-1z"
     fill="rgb(126,0,185)"
     id="path33393" />
  <path
     d="M7 14h1v1h-1z"
     fill="rgb(118,4,169)"
     id="path33395" />
  <path
     d="M8 14h1v1h-1z"
     fill="rgb(136,3,195)"
     id="path33397" />
  <path
     d="M9 14h1v1h-1z"
     fill="rgb(138,0,203)"
     id="path33399" />
  <path
     d="M10 14h1v1h-1z"
     fill="rgb(132,0,199)"
     id="path33401" />
  <path
     d="M11 14h1v1h-1z"
     fill="rgb(102,7,151)"
     id="path33403" />
  <path
     d="M12 14h1v1h-1z"
     fill="rgb(131,0,198)"
     id="path33405" />
  <path
     d="M13 14h1v1h-1z"
     fill="rgb(155,26,217)"
     id="path33407" />
  <path
     d="M3 15h1v1h-1z"
     fill="rgb(146,24,217)"
     id="path33409" />
  <path
     d="M4 15h1v1h-1z"
     fill="rgb(150,33,209)"
     id="path33411" />
  <path
     d="M5 15h1v1h-1z"
     fill="rgb(110,6,162)"
     id="path33413" />
  <path
     d="M6 15h1v1h-1z"
     fill="rgb(109,2,160)"
     id="path33415" />
  <path
     d="M7 15h1v1h-1z"
     fill="rgb(105,7,152)"
     id="path33417" />
  <path
     d="M8 15h1v1h-1z"
     fill="rgb(108,9,159)"
     id="path33419" />
  <path
     d="M9 15h1v1h-1z"
     fill="rgb(108,4,157)"
     id="path33421" />
  <path
     d="M10 15h1v1h-1z"
     fill="rgb(112,12,161)"
     id="path33423" />
  <path
     d="M11 15h1v1h-1z"
     fill="rgb(129,31,178)"
     id="path33425" />
  <path
     d="M12 15h1v1h-1z"
     fill="rgb(128,0,186)"
     id="path33427" />
</svg>
