<?xml version="1.0" encoding="utf-8"?>
<!-- generated at drububu.com  -->
<!DOCTYPE svg PUBLIC "-//W3C//DTD SVG 1.1//EN" "http://www.w3.org/Graphics/SVG/1.1/DTD/svg11.dtd">
<svg version="1.1" preserveAspectRatio="xMinYMin meet" xmlns="http://www.w3.org/2000/svg" xmlns:xlink="http://www.w3.org/1999/xlink" x="0px" y="0px" width="16px" height="16px" viewBox="0 0 16 16">
<path d="M0 0h1v1h-1z" fill="rgb(255,254,255)"/>
<path d="M1 0h1v1h-1z" fill="rgb(254,255,255)"/>
<path d="M2 0h1v1h2v2h-2v-1h-1z" fill="rgb(255,255,255)"/>
<path d="M3 0h1v1h-1z" fill="rgb(255,255,253)"/>
<path d="M4 0h1v1h-1z" fill="rgb(255,254,255)"/>
<path d="M5 0h1v1h-1z" fill="rgb(255,255,255)"/>
<path d="M6 0h1v1h-1z" fill="rgb(253,255,252)"/>
<path d="M7 0h2v1h-2z" fill="rgb(255,254,255)"/>
<path d="M9 0h1v1h-1z" fill="rgb(254,255,253)"/>
<path d="M10 0h1v1h-1z" fill="rgb(255,254,255)"/>
<path d="M11 0h1v1h-1z" fill="rgb(255,255,253)"/>
<path d="M12 0h1v1h-1z" fill="rgb(255,255,255)"/>
<path d="M13 0h1v1h-1z" fill="rgb(255,255,253)"/>
<path d="M14 0h1v1h-1z" fill="rgb(254,255,253)"/>
<path d="M15 0h1v1h-1z" fill="rgb(255,254,255)"/>
<path d="M0 1h1v1h-1z" fill="rgb(255,255,255)"/>
<path d="M1 1h1v1h-1z" fill="rgb(255,255,251)"/>
<path d="M5 1h1v1h-1z" fill="rgb(255,255,253)"/>
<path d="M6 1h2v1h-2z" fill="rgb(255,255,255)"/>
<path d="M8 1h1v1h-1z" fill="rgb(254,255,255)"/>
<path d="M9 1h1v1h-1z" fill="rgb(255,255,253)"/>
<path d="M10 1h1v3h-1v1h-1v-1h-1v-1h1v-1h1z" fill="rgb(255,255,255)"/>
<path d="M11 1h2v1h-2z" fill="rgb(254,255,255)"/>
<path d="M13 1h2v1h-2z" fill="rgb(255,255,255)"/>
<path d="M15 1h1v1h-1z" fill="rgb(254,255,255)"/>
<path d="M0 2h1v1h-1z" fill="rgb(255,255,253)"/>
<path d="M1 2h1v1h-1z" fill="rgb(254,254,254)"/>
<path d="M2 2h1v2h-1z" fill="rgb(255,255,253)"/>
<path d="M5 2h1v1h-1z" fill="rgb(254,254,254)"/>
<path d="M6 2h1v1h-1z" fill="rgb(255,255,253)"/>
<path d="M7 2h1v1h-1z" fill="rgb(254,254,254)"/>
<path d="M8 2h1v1h-1z" fill="rgb(255,255,253)"/>
<path d="M11 2h1v1h-1z" fill="rgb(255,253,254)"/>
<path d="M12 2h1v1h-1z" fill="rgb(255,255,253)"/>
<path d="M13 2h1v1h-1z" fill="rgb(254,255,253)"/>
<path d="M14 2h1v1h-1z" fill="rgb(255,254,255)"/>
<path d="M15 2h1v1h-1z" fill="rgb(255,255,253)"/>
<path d="M0 3h1v1h-1z" fill="rgb(255,254,255)"/>
<path d="M1 3h1v1h-1z" fill="rgb(254,255,255)"/>
<path d="M3 3h1v1h-1z" fill="rgb(239,236,204)"/>
<path d="M4 3h1v1h-1z" fill="rgb(236,232,209)"/>
<path d="M5 3h1v1h-1z" fill="rgb(255,254,255)"/>
<path d="M6 3h1v1h-1z" fill="rgb(253,255,254)"/>
<path d="M7 3h1v1h-1z" fill="rgb(255,254,255)"/>
<path d="M11 3h1v1h-1z" fill="rgb(250,249,222)"/>
<path d="M12 3h1v1h-1z" fill="rgb(246,248,213)"/>
<path d="M13 3h1v1h-1z" fill="rgb(254,255,255)"/>
<path d="M14 3h1v1h-1z" fill="rgb(255,255,255)"/>
<path d="M15 3h1v1h-1z" fill="rgb(254,254,252)"/>
<path d="M0 4h1v1h-1z" fill="rgb(254,255,253)"/>
<path d="M1 4h1v1h-1z" fill="rgb(255,255,255)"/>
<path d="M2 4h1v1h-1z" fill="rgb(254,254,254)"/>
<path d="M3 4h1v1h-1z" fill="rgb(209,218,69)"/>
<path d="M4 4h1v1h-1z" fill="rgb(198,202,67)"/>
<path d="M5 4h1v1h-1z" fill="rgb(255,255,253)"/>
<path d="M6 4h1v1h-1z" fill="rgb(255,255,255)"/>
<path d="M7 4h1v1h-1z" fill="rgb(253,255,252)"/>
<path d="M8 4h1v1h-1z" fill="rgb(255,254,255)"/>
<path d="M10 4h1v1h-1z" fill="rgb(252,252,252)"/>
<path d="M11 4h1v1h-1z" fill="rgb(202,205,66)"/>
<path d="M12 4h1v1h-1z" fill="rgb(211,216,69)"/>
<path d="M13 4h1v1h-1z" fill="rgb(254,254,255)"/>
<path d="M14 4h1v1h-1z" fill="rgb(254,254,254)"/>
<path d="M15 4h1v1h-1z" fill="rgb(255,255,253)"/>
<path d="M0 5h1v1h-1z" fill="rgb(255,255,255)"/>
<path d="M1 5h1v1h-1z" fill="rgb(254,255,255)"/>
<path d="M2 5h1v1h-1z" fill="rgb(251,250,248)"/>
<path d="M3 5h1v1h-1z" fill="rgb(115,25,137)"/>
<path d="M4 5h1v1h-1z" fill="rgb(115,26,134)"/>
<path d="M5 5h1v1h-1z" fill="rgb(255,254,255)"/>
<path d="M6 5h1v1h-1z" fill="rgb(254,255,255)"/>
<path d="M7 5h1v1h-1z" fill="rgb(254,254,254)"/>
<path d="M8 5h1v2h-1z" fill="rgb(254,255,255)"/>
<path d="M9 5h1v2h-1z" fill="rgb(255,255,253)"/>
<path d="M10 5h1v1h-1z" fill="rgb(243,236,243)"/>
<path d="M11 5h1v1h-1z" fill="rgb(114,26,138)"/>
<path d="M12 5h1v1h-1z" fill="rgb(113,27,134)"/>
<path d="M13 5h1v1h-1z" fill="rgb(252,245,252)"/>
<path d="M14 5h1v1h-1z" fill="rgb(255,255,255)"/>
<path d="M15 5h1v1h-1z" fill="rgb(254,255,255)"/>
<path d="M0 6h1v1h-1z" fill="rgb(254,255,253)"/>
<path d="M1 6h2v2h-2z" fill="rgb(255,255,255)"/>
<path d="M3 6h1v1h-1z" fill="rgb(110,24,133)"/>
<path d="M4 6h1v1h-1z" fill="rgb(112,26,135)"/>
<path d="M5 6h1v1h-1z" fill="rgb(254,254,252)"/>
<path d="M6 6h1v2h-2v-1h1z" fill="rgb(255,255,255)"/>
<path d="M7 6h1v1h-1z" fill="rgb(253,255,254)"/>
<path d="M10 6h1v1h-1z" fill="rgb(234,222,238)"/>
<path d="M11 6h1v1h-1z" fill="rgb(111,25,134)"/>
<path d="M12 6h1v1h-1z" fill="rgb(112,24,138)"/>
<path d="M13 6h1v1h-1z" fill="rgb(240,233,240)"/>
<path d="M14 6h1v1h-1z" fill="rgb(255,254,255)"/>
<path d="M15 6h1v1h-1z" fill="rgb(254,255,253)"/>
<path d="M0 7h1v1h-1z" fill="rgb(255,254,255)"/>
<path d="M3 7h1v1h-1z" fill="rgb(111,26,135)"/>
<path d="M4 7h1v1h-1z" fill="rgb(112,26,137)"/>
<path d="M7 7h1v1h-1z" fill="rgb(255,254,255)"/>
<path d="M8 7h2v3h-2v-1h1v-1h-1z" fill="rgb(255,255,255)"/>
<path d="M10 7h1v1h-1z" fill="rgb(237,223,239)"/>
<path d="M11 7h1v1h-1z" fill="rgb(112,26,137)"/>
<path d="M12 7h1v1h-1z" fill="rgb(110,25,134)"/>
<path d="M13 7h1v1h-1z" fill="rgb(239,225,241)"/>
<path d="M14 7h1v1h-1z" fill="rgb(255,255,253)"/>
<path d="M15 7h1v1h-1z" fill="rgb(255,255,255)"/>
<path d="M0 8h1v1h-1z" fill="rgb(254,255,255)"/>
<path d="M1 8h1v1h-1z" fill="rgb(254,255,253)"/>
<path d="M2 8h1v1h-1z" fill="rgb(255,254,255)"/>
<path d="M3 8h1v1h-1z" fill="rgb(203,203,67)"/>
<path d="M4 8h1v1h-1z" fill="rgb(197,194,67)"/>
<path d="M5 8h1v1h-1z" fill="rgb(254,255,251)"/>
<path d="M6 8h1v1h-1z" fill="rgb(255,254,255)"/>
<path d="M7 8h1v1h-1z" fill="rgb(255,255,253)"/>
<path d="M8 8h1v1h-1z" fill="rgb(255,255,251)"/>
<path d="M10 8h1v1h-1z" fill="rgb(239,227,242)"/>
<path d="M11 8h1v1h-1z" fill="rgb(186,171,65)"/>
<path d="M12 8h1v1h-1z" fill="rgb(198,194,66)"/>
<path d="M13 8h1v1h-1z" fill="rgb(231,224,239)"/>
<path d="M14 8h1v1h-1z" fill="rgb(253,254,255)"/>
<path d="M15 8h1v1h-1z" fill="rgb(255,255,251)"/>
<path d="M0 9h1v3h-1z" fill="rgb(255,254,255)"/>
<path d="M1 9h1v1h-1z" fill="rgb(255,255,255)"/>
<path d="M2 9h1v1h-1z" fill="rgb(254,254,252)"/>
<path d="M3 9h1v1h-1z" fill="rgb(154,107,88)"/>
<path d="M4 9h1v1h-1z" fill="rgb(150,102,90)"/>
<path d="M5 9h1v1h-1z" fill="rgb(255,254,255)"/>
<path d="M6 9h1v1h-1z" fill="rgb(255,253,254)"/>
<path d="M7 9h1v1h-1z" fill="rgb(254,255,253)"/>
<path d="M10 9h1v1h-1z" fill="rgb(237,229,243)"/>
<path d="M11 9h1v1h-1z" fill="rgb(134,74,105)"/>
<path d="M12 9h1v1h-1z" fill="rgb(143,85,97)"/>
<path d="M13 9h1v1h-1z" fill="rgb(235,221,237)"/>
<path d="M14 9h1v1h-1z" fill="rgb(255,255,253)"/>
<path d="M15 9h1v1h-1z" fill="rgb(255,254,255)"/>
<path d="M1 10h1v1h-1z" fill="rgb(251,255,252)"/>
<path d="M2 10h1v2h-1z" fill="rgb(255,255,255)"/>
<path d="M3 10h1v1h-1z" fill="rgb(112,24,138)"/>
<path d="M4 10h1v1h-1z" fill="rgb(112,27,136)"/>
<path d="M5 10h1v1h-1z" fill="rgb(255,253,254)"/>
<path d="M6 10h1v1h-1z" fill="rgb(253,255,254)"/>
<path d="M7 10h1v1h-1z" fill="rgb(255,250,255)"/>
<path d="M8 10h1v1h-1z" fill="rgb(251,251,253)"/>
<path d="M9 10h1v1h-1z" fill="rgb(252,254,253)"/>
<path d="M10 10h1v1h-1z" fill="rgb(241,226,238)"/>
<path d="M11 10h1v1h-1z" fill="rgb(114,25,135)"/>
<path d="M12 10h1v1h-1z" fill="rgb(113,23,135)"/>
<path d="M13 10h1v1h-1z" fill="rgb(234,221,240)"/>
<path d="M14 10h1v1h-1z" fill="rgb(255,254,253)"/>
<path d="M15 10h1v1h-1z" fill="rgb(252,255,255)"/>
<path d="M1 11h1v1h-1z" fill="rgb(254,255,255)"/>
<path d="M3 11h1v1h-1z" fill="rgb(113,24,132)"/>
<path d="M4 11h1v1h-1z" fill="rgb(111,26,135)"/>
<path d="M5 11h1v1h-1z" fill="rgb(238,196,245)"/>
<path d="M6 11h1v1h-1z" fill="rgb(215,135,235)"/>
<path d="M7 11h1v1h-1z" fill="rgb(203,99,230)"/>
<path d="M8 11h1v1h-1z" fill="rgb(204,97,231)"/>
<path d="M9 11h1v1h-1z" fill="rgb(209,122,230)"/>
<path d="M10 11h1v1h-1z" fill="rgb(210,148,229)"/>
<path d="M11 11h1v1h-1z" fill="rgb(109,24,135)"/>
<path d="M12 11h1v1h-1z" fill="rgb(111,25,134)"/>
<path d="M13 11h1v1h-1z" fill="rgb(236,218,236)"/>
<path d="M14 11h1v1h-1z" fill="rgb(254,255,255)"/>
<path d="M15 11h1v1h-1z" fill="rgb(255,254,255)"/>
<path d="M0 12h1v1h-1z" fill="rgb(253,254,255)"/>
<path d="M1 12h1v1h-1z" fill="rgb(255,252,251)"/>
<path d="M2 12h1v1h-1z" fill="rgb(240,208,246)"/>
<path d="M3 12h1v1h-1z" fill="rgb(113,24,134)"/>
<path d="M4 12h1v1h-1z" fill="rgb(114,23,138)"/>
<path d="M5 12h1v1h-1z" fill="rgb(162,8,204)"/>
<path d="M6 12h1v1h-1z" fill="rgb(167,7,217)"/>
<path d="M7 12h1v1h-1z" fill="rgb(145,12,178)"/>
<path d="M8 12h1v1h-1z" fill="rgb(146,13,181)"/>
<path d="M9 12h1v1h-1z" fill="rgb(165,7,211)"/>
<path d="M10 12h1v1h-1z" fill="rgb(146,11,183)"/>
<path d="M11 12h1v1h-1z" fill="rgb(107,25,135)"/>
<path d="M12 12h1v1h-1z" fill="rgb(109,24,135)"/>
<path d="M13 12h1v1h-1z" fill="rgb(218,159,231)"/>
<path d="M14 12h1v1h-1z" fill="rgb(250,238,253)"/>
<path d="M15 12h1v1h-1z" fill="rgb(254,255,253)"/>
<path d="M0 13h1v1h-1z" fill="rgb(241,214,247)"/>
<path d="M1 13h1v1h-1z" fill="rgb(203,104,231)"/>
<path d="M2 13h1v1h-1z" fill="rgb(159,22,201)"/>
<path d="M3 13h1v1h-1z" fill="rgb(139,14,176)"/>
<path d="M4 13h1v1h-1z" fill="rgb(117,23,144)"/>
<path d="M5 13h1v1h-1z" fill="rgb(133,17,168)"/>
<path d="M6 13h1v1h-1z" fill="rgb(130,18,158)"/>
<path d="M7 13h1v1h-1z" fill="rgb(111,25,134)"/>
<path d="M8 13h1v1h-1z" fill="rgb(115,23,141)"/>
<path d="M9 13h1v1h-1z" fill="rgb(130,17,164)"/>
<path d="M10 13h1v1h-1z" fill="rgb(114,23,140)"/>
<path d="M11 13h1v1h-1z" fill="rgb(113,24,134)"/>
<path d="M12 13h1v1h-1z" fill="rgb(116,21,143)"/>
<path d="M13 13h1v1h-1z" fill="rgb(168,12,210)"/>
<path d="M14 13h1v1h-1z" fill="rgb(198,89,227)"/>
<path d="M15 13h1v1h-1z" fill="rgb(238,199,247)"/>
<path d="M0 14h1v1h-1z" fill="rgb(182,38,221)"/>
<path d="M1 14h1v1h-1z" fill="rgb(167,9,216)"/>
<path d="M2 14h1v1h-1z" fill="rgb(128,18,154)"/>
<path d="M3 14h1v1h-1z" fill="rgb(152,10,194)"/>
<path d="M4 14h1v1h-1z" fill="rgb(149,11,188)"/>
<path d="M5 14h1v1h-1z" fill="rgb(121,21,150)"/>
<path d="M6 14h1v1h-1z" fill="rgb(112,24,138)"/>
<path d="M7 14h1v1h-1z" fill="rgb(115,23,136)"/>
<path d="M8 14h1v1h-1z" fill="rgb(113,25,137)"/>
<path d="M9 14h1v1h-1z" fill="rgb(127,20,157)"/>
<path d="M10 14h1v1h-1z" fill="rgb(148,10,187)"/>
<path d="M11 14h1v1h-1z" fill="rgb(125,20,154)"/>
<path d="M12 14h1v1h-1z" fill="rgb(121,21,150)"/>
<path d="M13 14h1v1h-1z" fill="rgb(127,17,151)"/>
<path d="M14 14h1v1h-1z" fill="rgb(169,7,220)"/>
<path d="M15 14h1v1h-1z" fill="rgb(182,35,222)"/>
<path d="M0 15h1v1h-1z" fill="rgb(158,8,202)"/>
<path d="M1 15h1v1h-1z" fill="rgb(152,11,193)"/>
<path d="M2 15h1v1h-1z" fill="rgb(166,6,212)"/>
<path d="M3 15h1v1h-1z" fill="rgb(144,16,180)"/>
<path d="M4 15h1v1h-1z" fill="rgb(111,25,132)"/>
<path d="M5 15h1v1h-1z" fill="rgb(111,25,138)"/>
<path d="M6 15h1v1h-1z" fill="rgb(114,23,138)"/>
<path d="M7 15h1v1h-1z" fill="rgb(119,21,144)"/>
<path d="M8 15h1v1h-1z" fill="rgb(119,21,148)"/>
<path d="M9 15h1v1h-1z" fill="rgb(115,23,136)"/>
<path d="M10 15h1v1h-1z" fill="rgb(116,24,139)"/>
<path d="M11 15h1v1h-1z" fill="rgb(130,18,162)"/>
<path d="M12 15h1v1h-1z" fill="rgb(171,8,218)"/>
<path d="M13 15h1v1h-1z" fill="rgb(146,16,185)"/>
<path d="M14 15h1v1h-1z" fill="rgb(142,14,182)"/>
<path d="M15 15h1v1h-1z" fill="rgb(168,6,213)"/>
</svg>
