<?xml version="1.0" encoding="utf-8"?>
<!-- generated at drububu.com  -->
<!DOCTYPE svg PUBLIC "-//W3C//DTD SVG 1.1//EN" "http://www.w3.org/Graphics/SVG/1.1/DTD/svg11.dtd">
<svg version="1.1" preserveAspectRatio="xMinYMin meet" xmlns="http://www.w3.org/2000/svg" xmlns:xlink="http://www.w3.org/1999/xlink" x="0px" y="0px" width="16px" height="16px" viewBox="0 0 16 16">
<path d="M0 0h2v1h-2z" fill="rgb(255,255,255)"/>
<path d="M2 0h1v1h-1z" fill="rgb(255,254,255)"/>
<path d="M3 0h1v1h-1z" fill="rgb(205,136,236)"/>
<path d="M4 0h1v1h-1z" fill="rgb(144,20,213)"/>
<path d="M5 0h1v1h-1z" fill="rgb(120,20,172)"/>
<path d="M6 0h1v1h-1z" fill="rgb(109,21,152)"/>
<path d="M7 0h1v1h-1z" fill="rgb(116,22,167)"/>
<path d="M8 0h1v1h-1z" fill="rgb(121,20,172)"/>
<path d="M9 0h1v1h-1z" fill="rgb(130,19,190)"/>
<path d="M10 0h1v1h-1z" fill="rgb(131,20,191)"/>
<path d="M11 0h1v1h-1z" fill="rgb(152,46,208)"/>
<path d="M12 0h1v1h-1z" fill="rgb(210,152,240)"/>
<path d="M13 0h1v1h-1z" fill="rgb(239,222,249)"/>
<path d="M14 0h1v1h-1z" fill="rgb(255,255,253)"/>
<path d="M15 0h1v1h-1z" fill="rgb(255,254,255)"/>
<path d="M0 1h1v1h-1z" fill="rgb(254,255,253)"/>
<path d="M1 1h1v1h-1z" fill="rgb(250,249,255)"/>
<path d="M2 1h1v1h-1z" fill="rgb(184,94,232)"/>
<path d="M3 1h1v1h-1z" fill="rgb(132,18,191)"/>
<path d="M4 1h1v1h-1z" fill="rgb(114,20,163)"/>
<path d="M5 1h1v1h-1z" fill="rgb(126,25,181)"/>
<path d="M6 1h1v1h-1z" fill="rgb(124,28,167)"/>
<path d="M7 1h1v1h-1z" fill="rgb(127,30,167)"/>
<path d="M8 1h1v1h-1z" fill="rgb(137,37,170)"/>
<path d="M9 1h1v1h-1z" fill="rgb(139,40,175)"/>
<path d="M10 1h1v1h-1z" fill="rgb(135,19,190)"/>
<path d="M11 1h1v1h-1z" fill="rgb(119,19,170)"/>
<path d="M12 1h1v1h-1z" fill="rgb(115,21,164)"/>
<path d="M13 1h1v1h-1z" fill="rgb(147,24,208)"/>
<path d="M14 1h1v1h-1z" fill="rgb(213,156,241)"/>
<path d="M15 1h1v1h-1z" fill="rgb(254,255,253)"/>
<path d="M0 2h1v1h-1z" fill="rgb(255,254,255)"/>
<path d="M1 2h1v1h-1z" fill="rgb(194,120,235)"/>
<path d="M2 2h1v1h-1z" fill="rgb(132,19,188)"/>
<path d="M3 2h1v1h-1z" fill="rgb(114,20,165)"/>
<path d="M4 2h1v1h-1z" fill="rgb(196,156,102)"/>
<path d="M5 2h1v1h-1z" fill="rgb(218,232,74)"/>
<path d="M6 2h1v1h-1z" fill="rgb(220,231,74)"/>
<path d="M7 2h1v1h-1z" fill="rgb(128,61,120)"/>
<path d="M8 2h1v1h-1z" fill="rgb(122,53,129)"/>
<path d="M9 2h1v1h-1z" fill="rgb(215,232,74)"/>
<path d="M10 2h1v1h-1z" fill="rgb(218,231,74)"/>
<path d="M11 2h1v1h-1z" fill="rgb(194,149,101)"/>
<path d="M12 2h1v1h-1z" fill="rgb(154,53,184)"/>
<path d="M13 2h1v1h-1z" fill="rgb(116,20,166)"/>
<path d="M14 2h1v1h-1z" fill="rgb(140,17,208)"/>
<path d="M15 2h1v1h-1z" fill="rgb(213,156,243)"/>
<path d="M0 3h1v1h-1z" fill="rgb(235,209,248)"/>
<path d="M1 3h1v1h-1z" fill="rgb(118,20,174)"/>
<path d="M2 3h1v1h-1z" fill="rgb(110,22,153)"/>
<path d="M3 3h1v1h-1z" fill="rgb(148,86,117)"/>
<path d="M4 3h1v1h-1z" fill="rgb(153,110,93)"/>
<path d="M5 3h1v1h-1z" fill="rgb(217,232,75)"/>
<path d="M6 3h1v1h-1z" fill="rgb(218,230,74)"/>
<path d="M7 3h1v1h-1z" fill="rgb(131,61,125)"/>
<path d="M8 3h1v1h-1z" fill="rgb(109,25,145)"/>
<path d="M9 3h1v1h-1z" fill="rgb(218,230,74)"/>
<path d="M10 3h1v1h-1z" fill="rgb(218,232,74)"/>
<path d="M11 3h1v1h-1z" fill="rgb(204,208,71)"/>
<path d="M12 3h1v1h-1z" fill="rgb(190,173,73)"/>
<path d="M13 3h1v1h-1z" fill="rgb(148,51,181)"/>
<path d="M14 3h1v1h-1z" fill="rgb(116,21,168)"/>
<path d="M15 3h1v1h-1z" fill="rgb(162,37,226)"/>
<path d="M0 4h1v1h-1z" fill="rgb(154,48,211)"/>
<path d="M1 4h1v1h-1z" fill="rgb(107,22,152)"/>
<path d="M2 4h1v1h-1z" fill="rgb(153,83,134)"/>
<path d="M3 4h1v1h-1z" fill="rgb(148,100,101)"/>
<path d="M4 4h1v1h-1z" fill="rgb(107,22,146)"/>
<path d="M5 4h1v1h-1z" fill="rgb(200,191,78)"/>
<path d="M6 4h1v1h-1z" fill="rgb(135,47,127)"/>
<path d="M7 4h1v1h-1z" fill="rgb(122,18,141)"/>
<path d="M8 4h1v1h-1z" fill="rgb(123,17,145)"/>
<path d="M9 4h1v1h-1z" fill="rgb(134,42,131)"/>
<path d="M10 4h1v1h-1z" fill="rgb(183,152,89)"/>
<path d="M11 4h1v1h-1z" fill="rgb(129,61,124)"/>
<path d="M12 4h1v1h-1z" fill="rgb(105,22,151)"/>
<path d="M13 4h1v1h-1z" fill="rgb(214,225,73)"/>
<path d="M14 4h1v1h-1z" fill="rgb(115,21,164)"/>
<path d="M15 4h1v1h-1z" fill="rgb(137,22,196)"/>
<path d="M0 5h1v1h-1z" fill="rgb(120,23,173)"/>
<path d="M1 5h1v1h-1z" fill="rgb(112,22,156)"/>
<path d="M2 5h1v1h-1z" fill="rgb(198,173,84)"/>
<path d="M3 5h1v1h-1z" fill="rgb(219,232,74)"/>
<path d="M4 5h1v1h-1z" fill="rgb(197,178,76)"/>
<path d="M5 5h1v1h-1z" fill="rgb(124,19,141)"/>
<path d="M6 5h1v1h-1z" fill="rgb(114,7,151)"/>
<path d="M7 5h1v1h-1z" fill="rgb(114,14,147)"/>
<path d="M8 5h1v1h-1z" fill="rgb(113,13,146)"/>
<path d="M9 5h1v1h-1z" fill="rgb(117,7,152)"/>
<path d="M10 5h1v1h-1z" fill="rgb(125,20,142)"/>
<path d="M11 5h1v1h-1z" fill="rgb(191,161,75)"/>
<path d="M12 5h1v1h-1z" fill="rgb(214,218,72)"/>
<path d="M13 5h1v1h-1z" fill="rgb(216,233,75)"/>
<path d="M14 5h1v1h-1z" fill="rgb(151,37,189)"/>
<path d="M15 5h1v1h-1z" fill="rgb(122,20,173)"/>
<path d="M0 6h1v1h-1z" fill="rgb(111,24,153)"/>
<path d="M1 6h1v1h-1z" fill="rgb(122,28,166)"/>
<path d="M2 6h1v1h-1z" fill="rgb(216,228,73)"/>
<path d="M3 6h1v1h-1z" fill="rgb(216,230,75)"/>
<path d="M4 6h1v1h-1z" fill="rgb(131,38,131)"/>
<path d="M5 6h1v1h-1z" fill="rgb(115,8,150)"/>
<path d="M6 6h1v1h-1z" fill="rgb(106,44,128)"/>
<path d="M7 6h1v1h-1z" fill="rgb(79,113,92)"/>
<path d="M8 6h1v1h-1z" fill="rgb(77,115,89)"/>
<path d="M9 6h1v1h-1z" fill="rgb(103,40,130)"/>
<path d="M10 6h1v1h-1z" fill="rgb(117,6,150)"/>
<path d="M11 6h1v1h-1z" fill="rgb(151,79,107)"/>
<path d="M12 6h1v1h-1z" fill="rgb(215,229,74)"/>
<path d="M13 6h1v1h-1z" fill="rgb(217,231,73)"/>
<path d="M14 6h1v1h-1z" fill="rgb(175,94,152)"/>
<path d="M15 6h1v1h-1z" fill="rgb(117,19,171)"/>
<path d="M0 7h1v1h-1z" fill="rgb(107,22,152)"/>
<path d="M1 7h1v1h-1z" fill="rgb(134,26,178)"/>
<path d="M2 7h1v1h-1z" fill="rgb(118,39,138)"/>
<path d="M3 7h1v1h-1z" fill="rgb(144,91,108)"/>
<path d="M4 7h1v1h-1z" fill="rgb(119,9,150)"/>
<path d="M5 7h1v1h-1z" fill="rgb(112,12,146)"/>
<path d="M6 7h1v1h-1z" fill="rgb(78,112,91)"/>
<path d="M7 7h1v1h-1z" fill="rgb(22,180,67)"/>
<path d="M8 7h1v1h-1z" fill="rgb(10,184,67)"/>
<path d="M9 7h1v1h-1z" fill="rgb(77,114,92)"/>
<path d="M10 7h1v1h-1z" fill="rgb(114,10,146)"/>
<path d="M11 7h1v1h-1z" fill="rgb(134,46,128)"/>
<path d="M12 7h1v1h-1z" fill="rgb(112,28,146)"/>
<path d="M13 7h1v1h-1z" fill="rgb(116,37,136)"/>
<path d="M14 7h1v1h-1z" fill="rgb(186,128,118)"/>
<path d="M15 7h1v1h-1z" fill="rgb(120,19,175)"/>
<path d="M0 8h1v1h-1z" fill="rgb(121,22,181)"/>
<path d="M1 8h1v1h-1z" fill="rgb(126,26,164)"/>
<path d="M2 8h1v1h-1z" fill="rgb(114,31,141)"/>
<path d="M3 8h1v1h-1z" fill="rgb(117,46,134)"/>
<path d="M4 8h1v1h-1z" fill="rgb(117,5,153)"/>
<path d="M5 8h1v1h-1z" fill="rgb(113,13,147)"/>
<path d="M6 8h1v1h-1z" fill="rgb(73,118,91)"/>
<path d="M7 8h1v1h-1z" fill="rgb(4,187,66)"/>
<path d="M8 8h1v1h-1z" fill="rgb(0,190,66)"/>
<path d="M9 8h1v1h-1z" fill="rgb(71,121,88)"/>
<path d="M10 8h1v1h-1z" fill="rgb(115,10,147)"/>
<path d="M11 8h1v1h-1z" fill="rgb(127,36,132)"/>
<path d="M12 8h1v1h-1z" fill="rgb(112,31,142)"/>
<path d="M13 8h1v1h-1z" fill="rgb(130,63,122)"/>
<path d="M14 8h1v1h-1z" fill="rgb(198,157,98)"/>
<path d="M15 8h1v1h-1z" fill="rgb(121,18,175)"/>
<path d="M0 9h1v1h-1z" fill="rgb(110,21,151)"/>
<path d="M1 9h1v1h-1z" fill="rgb(115,27,160)"/>
<path d="M2 9h1v1h-1z" fill="rgb(216,229,73)"/>
<path d="M3 9h1v1h-1z" fill="rgb(216,231,74)"/>
<path d="M4 9h1v1h-1z" fill="rgb(129,33,142)"/>
<path d="M5 9h1v1h-1z" fill="rgb(114,6,147)"/>
<path d="M6 9h1v1h-1z" fill="rgb(104,41,131)"/>
<path d="M7 9h1v1h-1z" fill="rgb(75,117,86)"/>
<path d="M8 9h1v1h-1z" fill="rgb(71,121,88)"/>
<path d="M9 9h1v1h-1z" fill="rgb(103,42,131)"/>
<path d="M10 9h1v1h-1z" fill="rgb(116,4,148)"/>
<path d="M11 9h1v1h-1z" fill="rgb(147,63,119)"/>
<path d="M12 9h1v1h-1z" fill="rgb(216,226,75)"/>
<path d="M13 9h1v1h-1z" fill="rgb(219,232,75)"/>
<path d="M14 9h1v1h-1z" fill="rgb(194,153,102)"/>
<path d="M15 9h1v1h-1z" fill="rgb(119,21,173)"/>
<path d="M0 10h1v1h-1z" fill="rgb(121,20,178)"/>
<path d="M1 10h1v1h-1z" fill="rgb(107,24,153)"/>
<path d="M2 10h1v1h-1z" fill="rgb(184,137,103)"/>
<path d="M3 10h1v1h-1z" fill="rgb(219,232,74)"/>
<path d="M4 10h1v1h-1z" fill="rgb(207,205,73)"/>
<path d="M5 10h1v1h-1z" fill="rgb(126,17,144)"/>
<path d="M6 10h1v1h-1z" fill="rgb(114,9,148)"/>
<path d="M7 10h1v1h-1z" fill="rgb(116,12,149)"/>
<path d="M8 10h1v1h-1z" fill="rgb(115,12,148)"/>
<path d="M9 10h1v1h-1z" fill="rgb(114,9,150)"/>
<path d="M10 10h1v1h-1z" fill="rgb(131,30,135)"/>
<path d="M11 10h1v1h-1z" fill="rgb(193,177,73)"/>
<path d="M12 10h1v1h-1z" fill="rgb(217,233,74)"/>
<path d="M13 10h1v1h-1z" fill="rgb(216,232,74)"/>
<path d="M14 10h1v1h-1z" fill="rgb(160,78,162)"/>
<path d="M15 10h1v1h-1z" fill="rgb(121,18,177)"/>
<path d="M0 11h1v1h-1z" fill="rgb(169,53,229)"/>
<path d="M1 11h1v1h-1z" fill="rgb(115,19,163)"/>
<path d="M2 11h1v1h-1z" fill="rgb(125,22,177)"/>
<path d="M3 11h1v1h-1z" fill="rgb(184,162,73)"/>
<path d="M4 11h1v1h-1z" fill="rgb(106,23,151)"/>
<path d="M5 11h1v1h-1z" fill="rgb(200,190,73)"/>
<path d="M6 11h1v1h-1z" fill="rgb(161,106,93)"/>
<path d="M7 11h1v1h-1z" fill="rgb(140,55,119)"/>
<path d="M8 11h1v1h-1z" fill="rgb(138,47,122)"/>
<path d="M9 11h1v1h-1z" fill="rgb(154,90,104)"/>
<path d="M10 11h1v1h-1z" fill="rgb(205,201,70)"/>
<path d="M11 11h1v1h-1z" fill="rgb(109,22,146)"/>
<path d="M12 11h1v1h-1z" fill="rgb(140,82,108)"/>
<path d="M13 11h1v1h-1z" fill="rgb(210,191,86)"/>
<path d="M14 11h1v1h-1z" fill="rgb(147,17,222)"/>
<path d="M15 11h1v1h-1z" fill="rgb(146,18,216)"/>
<path d="M0 12h1v1h-1z" fill="rgb(240,219,252)"/>
<path d="M1 12h1v1h-1z" fill="rgb(149,18,222)"/>
<path d="M2 12h1v1h-1z" fill="rgb(117,19,171)"/>
<path d="M3 12h1v1h-1z" fill="rgb(144,68,136)"/>
<path d="M4 12h1v1h-1z" fill="rgb(168,136,81)"/>
<path d="M5 12h1v1h-1z" fill="rgb(214,230,73)"/>
<path d="M6 12h1v1h-1z" fill="rgb(219,230,74)"/>
<path d="M7 12h1v1h-1z" fill="rgb(119,48,133)"/>
<path d="M8 12h1v1h-1z" fill="rgb(119,46,134)"/>
<path d="M9 12h1v1h-1z" fill="rgb(221,233,75)"/>
<path d="M10 12h1v1h-1z" fill="rgb(217,233,75)"/>
<path d="M11 12h1v1h-1z" fill="rgb(173,144,81)"/>
<path d="M12 12h1v1h-1z" fill="rgb(177,124,108)"/>
<path d="M13 12h1v1h-1z" fill="rgb(140,20,203)"/>
<path d="M14 12h1v1h-1z" fill="rgb(133,17,193)"/>
<path d="M15 12h1v1h-1z" fill="rgb(207,143,241)"/>
<path d="M0 13h1v1h-1z" fill="rgb(255,254,255)"/>
<path d="M1 13h1v1h-1z" fill="rgb(198,119,236)"/>
<path d="M2 13h1v1h-1z" fill="rgb(130,18,193)"/>
<path d="M3 13h1v1h-1z" fill="rgb(106,21,151)"/>
<path d="M4 13h1v1h-1z" fill="rgb(128,27,172)"/>
<path d="M5 13h1v1h-1z" fill="rgb(209,191,76)"/>
<path d="M6 13h1v1h-1z" fill="rgb(218,223,72)"/>
<path d="M7 13h1v1h-1z" fill="rgb(120,49,134)"/>
<path d="M8 13h1v1h-1z" fill="rgb(120,50,131)"/>
<path d="M9 13h1v1h-1z" fill="rgb(218,231,74)"/>
<path d="M10 13h1v1h-1z" fill="rgb(214,223,73)"/>
<path d="M11 13h1v1h-1z" fill="rgb(170,90,157)"/>
<path d="M12 13h1v1h-1z" fill="rgb(117,19,171)"/>
<path d="M13 13h1v1h-1z" fill="rgb(117,20,170)"/>
<path d="M14 13h1v1h-1z" fill="rgb(141,29,199)"/>
<path d="M15 13h1v1h-1z" fill="rgb(248,238,254)"/>
<path d="M0 14h1v1h-1z" fill="rgb(255,255,253)"/>
<path d="M1 14h1v1h-1z" fill="rgb(253,255,252)"/>
<path d="M2 14h1v1h-1z" fill="rgb(212,144,240)"/>
<path d="M3 14h1v1h-1z" fill="rgb(129,19,186)"/>
<path d="M4 14h1v1h-1z" fill="rgb(106,21,150)"/>
<path d="M5 14h1v1h-1z" fill="rgb(110,21,152)"/>
<path d="M6 14h1v1h-1z" fill="rgb(126,20,181)"/>
<path d="M7 14h1v1h-1z" fill="rgb(119,22,166)"/>
<path d="M8 14h1v1h-1z" fill="rgb(137,25,189)"/>
<path d="M9 14h1v1h-1z" fill="rgb(139,20,199)"/>
<path d="M10 14h1v1h-1z" fill="rgb(133,17,195)"/>
<path d="M11 14h1v1h-1z" fill="rgb(112,21,163)"/>
<path d="M12 14h1v1h-1z" fill="rgb(137,22,200)"/>
<path d="M13 14h1v1h-1z" fill="rgb(171,59,229)"/>
<path d="M14 14h1v1h-1z" fill="rgb(232,208,251)"/>
<path d="M15 14h1v1h-1z" fill="rgb(255,254,253)"/>
<path d="M0 15h1v1h-1z" fill="rgb(254,254,254)"/>
<path d="M1 15h2v1h-2z" fill="rgb(255,255,255)"/>
<path d="M3 15h1v1h-1z" fill="rgb(245,230,251)"/>
<path d="M4 15h1v1h-1z" fill="rgb(170,61,223)"/>
<path d="M5 15h1v1h-1z" fill="rgb(124,23,179)"/>
<path d="M6 15h1v1h-1z" fill="rgb(117,20,168)"/>
<path d="M7 15h1v1h-1z" fill="rgb(111,21,155)"/>
<path d="M8 15h1v1h-1z" fill="rgb(112,23,161)"/>
<path d="M9 15h1v1h-1z" fill="rgb(114,20,162)"/>
<path d="M10 15h1v1h-1z" fill="rgb(120,26,168)"/>
<path d="M11 15h1v1h-1z" fill="rgb(166,63,215)"/>
<path d="M12 15h1v1h-1z" fill="rgb(239,222,249)"/>
<path d="M13 15h1v1h-1z" fill="rgb(255,254,255)"/>
<path d="M14 15h1v1h-1z" fill="rgb(254,255,255)"/>
<path d="M15 15h1v1h-1z" fill="rgb(255,255,253)"/>
</svg>
