<?xml version="1.0" encoding="utf-8"?>
<!-- generated at drububu.com  -->
<!DOCTYPE svg PUBLIC "-//W3C//DTD SVG 1.1//EN" "http://www.w3.org/Graphics/SVG/1.1/DTD/svg11.dtd">
<svg version="1.1" preserveAspectRatio="xMinYMin meet" xmlns="http://www.w3.org/2000/svg" xmlns:xlink="http://www.w3.org/1999/xlink" x="0px" y="0px" width="16px" height="16px" viewBox="0 0 16 16">
<path d="M0 0h1v1h-1z" fill="rgb(254,255,253)"/>
<path d="M1 0h1v1h-1z" fill="rgb(255,255,255)"/>
<path d="M2 0h1v1h-1z" fill="rgb(217,199,229)"/>
<path d="M3 0h1v1h-1z" fill="rgb(122,51,160)"/>
<path d="M4 0h1v1h-1z" fill="rgb(97,21,143)"/>
<path d="M5 0h1v1h-1z" fill="rgb(83,12,134)"/>
<path d="M6 0h1v1h-1z" fill="rgb(71,10,123)"/>
<path d="M7 0h1v1h-1z" fill="rgb(65,7,119)"/>
<path d="M8 0h1v1h-1z" fill="rgb(65,6,118)"/>
<path d="M9 0h1v1h-1z" fill="rgb(68,8,124)"/>
<path d="M10 0h1v1h-1z" fill="rgb(80,11,132)"/>
<path d="M11 0h1v1h-1z" fill="rgb(96,29,143)"/>
<path d="M12 0h1v1h-1z" fill="rgb(139,77,172)"/>
<path d="M13 0h1v1h-1z" fill="rgb(223,206,230)"/>
<path d="M14 0h1v1h-1z" fill="rgb(254,255,255)"/>
<path d="M15 0h1v1h-1z" fill="rgb(255,255,251)"/>
<path d="M0 1h1v1h-1z" fill="rgb(252,253,255)"/>
<path d="M1 1h1v1h-1z" fill="rgb(245,240,247)"/>
<path d="M2 1h1v1h-1z" fill="rgb(175,127,197)"/>
<path d="M3 1h1v1h-1z" fill="rgb(115,45,152)"/>
<path d="M4 1h1v1h-1z" fill="rgb(100,19,138)"/>
<path d="M5 1h1v1h-1z" fill="rgb(89,16,135)"/>
<path d="M6 1h1v1h-1z" fill="rgb(80,13,134)"/>
<path d="M7 1h1v1h-1z" fill="rgb(77,11,129)"/>
<path d="M8 1h1v1h-1z" fill="rgb(74,12,129)"/>
<path d="M9 1h1v1h-1z" fill="rgb(82,13,130)"/>
<path d="M10 1h1v1h-1z" fill="rgb(88,16,137)"/>
<path d="M11 1h1v1h-1z" fill="rgb(98,25,141)"/>
<path d="M12 1h1v1h-1z" fill="rgb(124,60,156)"/>
<path d="M13 1h1v1h-1z" fill="rgb(191,156,207)"/>
<path d="M14 1h1v1h-1z" fill="rgb(249,246,252)"/>
<path d="M15 1h1v1h-1z" fill="rgb(254,255,255)"/>
<path d="M0 2h1v1h-1z" fill="rgb(255,254,255)"/>
<path d="M1 2h1v1h-1z" fill="rgb(217,204,226)"/>
<path d="M2 2h1v1h-1z" fill="rgb(146,96,141)"/>
<path d="M3 2h1v1h-1z" fill="rgb(161,145,75)"/>
<path d="M4 2h1v1h-1z" fill="rgb(140,108,88)"/>
<path d="M5 2h1v1h-1z" fill="rgb(105,35,129)"/>
<path d="M6 2h1v1h-1z" fill="rgb(91,18,141)"/>
<path d="M7 2h1v1h-1z" fill="rgb(91,15,139)"/>
<path d="M8 2h1v1h-1z" fill="rgb(88,16,136)"/>
<path d="M9 2h1v1h-1z" fill="rgb(93,17,137)"/>
<path d="M10 2h1v1h-1z" fill="rgb(108,45,119)"/>
<path d="M11 2h1v1h-1z" fill="rgb(150,127,77)"/>
<path d="M12 2h1v1h-1z" fill="rgb(159,138,85)"/>
<path d="M13 2h1v1h-1z" fill="rgb(159,114,165)"/>
<path d="M14 2h1v1h-1z" fill="rgb(232,222,238)"/>
<path d="M15 2h1v1h-1z" fill="rgb(255,255,255)"/>
<path d="M0 3h1v1h-1z" fill="rgb(252,254,253)"/>
<path d="M1 3h1v1h-1z" fill="rgb(201,178,214)"/>
<path d="M2 3h1v1h-1z" fill="rgb(171,154,89)"/>
<path d="M3 3h1v1h-1z" fill="rgb(201,230,72)"/>
<path d="M4 3h1v1h-1z" fill="rgb(191,210,67)"/>
<path d="M5 3h1v1h-1z" fill="rgb(128,84,96)"/>
<path d="M6 3h1v1h-1z" fill="rgb(88,16,136)"/>
<path d="M7 3h1v1h-1z" fill="rgb(89,16,139)"/>
<path d="M8 3h1v1h-1z" fill="rgb(87,15,135)"/>
<path d="M9 3h1v1h-1z" fill="rgb(88,18,136)"/>
<path d="M10 3h1v1h-1z" fill="rgb(150,123,79)"/>
<path d="M11 3h1v1h-1z" fill="rgb(199,224,71)"/>
<path d="M12 3h1v1h-1z" fill="rgb(203,223,71)"/>
<path d="M13 3h1v1h-1z" fill="rgb(169,147,106)"/>
<path d="M14 3h1v1h-1z" fill="rgb(225,212,234)"/>
<path d="M15 3h1v1h-1z" fill="rgb(255,254,255)"/>
<path d="M0 4h1v1h-1z" fill="rgb(251,253,252)"/>
<path d="M1 4h1v1h-1z" fill="rgb(193,166,208)"/>
<path d="M2 4h1v1h-1z" fill="rgb(156,132,87)"/>
<path d="M3 4h1v1h-1z" fill="rgb(189,206,66)"/>
<path d="M4 4h1v1h-1z" fill="rgb(175,181,65)"/>
<path d="M5 4h1v1h-1z" fill="rgb(104,55,102)"/>
<path d="M6 4h1v1h-1z" fill="rgb(69,10,120)"/>
<path d="M7 4h1v1h-1z" fill="rgb(83,13,129)"/>
<path d="M8 4h1v1h-1z" fill="rgb(69,9,123)"/>
<path d="M9 4h1v1h-1z" fill="rgb(77,11,126)"/>
<path d="M10 4h1v1h-1z" fill="rgb(133,95,85)"/>
<path d="M11 4h1v1h-1z" fill="rgb(190,209,67)"/>
<path d="M12 4h1v1h-1z" fill="rgb(193,212,68)"/>
<path d="M13 4h1v1h-1z" fill="rgb(155,131,102)"/>
<path d="M14 4h1v1h-1z" fill="rgb(219,205,229)"/>
<path d="M15 4h1v1h-1z" fill="rgb(255,254,250)"/>
<path d="M0 5h1v1h-1z" fill="rgb(255,253,254)"/>
<path d="M1 5h1v1h-1z" fill="rgb(214,188,224)"/>
<path d="M2 5h1v1h-1z" fill="rgb(103,45,130)"/>
<path d="M3 5h1v1h-1z" fill="rgb(88,40,99)"/>
<path d="M4 5h1v1h-1z" fill="rgb(81,31,103)"/>
<path d="M5 5h1v1h-1z" fill="rgb(81,16,131)"/>
<path d="M6 5h1v1h-1z" fill="rgb(80,22,121)"/>
<path d="M7 5h1v1h-1z" fill="rgb(124,92,90)"/>
<path d="M8 5h1v1h-1z" fill="rgb(104,57,101)"/>
<path d="M9 5h1v1h-1z" fill="rgb(67,11,116)"/>
<path d="M10 5h1v1h-1z" fill="rgb(74,17,118)"/>
<path d="M11 5h1v1h-1z" fill="rgb(91,45,101)"/>
<path d="M12 5h1v1h-1z" fill="rgb(94,51,94)"/>
<path d="M13 5h1v1h-1z" fill="rgb(115,53,135)"/>
<path d="M14 5h1v1h-1z" fill="rgb(216,200,227)"/>
<path d="M15 5h1v2h-1z" fill="rgb(255,255,255)"/>
<path d="M0 6h1v1h-1z" fill="rgb(255,255,253)"/>
<path d="M1 6h1v1h-1z" fill="rgb(220,207,227)"/>
<path d="M2 6h1v1h-1z" fill="rgb(109,49,129)"/>
<path d="M3 6h1v1h-1z" fill="rgb(87,40,96)"/>
<path d="M4 6h1v1h-1z" fill="rgb(75,26,105)"/>
<path d="M5 6h1v1h-1z" fill="rgb(87,31,115)"/>
<path d="M6 6h1v1h-1z" fill="rgb(141,121,71)"/>
<path d="M7 6h1v1h-1z" fill="rgb(184,209,65)"/>
<path d="M8 6h1v1h-1z" fill="rgb(175,188,61)"/>
<path d="M9 6h1v1h-1z" fill="rgb(130,104,78)"/>
<path d="M10 6h1v1h-1z" fill="rgb(90,37,112)"/>
<path d="M11 6h1v1h-1z" fill="rgb(83,27,116)"/>
<path d="M12 6h1v1h-1z" fill="rgb(86,39,103)"/>
<path d="M13 6h1v1h-1z" fill="rgb(112,57,135)"/>
<path d="M14 6h1v1h-1z" fill="rgb(221,201,227)"/>
<path d="M0 7h1v1h-1z" fill="rgb(255,255,255)"/>
<path d="M1 7h1v1h-1z" fill="rgb(230,217,237)"/>
<path d="M2 7h1v1h-1z" fill="rgb(154,134,83)"/>
<path d="M3 7h1v1h-1z" fill="rgb(189,206,66)"/>
<path d="M4 7h1v1h-1z" fill="rgb(170,179,60)"/>
<path d="M5 7h1v1h-1z" fill="rgb(174,189,62)"/>
<path d="M6 7h1v1h-1z" fill="rgb(183,207,65)"/>
<path d="M7 7h1v1h-1z" fill="rgb(190,220,68)"/>
<path d="M8 7h1v1h-1z" fill="rgb(189,218,67)"/>
<path d="M9 7h1v1h-1z" fill="rgb(182,209,65)"/>
<path d="M10 7h1v1h-1z" fill="rgb(176,187,63)"/>
<path d="M11 7h1v1h-1z" fill="rgb(182,203,64)"/>
<path d="M12 7h1v1h-1z" fill="rgb(185,197,65)"/>
<path d="M13 7h1v1h-1z" fill="rgb(151,127,100)"/>
<path d="M14 7h1v1h-1z" fill="rgb(222,205,232)"/>
<path d="M15 7h1v1h-1z" fill="rgb(254,255,253)"/>
<path d="M0 8h1v1h-1z" fill="rgb(255,254,255)"/>
<path d="M1 8h1v1h-1z" fill="rgb(237,231,240)"/>
<path d="M2 8h1v1h-1z" fill="rgb(157,137,87)"/>
<path d="M3 8h1v1h-1z" fill="rgb(193,213,68)"/>
<path d="M4 8h1v1h-1z" fill="rgb(178,198,64)"/>
<path d="M5 8h1v1h-1z" fill="rgb(179,200,63)"/>
<path d="M6 8h1v1h-1z" fill="rgb(187,211,66)"/>
<path d="M7 8h1v1h-1z" fill="rgb(188,220,68)"/>
<path d="M8 8h1v1h-1z" fill="rgb(188,219,68)"/>
<path d="M9 8h1v1h-1z" fill="rgb(187,215,67)"/>
<path d="M10 8h1v1h-1z" fill="rgb(179,188,62)"/>
<path d="M11 8h1v1h-1z" fill="rgb(187,205,66)"/>
<path d="M12 8h1v1h-1z" fill="rgb(188,206,66)"/>
<path d="M13 8h1v1h-1z" fill="rgb(152,127,103)"/>
<path d="M14 8h1v1h-1z" fill="rgb(221,204,228)"/>
<path d="M15 8h1v1h-1z" fill="rgb(255,255,253)"/>
<path d="M0 9h1v1h-1z" fill="rgb(255,255,255)"/>
<path d="M1 9h1v1h-1z" fill="rgb(239,227,240)"/>
<path d="M2 9h1v1h-1z" fill="rgb(108,51,128)"/>
<path d="M3 9h1v1h-1z" fill="rgb(90,35,111)"/>
<path d="M4 9h1v1h-1z" fill="rgb(85,31,109)"/>
<path d="M5 9h1v1h-1z" fill="rgb(94,56,97)"/>
<path d="M6 9h1v1h-1z" fill="rgb(139,128,67)"/>
<path d="M7 9h1v1h-1z" fill="rgb(169,181,61)"/>
<path d="M8 9h1v1h-1z" fill="rgb(157,158,61)"/>
<path d="M9 9h1v1h-1z" fill="rgb(109,79,81)"/>
<path d="M10 9h1v1h-1z" fill="rgb(86,39,105)"/>
<path d="M11 9h1v1h-1z" fill="rgb(84,30,111)"/>
<path d="M12 9h1v1h-1z" fill="rgb(94,54,98)"/>
<path d="M13 9h1v1h-1z" fill="rgb(118,58,139)"/>
<path d="M14 9h1v1h-1z" fill="rgb(225,208,232)"/>
<path d="M15 9h1v1h-1z" fill="rgb(251,255,254)"/>
<path d="M0 10h1v1h-1z" fill="rgb(254,255,251)"/>
<path d="M1 10h1v1h-1z" fill="rgb(225,210,233)"/>
<path d="M2 10h1v1h-1z" fill="rgb(109,54,128)"/>
<path d="M3 10h1v1h-1z" fill="rgb(92,37,111)"/>
<path d="M4 10h1v1h-1z" fill="rgb(84,25,120)"/>
<path d="M5 10h1v1h-1z" fill="rgb(78,14,128)"/>
<path d="M6 10h1v1h-1z" fill="rgb(84,18,131)"/>
<path d="M7 10h1v1h-1z" fill="rgb(83,18,131)"/>
<path d="M8 10h1v1h-1z" fill="rgb(83,17,128)"/>
<path d="M9 10h1v1h-1z" fill="rgb(79,15,130)"/>
<path d="M10 10h1v1h-1z" fill="rgb(73,15,120)"/>
<path d="M11 10h1v1h-1z" fill="rgb(83,20,127)"/>
<path d="M12 10h1v1h-1z" fill="rgb(93,50,93)"/>
<path d="M13 10h1v1h-1z" fill="rgb(118,61,141)"/>
<path d="M14 10h1v1h-1z" fill="rgb(223,206,231)"/>
<path d="M15 10h1v1h-1z" fill="rgb(255,255,255)"/>
<path d="M0 11h1v4h-1z" fill="rgb(255,255,255)"/>
<path d="M1 11h1v1h-1z" fill="rgb(225,210,231)"/>
<path d="M2 11h1v1h-1z" fill="rgb(166,153,83)"/>
<path d="M3 11h1v1h-1z" fill="rgb(199,227,71)"/>
<path d="M4 11h1v1h-1z" fill="rgb(180,190,66)"/>
<path d="M5 11h1v1h-1z" fill="rgb(108,71,107)"/>
<path d="M6 11h1v1h-1z" fill="rgb(96,36,142)"/>
<path d="M7 11h1v1h-1z" fill="rgb(97,40,141)"/>
<path d="M8 11h1v1h-1z" fill="rgb(92,35,138)"/>
<path d="M9 11h1v1h-1z" fill="rgb(90,27,132)"/>
<path d="M10 11h1v1h-1z" fill="rgb(127,95,101)"/>
<path d="M11 11h1v1h-1z" fill="rgb(187,204,67)"/>
<path d="M12 11h1v1h-1z" fill="rgb(191,210,67)"/>
<path d="M13 11h1v1h-1z" fill="rgb(163,136,115)"/>
<path d="M14 11h1v1h-1z" fill="rgb(217,200,225)"/>
<path d="M15 11h1v1h-1z" fill="rgb(255,253,254)"/>
<path d="M1 12h1v1h-1z" fill="rgb(234,221,240)"/>
<path d="M2 12h1v1h-1z" fill="rgb(189,179,114)"/>
<path d="M3 12h1v1h-1z" fill="rgb(205,232,72)"/>
<path d="M4 12h1v1h-1z" fill="rgb(204,222,73)"/>
<path d="M5 12h1v1h-1z" fill="rgb(174,149,140)"/>
<path d="M6 12h1v1h-1z" fill="rgb(184,143,202)"/>
<path d="M7 12h1v1h-1z" fill="rgb(193,164,209)"/>
<path d="M8 12h1v1h-1z" fill="rgb(192,165,209)"/>
<path d="M9 12h1v1h-1z" fill="rgb(178,150,201)"/>
<path d="M10 12h1v1h-1z" fill="rgb(186,173,129)"/>
<path d="M11 12h1v1h-1z" fill="rgb(204,227,74)"/>
<path d="M12 12h1v1h-1z" fill="rgb(206,228,73)"/>
<path d="M13 12h1v1h-1z" fill="rgb(187,174,134)"/>
<path d="M14 12h1v1h-1z" fill="rgb(215,198,225)"/>
<path d="M15 12h1v1h-1z" fill="rgb(248,245,253)"/>
<path d="M1 13h1v1h-1z" fill="rgb(252,250,253)"/>
<path d="M2 13h1v1h-1z" fill="rgb(211,191,209)"/>
<path d="M3 13h1v1h-1z" fill="rgb(188,180,112)"/>
<path d="M4 13h1v1h-1z" fill="rgb(188,169,142)"/>
<path d="M5 13h1v1h-1z" fill="rgb(201,176,206)"/>
<path d="M6 13h1v1h-1z" fill="rgb(235,222,241)"/>
<path d="M7 13h1v1h-1z" fill="rgb(247,245,246)"/>
<path d="M8 13h1v1h-1z" fill="rgb(247,244,251)"/>
<path d="M9 13h1v1h-1z" fill="rgb(235,221,237)"/>
<path d="M10 13h1v1h-1z" fill="rgb(205,186,206)"/>
<path d="M11 13h1v1h-1z" fill="rgb(198,191,143)"/>
<path d="M12 13h1v1h-1z" fill="rgb(203,191,153)"/>
<path d="M13 13h1v1h-1z" fill="rgb(212,188,212)"/>
<path d="M14 13h1v1h-1z" fill="rgb(247,242,248)"/>
<path d="M15 13h1v1h-1z" fill="rgb(252,250,251)"/>
<path d="M1 14h1v1h-1z" fill="rgb(254,255,255)"/>
<path d="M2 14h1v1h-1z" fill="rgb(243,235,247)"/>
<path d="M3 14h1v1h-1z" fill="rgb(215,194,228)"/>
<path d="M4 14h1v1h-1z" fill="rgb(218,197,222)"/>
<path d="M5 14h1v1h-1z" fill="rgb(236,228,242)"/>
<path d="M6 14h1v1h-1z" fill="rgb(251,250,255)"/>
<path d="M7 14h2v1h-2z" fill="rgb(255,255,255)"/>
<path d="M9 14h1v1h-1z" fill="rgb(251,249,250)"/>
<path d="M10 14h1v1h-1z" fill="rgb(234,224,240)"/>
<path d="M11 14h1v1h-1z" fill="rgb(226,211,234)"/>
<path d="M12 14h1v1h-1z" fill="rgb(240,234,243)"/>
<path d="M13 14h1v1h-1z" fill="rgb(240,232,244)"/>
<path d="M14 14h1v1h-1z" fill="rgb(252,252,254)"/>
<path d="M15 14h1v1h-1z" fill="rgb(251,255,250)"/>
<path d="M0 15h1v1h-1z" fill="rgb(255,255,253)"/>
<path d="M1 15h1v1h-1z" fill="rgb(255,255,255)"/>
<path d="M2 15h1v1h-1z" fill="rgb(253,251,252)"/>
<path d="M3 15h1v1h-1z" fill="rgb(250,248,253)"/>
<path d="M4 15h1v1h-1z" fill="rgb(249,247,252)"/>
<path d="M5 15h1v1h-1z" fill="rgb(250,251,253)"/>
<path d="M6 15h1v1h-1z" fill="rgb(254,255,253)"/>
<path d="M7 15h1v1h-1z" fill="rgb(255,253,254)"/>
<path d="M8 15h1v1h-1z" fill="rgb(255,254,255)"/>
<path d="M9 15h1v1h-1z" fill="rgb(253,253,251)"/>
<path d="M10 15h1v1h-1z" fill="rgb(249,246,252)"/>
<path d="M11 15h1v1h-1z" fill="rgb(247,245,250)"/>
<path d="M12 15h1v1h-1z" fill="rgb(253,253,253)"/>
<path d="M13 15h1v1h-1z" fill="rgb(249,247,252)"/>
<path d="M14 15h1v1h-1z" fill="rgb(252,250,253)"/>
<path d="M15 15h1v1h-1z" fill="rgb(255,253,255)"/>
</svg>
