<?xml version="1.0" encoding="utf-8"?>
<!-- generated at drububu.com  -->
<!DOCTYPE svg PUBLIC "-//W3C//DTD SVG 1.1//EN" "http://www.w3.org/Graphics/SVG/1.1/DTD/svg11.dtd">
<svg version="1.1" preserveAspectRatio="xMinYMin meet" xmlns="http://www.w3.org/2000/svg" xmlns:xlink="http://www.w3.org/1999/xlink" x="0px" y="0px" width="16px" height="16px" viewBox="0 0 16 16">
<path d="M0 0h4v3h1v1h-1v2h8v-2h-1v-1h1v-3h4v15h-2v1h-14z" fill="rgb(0,0,0)"/>
<path d="M4 0h1v1h-1z" fill="rgb(60,39,20)"/>
<path d="M5 0h1v1h-1z" fill="rgb(90,55,23)"/>
<path d="M6 0h1v1h-1z" fill="rgb(105,62,24)"/>
<path d="M7 0h1v1h-1z" fill="rgb(94,57,22)"/>
<path d="M8 0h1v1h-1z" fill="rgb(82,52,22)"/>
<path d="M9 0h1v1h-1z" fill="rgb(73,46,20)"/>
<path d="M10 0h1v1h-1z" fill="rgb(48,32,19)"/>
<path d="M11 0h1v1h-1z" fill="rgb(40,28,18)"/>
<path d="M4 1h1v1h-1z" fill="rgb(59,39,20)"/>
<path d="M5 1h1v1h-1z" fill="rgb(76,48,22)"/>
<path d="M6 1h2v1h-2z" fill="rgb(103,61,24)"/>
<path d="M8 1h1v1h-1z" fill="rgb(91,55,22)"/>
<path d="M9 1h1v1h-1z" fill="rgb(63,41,21)"/>
<path d="M10 1h1v1h-1z" fill="rgb(41,29,17)"/>
<path d="M11 1h1v1h-1z" fill="rgb(37,26,16)"/>
<path d="M4 2h1v1h-1z" fill="rgb(61,40,20)"/>
<path d="M5 2h1v1h-1z" fill="rgb(51,49,47)"/>
<path d="M6 2h1v1h-1z" fill="rgb(91,56,23)"/>
<path d="M7 2h1v1h-1z" fill="rgb(106,63,24)"/>
<path d="M8 2h1v1h-1z" fill="rgb(99,59,23)"/>
<path d="M9 2h1v1h-1z" fill="rgb(66,43,20)"/>
<path d="M10 2h1v1h-1z" fill="rgb(41,29,18)"/>
<path d="M11 2h1v1h-1z" fill="rgb(34,25,16)"/>
<path d="M5 3h1v1h-1z" fill="rgb(57,37,20)"/>
<path d="M6 3h1v1h-1z" fill="rgb(50,47,46)"/>
<path d="M7 3h1v1h-1z" fill="rgb(99,59,23)"/>
<path d="M8 3h1v1h-1z" fill="rgb(102,61,24)"/>
<path d="M9 3h1v1h-1z" fill="rgb(78,50,22)"/>
<path d="M10 3h1v1h-1z" fill="rgb(50,33,19)"/>
<path d="M4 4h1v1h-1z" fill="rgb(59,40,20)"/>
<path d="M5 4h1v1h-1z" fill="rgb(58,39,19)"/>
<path d="M6 4h1v1h-1z" fill="rgb(42,42,40)"/>
<path d="M7 4h1v1h-1z" fill="rgb(53,51,48)"/>
<path d="M8 4h1v1h-1z" fill="rgb(98,58,23)"/>
<path d="M9 4h1v1h-1z" fill="rgb(84,51,22)"/>
<path d="M10 4h1v1h-1z" fill="rgb(58,38,19)"/>
<path d="M11 4h1v1h-1z" fill="rgb(39,27,16)"/>
<path d="M4 5h1v1h-1z" fill="rgb(58,39,19)"/>
<path d="M5 5h1v1h-1z" fill="rgb(57,54,53)"/>
<path d="M6 5h1v1h-1z" fill="rgb(60,39,19)"/>
<path d="M7 5h1v1h-1z" fill="rgb(48,46,45)"/>
<path d="M8 5h1v1h-1z" fill="rgb(72,47,21)"/>
<path d="M9 5h1v1h-1z" fill="rgb(72,46,21)"/>
<path d="M10 5h1v1h-1z" fill="rgb(59,39,20)"/>
<path d="M11 5h1v1h-1z" fill="rgb(49,33,20)"/>
<path d="M14 15h1v1h-1z" fill="rgb(255,0,0)"/>
<path d="M15 15h1v1h-1z" fill="rgb(255,0,204)"/>
</svg>
